<svg width="627" height="422" viewBox="0 0 627 422" fill="none" xmlns="http://www.w3.org/2000/svg">
<path d="M209 304V419.543" stroke="#575756" stroke-width="0.5" stroke-miterlimit="10" stroke-linecap="square"/>
<path d="M290 304V419.543" stroke="#575756" stroke-width="0.5" stroke-miterlimit="10" stroke-linecap="square"/>
<path d="M371 304V419.543" stroke="#575756" stroke-width="0.5" stroke-miterlimit="10" stroke-linecap="square"/>
<path d="M452 304V419.543" stroke="#575756" stroke-width="0.5" stroke-miterlimit="10" stroke-linecap="square"/>
<path d="M533 304V419.543" stroke="#575756" stroke-width="0.5" stroke-miterlimit="10" stroke-linecap="square"/>
<path d="M218 304V419.543" stroke="#575756" stroke-width="0.5" stroke-miterlimit="10" stroke-linecap="square"/>
<path d="M299 304V419.543" stroke="#575756" stroke-width="0.5" stroke-miterlimit="10" stroke-linecap="square"/>
<path d="M380 304V419.543" stroke="#575756" stroke-width="0.5" stroke-miterlimit="10" stroke-linecap="square"/>
<path d="M461 304V419.543" stroke="#575756" stroke-width="0.5" stroke-miterlimit="10" stroke-linecap="square"/>
<path d="M542 304V419.543" stroke="#575756" stroke-width="0.5" stroke-miterlimit="10" stroke-linecap="square"/>
<path d="M227 304V419.543" stroke="#575756" stroke-width="0.5" stroke-miterlimit="10" stroke-linecap="square"/>
<path d="M308 304V419.543" stroke="#575756" stroke-width="0.5" stroke-miterlimit="10" stroke-linecap="square"/>
<path d="M389 304V419.543" stroke="#575756" stroke-width="0.5" stroke-miterlimit="10" stroke-linecap="square"/>
<path d="M470 304V419.543" stroke="#575756" stroke-width="0.5" stroke-miterlimit="10" stroke-linecap="square"/>
<path d="M551 304V419.543" stroke="#575756" stroke-width="0.5" stroke-miterlimit="10" stroke-linecap="square"/>
<path d="M236 304V419.543" stroke="#575756" stroke-width="0.5" stroke-miterlimit="10" stroke-linecap="square"/>
<path d="M317 304V419.543" stroke="#575756" stroke-width="0.5" stroke-miterlimit="10" stroke-linecap="square"/>
<path d="M398 304V419.543" stroke="#575756" stroke-width="0.5" stroke-miterlimit="10" stroke-linecap="square"/>
<path d="M479 304V419.543" stroke="#575756" stroke-width="0.5" stroke-miterlimit="10" stroke-linecap="square"/>
<path d="M560 304V419.543" stroke="#575756" stroke-width="0.5" stroke-miterlimit="10" stroke-linecap="square"/>
<path d="M245 304V419.543" stroke="#575756" stroke-width="0.5" stroke-miterlimit="10" stroke-linecap="square"/>
<path d="M326 304V419.543" stroke="#575756" stroke-width="0.5" stroke-miterlimit="10" stroke-linecap="square"/>
<path d="M407 304V419.543" stroke="#575756" stroke-width="0.5" stroke-miterlimit="10" stroke-linecap="square"/>
<path d="M488 304V419.543" stroke="#575756" stroke-width="0.5" stroke-miterlimit="10" stroke-linecap="square"/>
<path d="M569 304V419.543" stroke="#575756" stroke-width="0.5" stroke-miterlimit="10" stroke-linecap="square"/>
<path d="M254 304V419.543" stroke="#575756" stroke-width="0.5" stroke-miterlimit="10" stroke-linecap="square"/>
<path d="M335 304V419.543" stroke="#575756" stroke-width="0.5" stroke-miterlimit="10" stroke-linecap="square"/>
<path d="M416 304V419.543" stroke="#575756" stroke-width="0.5" stroke-miterlimit="10" stroke-linecap="square"/>
<path d="M497 304V419.543" stroke="#575756" stroke-width="0.5" stroke-miterlimit="10" stroke-linecap="square"/>
<path d="M578 304V419.543" stroke="#575756" stroke-width="0.5" stroke-miterlimit="10" stroke-linecap="square"/>
<path d="M263 304V419.543" stroke="#575756" stroke-width="0.5" stroke-miterlimit="10" stroke-linecap="square"/>
<path d="M344 304V419.543" stroke="#575756" stroke-width="0.5" stroke-miterlimit="10" stroke-linecap="square"/>
<path d="M425 304V419.543" stroke="#575756" stroke-width="0.5" stroke-miterlimit="10" stroke-linecap="square"/>
<path d="M506 304V419.543" stroke="#575756" stroke-width="0.5" stroke-miterlimit="10" stroke-linecap="square"/>
<path d="M587 304V419.543" stroke="#575756" stroke-width="0.5" stroke-miterlimit="10" stroke-linecap="square"/>
<path d="M272 304V419.543" stroke="#575756" stroke-width="0.5" stroke-miterlimit="10" stroke-linecap="square"/>
<path d="M353 304V419.543" stroke="#575756" stroke-width="0.5" stroke-miterlimit="10" stroke-linecap="square"/>
<path d="M434 304V419.543" stroke="#575756" stroke-width="0.5" stroke-miterlimit="10" stroke-linecap="square"/>
<path d="M515 304V419.543" stroke="#575756" stroke-width="0.5" stroke-miterlimit="10" stroke-linecap="square"/>
<path d="M281 304V419.543" stroke="#575756" stroke-width="0.5" stroke-miterlimit="10" stroke-linecap="square"/>
<path d="M362 304V419.543" stroke="#575756" stroke-width="0.5" stroke-miterlimit="10" stroke-linecap="square"/>
<path d="M443 304V419.543" stroke="#575756" stroke-width="0.5" stroke-miterlimit="10" stroke-linecap="square"/>
<path d="M524 304V419.543" stroke="#575756" stroke-width="0.5" stroke-miterlimit="10" stroke-linecap="square"/>
<path d="M164 304V419.543" stroke="#575756" stroke-width="0.5" stroke-miterlimit="10" stroke-linecap="square"/>
<path d="M119 304V419.543" stroke="#575756" stroke-width="0.5" stroke-miterlimit="10" stroke-linecap="square"/>
<path d="M74 304V419.543" stroke="#575756" stroke-width="0.5" stroke-miterlimit="10" stroke-linecap="square"/>
<path d="M29 304V419.543" stroke="#575756" stroke-width="0.5" stroke-miterlimit="10" stroke-linecap="square"/>
<path d="M200 304V419.543" stroke="#575756" stroke-width="0.5" stroke-miterlimit="10" stroke-linecap="square"/>
<path d="M155 304V419.543" stroke="#575756" stroke-width="0.5" stroke-miterlimit="10" stroke-linecap="square"/>
<path d="M110 304V419.543" stroke="#575756" stroke-width="0.5" stroke-miterlimit="10" stroke-linecap="square"/>
<path d="M65 304V419.543" stroke="#575756" stroke-width="0.5" stroke-miterlimit="10" stroke-linecap="square"/>
<path d="M20 304V419.543" stroke="#575756" stroke-width="0.5" stroke-miterlimit="10" stroke-linecap="square"/>
<path d="M191 304V419.543" stroke="#575756" stroke-width="0.5" stroke-miterlimit="10" stroke-linecap="square"/>
<path d="M146 304V419.543" stroke="#575756" stroke-width="0.5" stroke-miterlimit="10" stroke-linecap="square"/>
<path d="M101 304V419.543" stroke="#575756" stroke-width="0.5" stroke-miterlimit="10" stroke-linecap="square"/>
<path d="M56 304V419.543" stroke="#575756" stroke-width="0.5" stroke-miterlimit="10" stroke-linecap="square"/>
<path d="M11 304V419.543" stroke="#575756" stroke-width="0.5" stroke-miterlimit="10" stroke-linecap="square"/>
<path d="M182 304V419.543" stroke="#575756" stroke-width="0.5" stroke-miterlimit="10" stroke-linecap="square"/>
<path d="M137 304V419.543" stroke="#575756" stroke-width="0.5" stroke-miterlimit="10" stroke-linecap="square"/>
<path d="M92 304V419.543" stroke="#575756" stroke-width="0.5" stroke-miterlimit="10" stroke-linecap="square"/>
<path d="M47 304V419.543" stroke="#575756" stroke-width="0.5" stroke-miterlimit="10" stroke-linecap="square"/>
<path d="M173 304V419.543" stroke="#575756" stroke-width="0.5" stroke-miterlimit="10" stroke-linecap="square"/>
<path d="M128 304V419.543" stroke="#575756" stroke-width="0.5" stroke-miterlimit="10" stroke-linecap="square"/>
<path d="M83 304V419.543" stroke="#575756" stroke-width="0.5" stroke-miterlimit="10" stroke-linecap="square"/>
<path d="M38 304V419.543" stroke="#575756" stroke-width="0.5" stroke-miterlimit="10" stroke-linecap="square"/>
<path d="M595.5 419.5H2.5V303.5H595.5V419.5Z" stroke="#111111"/>
<mask id="path-67-inside-1_4296_576" fill="white">
<path fill-rule="evenodd" clip-rule="evenodd" d="M3 421L15 330H3L3 421ZM596 421L584 330H596V421Z"/>
</mask>
<path fill-rule="evenodd" clip-rule="evenodd" d="M3 421L15 330H3L3 421ZM596 421L584 330H596V421Z" fill="#737474"/>
<path d="M15 330L15.9914 330.131L16.1405 329H15V330ZM3 421L2 421L3.99142 421.131L3 421ZM3 330V329H2L2 330L3 330ZM584 330V329H582.859L583.009 330.131L584 330ZM596 421L595.009 421.131L597 421H596ZM596 330H597V329H596V330ZM14.0086 329.869L2.00858 420.869L3.99142 421.131L15.9914 330.131L14.0086 329.869ZM3 331H15V329H3V331ZM4 421L4 330L2 330L2 421L4 421ZM583.009 330.131L595.009 421.131L596.991 420.869L584.991 329.869L583.009 330.131ZM596 329H584V331H596V329ZM597 421V330H595V421H597Z" fill="#111111" mask="url(#path-67-inside-1_4296_576)"/>
<path fill-rule="evenodd" clip-rule="evenodd" d="M624.25 303V419H623.75V303H624.25Z" fill="#575756"/>
<path fill-rule="evenodd" clip-rule="evenodd" d="M607 418.927H624V419.427H607V418.927Z" fill="#575756"/>
<path fill-rule="evenodd" clip-rule="evenodd" d="M596 418.927H602V419.427H596V418.927Z" fill="#575756"/>
<path fill-rule="evenodd" clip-rule="evenodd" d="M622.177 301L626.177 305L625.823 305.354L621.823 301.354L622.177 301Z" fill="#575756"/>
<path fill-rule="evenodd" clip-rule="evenodd" d="M622.177 417L626.177 421L625.823 421.354L621.823 417.354L622.177 417Z" fill="#575756"/>
<path d="M618.23 370.392C617.771 370.4 617.341 370.195 617.049 369.875C616.772 369.576 616.641 369.16 616.641 368.752C616.641 368.307 616.801 367.891 617.115 367.6C617.406 367.315 617.815 367.147 618.238 367.147C618.799 367.147 619.186 367.395 619.667 367.869L621.431 369.532L621.431 367.162L622 367.162L622 370.429L621.431 370.429L619.178 368.219C618.843 367.891 618.537 367.745 618.238 367.745C617.961 367.745 617.705 367.855 617.516 368.044C617.319 368.234 617.21 368.489 617.21 368.774C617.21 369.036 617.312 369.284 617.479 369.466C617.676 369.663 617.939 369.794 618.23 369.787L618.23 370.392Z" fill="#212121"/>
<path d="M622.131 365.652C622.591 365.652 622.868 365.878 622.788 366.323L622.503 366.286C622.525 365.987 622.285 365.951 622 365.973L622 366.323L621.205 366.323L621.205 365.652L622.131 365.652Z" fill="#212121"/>
<path d="M619.186 361.445C619.499 361.132 619.951 360.993 620.389 361.001C620.921 361.008 621.417 361.205 621.73 361.606C621.986 361.912 622.102 362.313 622.102 362.7C622.11 363.086 621.993 363.48 621.745 363.793C621.541 364.056 621.249 364.245 620.936 364.34L620.775 363.771C620.987 363.706 621.176 363.582 621.307 363.407C621.461 363.21 621.534 362.955 621.534 362.7C621.534 362.444 621.453 362.189 621.293 362C621.074 361.722 620.739 361.613 620.389 361.613C620.061 361.613 619.732 361.715 619.514 361.963C619.331 362.167 619.251 362.437 619.251 362.707C619.251 362.896 619.302 363.101 619.39 363.276L618.923 363.567L617.319 361.876L617.319 364.129L616.75 364.129L616.75 361.066L617.334 361.066L618.741 362.546C618.755 362.116 618.909 361.737 619.186 361.445Z" fill="#212121"/>
<path d="M621.395 359.921L621.009 359.468C621.329 359.25 621.548 358.878 621.548 358.469C621.548 358.083 621.351 357.718 621.06 357.514C620.826 357.332 620.542 357.237 620.221 357.237L619.543 357.237C619.9 357.543 620.134 357.988 620.134 358.484C620.134 358.929 619.959 359.366 619.66 359.687C619.331 360.023 618.894 360.212 618.398 360.205C617.931 360.198 617.494 360.008 617.173 359.687C616.838 359.366 616.641 358.907 616.648 358.418C616.641 357.93 616.852 357.463 617.195 357.135C617.567 356.771 618.004 356.639 618.537 356.639L620.221 356.639C620.753 356.639 621.198 356.792 621.563 357.135C621.935 357.485 622.117 357.959 622.11 358.469C622.11 359.053 621.847 359.585 621.395 359.921ZM617.319 358.666C617.377 358.973 617.574 359.235 617.837 359.388C618.077 359.519 618.362 359.571 618.646 359.505C618.945 359.439 619.193 359.257 619.346 359.009C619.499 358.768 619.55 358.477 619.485 358.178C619.419 357.872 619.229 357.624 618.981 357.471C618.741 357.325 618.449 357.274 618.157 357.339C617.88 357.405 617.64 357.573 617.487 357.799C617.319 358.047 617.253 358.353 617.319 358.666Z" fill="#212121"/>
<path d="M622.11 354.239C622.11 354.735 621.913 355.224 621.541 355.545C621.184 355.858 620.804 355.982 620.309 355.982L618.435 355.982C617.946 355.982 617.552 355.858 617.188 355.53C616.838 355.216 616.634 354.743 616.641 354.239C616.634 353.751 616.823 353.277 617.188 352.949C617.538 352.628 617.939 352.497 618.435 352.497L620.309 352.497C620.782 352.497 621.184 352.621 621.541 352.927C621.905 353.255 622.11 353.722 622.11 354.239ZM617.21 354.239C617.202 354.633 617.414 354.99 617.727 355.195C617.931 355.326 618.165 355.384 618.435 355.384L620.309 355.384C620.564 355.384 620.812 355.34 621.023 355.195C621.337 354.983 621.541 354.626 621.541 354.239C621.541 353.846 621.337 353.488 621.023 353.284C620.812 353.138 620.593 353.095 620.309 353.095L618.435 353.095C618.165 353.095 617.953 353.146 617.727 353.277C617.414 353.488 617.202 353.846 617.21 354.239Z" fill="#212121"/>
<path d="M292.25 361.25C292.25 357.384 295.384 354.25 299.25 354.25C303.116 354.25 306.25 357.384 306.25 361.25C306.25 365.116 303.116 368.25 299.25 368.25C295.384 368.25 292.25 365.116 292.25 361.25Z" fill="#D3D3D3"/>
<path d="M297.611 358.25L297.428 361.333L298.045 361.683C298.12 361.55 298.228 361.433 298.345 361.333C298.578 361.133 298.886 361.008 299.211 361.008C299.561 361.008 299.878 361.142 300.12 361.367C300.395 361.608 300.57 361.975 300.57 362.367C300.57 362.742 300.411 363.075 300.161 363.325C299.92 363.567 299.578 363.717 299.211 363.717C298.87 363.717 298.545 363.583 298.303 363.358C298.111 363.192 297.97 362.958 297.903 362.708L297.253 362.883C297.353 363.25 297.553 363.575 297.82 363.825C298.195 364.175 298.686 364.375 299.211 364.367C299.753 364.375 300.278 364.158 300.645 363.783C301.011 363.425 301.245 362.908 301.245 362.367C301.253 361.792 301.028 361.267 300.603 360.883C300.245 360.567 299.77 360.383 299.278 360.383C298.853 360.383 298.428 360.542 298.111 360.808L298.228 358.892H300.778V358.25H297.611Z" fill="#575756"/>
<path d="M299.25 368C295.522 368 292.5 364.978 292.5 361.25H292C292 365.254 295.246 368.5 299.25 368.5V368ZM306 361.25C306 364.978 302.978 368 299.25 368V368.5C303.254 368.5 306.5 365.254 306.5 361.25H306ZM299.25 354.5C302.978 354.5 306 357.522 306 361.25H306.5C306.5 357.246 303.254 354 299.25 354V354.5ZM299.25 354C295.246 354 292 357.246 292 361.25H292.5C292.5 357.522 295.522 354.5 299.25 354.5V354Z" fill="#575756"/>
<path fill-rule="evenodd" clip-rule="evenodd" d="M466.403 165.51L467.788 164.933L483.598 202.49L482.213 203.067L466.403 165.51ZM468.195 163.961L484.575 202.886L481.806 204.039L465.426 165.114L468.195 163.961Z" fill="black"/>
<path d="M372 130.543L372 119.003" stroke="#575756" stroke-width="0.5" stroke-miterlimit="10" stroke-linecap="square"/>
<path d="M417 130.543L417 80.543" stroke="#575756" stroke-width="0.5" stroke-miterlimit="10" stroke-linecap="square"/>
<path d="M462 130.543L462 44.543" stroke="#575756" stroke-width="0.5" stroke-miterlimit="10" stroke-linecap="square"/>
<path d="M381 130.543L381 112.543" stroke="#575756" stroke-width="0.5" stroke-miterlimit="10" stroke-linecap="square"/>
<path d="M426 130.543L426 72.543" stroke="#575756" stroke-width="0.5" stroke-miterlimit="10" stroke-linecap="square"/>
<path d="M471 130.543L471 36.543" stroke="#575756" stroke-width="0.5" stroke-miterlimit="10" stroke-linecap="square"/>
<path d="M390 130.543L390 104.543" stroke="#575756" stroke-width="0.5" stroke-miterlimit="10" stroke-linecap="square"/>
<path d="M435 130.543L435 66.543" stroke="#575756" stroke-width="0.5" stroke-miterlimit="10" stroke-linecap="square"/>
<path d="M399 130.543L399 96.543" stroke="#575756" stroke-width="0.5" stroke-miterlimit="10" stroke-linecap="square"/>
<path d="M444 130.543L444 58.543" stroke="#575756" stroke-width="0.5" stroke-miterlimit="10" stroke-linecap="square"/>
<path d="M408 130.543L408 87.543" stroke="#575756" stroke-width="0.5" stroke-miterlimit="10" stroke-linecap="square"/>
<path d="M453 130.543L453 51.543" stroke="#575756" stroke-width="0.5" stroke-miterlimit="10" stroke-linecap="square"/>
<path d="M401.677 208.177C401.774 208.079 401.774 207.921 401.677 207.823L400.086 206.232C399.988 206.135 399.83 206.135 399.732 206.232C399.635 206.33 399.635 206.488 399.732 206.586L401.146 208L399.732 209.414C399.635 209.512 399.635 209.67 399.732 209.768C399.83 209.865 399.988 209.865 400.086 209.768L401.677 208.177ZM390 208.25H401.5V207.75H390V208.25Z" fill="black"/>
<path d="M157.823 288.823C157.726 288.921 157.726 289.079 157.823 289.177L159.414 290.768C159.512 290.865 159.67 290.865 159.768 290.768C159.865 290.67 159.865 290.512 159.768 290.414L158.354 289L159.768 287.586C159.865 287.488 159.865 287.33 159.768 287.232C159.67 287.135 159.512 287.135 159.414 287.232L157.823 288.823ZM179 288.75H158V289.25H179V288.75Z" fill="black"/>
<path d="M377.177 243.823C377.079 243.726 376.921 243.726 376.823 243.823L375.232 245.414C375.135 245.512 375.135 245.67 375.232 245.768C375.33 245.865 375.488 245.865 375.586 245.768L377 244.354L378.414 245.768C378.512 245.865 378.67 245.865 378.768 245.768C378.865 245.67 378.865 245.512 378.768 245.414L377.177 243.823ZM377.25 255.5L377.25 244L376.75 244L376.75 255.5L377.25 255.5Z" fill="black"/>
<path d="M435.177 232.823C435.079 232.726 434.921 232.726 434.823 232.823L433.232 234.414C433.135 234.512 433.135 234.67 433.232 234.768C433.33 234.865 433.488 234.865 433.586 234.768L435 233.354L436.414 234.768C436.512 234.865 436.67 234.865 436.768 234.768C436.865 234.67 436.865 234.512 436.768 234.414L435.177 232.823ZM435.25 244.5L435.25 233L434.75 233L434.75 244.5L435.25 244.5Z" fill="black"/>
<rect x="485.5" y="139.5" width="23" height="6" transform="rotate(90 485.5 139.5)" fill="#D1D1D1" stroke="#111111"/>
<path d="M479.5 30.8662L360.219 130.5L348.379 130.5L479.5 21.0685L479.5 30.8662Z" fill="#D1D1D1" stroke="#111111"/>
<path d="M314.653 201.25L342.347 201.25L328.5 213.664L314.653 201.25ZM314.25 201.56L328.125 214L314.25 226.44L314.25 201.56ZM314.653 226.75L328.5 214.336L342.347 226.75L314.653 226.75ZM342.75 226.44L328.875 214L342.75 201.56L342.75 226.44Z" stroke="#111111" stroke-width="0.5"/>
<path d="M370.75 201.566L370.75 226.434L357.121 214L370.75 201.566ZM370.355 201.25L356.75 213.662L343.145 201.25L370.355 201.25ZM342.75 201.566L356.379 214L342.75 226.434L342.75 201.566ZM343.145 226.75L356.75 214.338L370.355 226.75L343.145 226.75Z" stroke="#111111" stroke-width="0.5"/>
<rect x="308.75" y="201.25" width="91.5" height="20.5" transform="rotate(90 308.75 201.25)" stroke="#111111" stroke-width="0.5"/>
<rect x="157.75" y="141.25" width="108.5" height="47.5" transform="rotate(90 157.75 141.25)" stroke="#111111" stroke-width="0.5"/>
<rect x="584.75" y="201.25" width="91.5" height="98.5" transform="rotate(90 584.75 201.25)" stroke="#111111" stroke-width="0.5"/>
<rect x="152.75" y="212.25" width="28.5" height="13.5" transform="rotate(90 152.75 212.25)" stroke="#111111" stroke-width="0.5"/>
<rect x="157.75" y="249.75" width="42.5" height="47.5" transform="rotate(90 157.75 249.75)" stroke="#111111" stroke-width="0.5"/>
<rect x="370.25" y="283.25" width="9.5" height="55.5" transform="rotate(90 370.25 283.25)" stroke="#111111" stroke-width="0.5"/>
<rect x="376.75" y="268.25" width="24.5" height="6.5" transform="rotate(90 376.75 268.25)" stroke="#111111" stroke-width="0.5"/>
<rect x="481.25" y="268.25" width="24.5" height="104.5" transform="rotate(90 481.25 268.25)" stroke="#111111" stroke-width="0.5"/>
<rect x="421.75" y="272.25" width="16.5" height="36.5" transform="rotate(90 421.75 272.25)" stroke="#111111" stroke-width="0.5"/>
<path d="M353.75 268.5L353.75 283.25L332.25 283.25L332.25 268.5C332.25 262.563 337.063 257.75 343 257.75C348.937 257.75 353.75 262.563 353.75 268.5Z" stroke="#111111" stroke-width="0.5"/>
<path d="M595.5 297.5H484V292.5H595.5V297.5ZM483 292.5V297.5H373V292.5H483ZM373 298.5H483V303.5H373V298.5ZM372 292.5V297.5H311V292.5H372ZM311 298.5H372V303.5H311V298.5ZM310 292.5V297.5H222.5V292.5H310ZM222.5 298.5H310V303.5H222.5V298.5ZM484 298.5H595.5V303.5H484V298.5Z" fill="#D1D1D1" stroke="#111111"/>
<path d="M127 298.5H13.5V292.5H220.5V296.5H113V297.5H220.5V303.5H13.5V299.5H127V298.5Z" fill="#D1D1D1" stroke="#111111"/>
<mask id="path-111-inside-2_4296_576" fill="white">
<path d="M419 130L419 142L14 142L14 304L2 304L2.00001 130L419 130Z"/>
</mask>
<path d="M419 130L419 142L14 142L14 304L2 304L2.00001 130L419 130Z" fill="#737474"/>
<path d="M419 130L420 130L420 129L419 129V130ZM14 304L14 305L15 305L15 304L14 304ZM2 304L1 304L1 305L2 305L2 304ZM2.00001 130L2.00001 129L1.00001 129L1.00001 130L2.00001 130ZM14 142L14 141L13 141L13 142L14 142ZM419 142L419 143L420 143L420 142L419 142ZM14 303L2 303L2 305L14 305L14 303ZM3 304L3.00001 130L1.00001 130L1 304L3 304ZM2.00001 131L419 131V129L2.00001 129L2.00001 131ZM13 142L13 304L15 304L15 142L13 142ZM418 130L418 142L420 142L420 130L418 130ZM419 141L14 141L14 143L419 143L419 141Z" fill="#111111" mask="url(#path-111-inside-2_4296_576)"/>
<path d="M436.5 135.5H418.5V130.5H436.5V135.5ZM418.5 136.5H436.5V141.5H418.5V136.5Z" fill="#D1D1D1" stroke="#111111"/>
<mask id="path-114-inside-3_4296_576" fill="white">
<path fill-rule="evenodd" clip-rule="evenodd" d="M596 130H479V142L584 142L584 304H596L596 142V130Z"/>
</mask>
<path fill-rule="evenodd" clip-rule="evenodd" d="M596 130H479V142L584 142L584 304H596L596 142V130Z" fill="#737474"/>
<path d="M479 130V129H478V130H479ZM596 130H597V129H596V130ZM479 142H478V143L479 143L479 142ZM584 142L585 142L585 141L584 141L584 142ZM584 304L583 304L583 305H584V304ZM596 304V305H597L597 304L596 304ZM596 142L597 142V142H596ZM479 131H596V129H479V131ZM480 142V130H478V142H480ZM584 141L479 141L479 143L584 143L584 141ZM585 304L585 142L583 142L583 304L585 304ZM596 303H584V305H596V303ZM595 142L595 304L597 304L597 142L595 142ZM595 130V142H597V130H595Z" fill="#111111" mask="url(#path-114-inside-3_4296_576)"/>
<rect x="220.5" y="292.5" width="3" height="11" fill="#737474" stroke="#111111"/>
<rect x="269.5" y="292.5" width="3" height="11" fill="#737474" stroke="#111111"/>
<mask id="path-118-inside-4_4296_576" fill="white">
<path fill-rule="evenodd" clip-rule="evenodd" d="M315 233L315 293H308L308 201H315L315 226L370 226V201H377V233H371H370L315 233Z"/>
</mask>
<path fill-rule="evenodd" clip-rule="evenodd" d="M315 233L315 293H308L308 201H315L315 226L370 226V201H377V233H371H370L315 233Z" fill="#737474"/>
<path d="M315 293V294H316L316 293L315 293ZM315 233L315 232L314 232L314 233L315 233ZM308 293L307 293L307 294H308V293ZM308 201V200H307L307 201L308 201ZM315 201L316 201L316 200H315V201ZM315 226L314 226L314 227L315 227L315 226ZM370 226L370 227L371 227V226H370ZM370 201V200H369V201H370ZM377 201H378V200H377V201ZM377 233V234H378V233H377ZM370 233L370 234H370V233ZM316 293L316 233L314 233L314 293L316 293ZM308 294H315V292H308V294ZM307 201L307 293L309 293L309 201L307 201ZM315 200H308V202H315V200ZM316 226L316 201L314 201L314 226L316 226ZM315 227L370 227L370 225L315 225L315 227ZM369 201V226H371V201H369ZM377 200H370V202H377V200ZM378 233V201H376V233H378ZM371 234H377V232H371V234ZM371 232H370V234H371V232ZM370 232L315 232L315 234L370 234L370 232Z" fill="#111111" mask="url(#path-118-inside-4_4296_576)"/>
<mask id="path-120-inside-5_4296_576" fill="white">
<path fill-rule="evenodd" clip-rule="evenodd" d="M430 208L480 208L480 293H487L487 208V201L480 201H430V208Z"/>
</mask>
<path fill-rule="evenodd" clip-rule="evenodd" d="M430 208L480 208L480 293H487L487 208V201L480 201H430V208Z" fill="#737474"/>
<path d="M480 208L481 208L481 207L480 207L480 208ZM430 208H429V209L430 209L430 208ZM480 293L479 293L479 294H480V293ZM487 293V294H488L488 293L487 293ZM487 208L488 208V208H487ZM487 201H488V200L487 200L487 201ZM480 201L480 200H480V201ZM430 201V200H429V201H430ZM480 207L430 207L430 209L480 209L480 207ZM481 293L481 208L479 208L479 293L481 293ZM487 292H480V294H487V292ZM486 208L486 293L488 293L488 208L486 208ZM486 201V208H488V201H486ZM480 202L487 202L487 200L480 200L480 202ZM430 202H480V200H430V202ZM431 208V201H429V208H431Z" fill="#111111" mask="url(#path-120-inside-5_4296_576)"/>
<circle cx="298.5" cy="219.5" r="3.25" stroke="#111111" stroke-width="0.5"/>
<mask id="path-123-inside-6_4296_576" fill="white">
<path fill-rule="evenodd" clip-rule="evenodd" d="M234 193C234 193.575 233.946 194.137 233.843 194.682C239.985 197.117 244.883 202.015 247.318 208.157C247.863 208.054 248.425 208 249 208C253.971 208 258 212.029 258 217C258 221.971 253.971 226 249 226C248.425 226 247.863 225.946 247.318 225.843C244.883 231.985 239.985 236.883 233.843 239.318C233.946 239.863 234 240.425 234 241C234 245.971 229.971 250 225 250C220.029 250 216 245.971 216 241C216 240.425 216.054 239.863 216.157 239.318C210.015 236.883 205.117 231.985 202.682 225.843C202.137 225.946 201.575 226 201 226C196.029 226 192 221.971 192 217C192 212.029 196.029 208 201 208C201.575 208 202.137 208.054 202.682 208.157C205.117 202.015 210.015 197.117 216.157 194.682C216.054 194.137 216 193.575 216 193C216 188.029 220.029 184 225 184C229.971 184 234 188.029 234 193Z"/>
</mask>
<path d="M233.843 194.682L233.352 194.589L233.275 194.994L233.659 195.146L233.843 194.682ZM247.318 208.157L246.854 208.341L247.006 208.725L247.411 208.648L247.318 208.157ZM247.318 225.843L247.411 225.352L247.006 225.275L246.854 225.659L247.318 225.843ZM233.843 239.318L233.659 238.854L233.275 239.006L233.352 239.411L233.843 239.318ZM216.157 239.318L216.648 239.411L216.725 239.006L216.341 238.854L216.157 239.318ZM202.682 225.843L203.146 225.659L202.994 225.275L202.589 225.352L202.682 225.843ZM202.682 208.157L202.589 208.648L202.994 208.725L203.146 208.341L202.682 208.157ZM216.157 194.682L216.341 195.146L216.725 194.994L216.648 194.589L216.157 194.682ZM234.334 194.775C234.443 194.199 234.5 193.606 234.5 193H233.5C233.5 193.543 233.449 194.075 233.352 194.589L234.334 194.775ZM247.783 207.973C245.297 201.702 240.298 196.703 234.027 194.217L233.659 195.146C239.673 197.531 244.469 202.327 246.854 208.341L247.783 207.973ZM249 207.5C248.394 207.5 247.801 207.557 247.225 207.666L247.411 208.648C247.925 208.551 248.457 208.5 249 208.5V207.5ZM258.5 217C258.5 211.753 254.247 207.5 249 207.5V208.5C253.694 208.5 257.5 212.306 257.5 217H258.5ZM249 226.5C254.247 226.5 258.5 222.247 258.5 217H257.5C257.5 221.694 253.694 225.5 249 225.5V226.5ZM247.225 226.334C247.801 226.443 248.394 226.5 249 226.5V225.5C248.457 225.5 247.926 225.449 247.411 225.352L247.225 226.334ZM234.027 239.783C240.298 237.297 245.297 232.298 247.783 226.027L246.854 225.659C244.469 231.673 239.673 236.469 233.659 238.854L234.027 239.783ZM234.5 241C234.5 240.394 234.443 239.801 234.334 239.225L233.352 239.411C233.449 239.926 233.5 240.457 233.5 241H234.5ZM225 250.5C230.247 250.5 234.5 246.247 234.5 241H233.5C233.5 245.694 229.694 249.5 225 249.5V250.5ZM215.5 241C215.5 246.247 219.753 250.5 225 250.5V249.5C220.306 249.5 216.5 245.694 216.5 241H215.5ZM215.666 239.225C215.557 239.801 215.5 240.394 215.5 241H216.5C216.5 240.457 216.551 239.925 216.648 239.411L215.666 239.225ZM202.217 226.027C204.703 232.298 209.702 237.297 215.973 239.783L216.341 238.854C210.327 236.469 205.531 231.673 203.146 225.659L202.217 226.027ZM202.589 225.352C202.075 225.449 201.543 225.5 201 225.5V226.5C201.606 226.5 202.199 226.443 202.775 226.334L202.589 225.352ZM201 225.5C196.306 225.5 192.5 221.694 192.5 217H191.5C191.5 222.247 195.753 226.5 201 226.5V225.5ZM192.5 217C192.5 212.306 196.306 208.5 201 208.5V207.5C195.753 207.5 191.5 211.753 191.5 217H192.5ZM201 208.5C201.543 208.5 202.075 208.551 202.589 208.648L202.775 207.666C202.199 207.557 201.606 207.5 201 207.5V208.5ZM215.973 194.217C209.702 196.703 204.703 201.702 202.217 207.973L203.146 208.341C205.531 202.327 210.327 197.531 216.341 195.146L215.973 194.217ZM215.5 193C215.5 193.606 215.557 194.199 215.666 194.775L216.648 194.589C216.551 194.075 216.5 193.543 216.5 193H215.5ZM225 183.5C219.753 183.5 215.5 187.753 215.5 193H216.5C216.5 188.306 220.306 184.5 225 184.5V183.5ZM234.5 193C234.5 187.753 230.247 183.5 225 183.5V184.5C229.694 184.5 233.5 188.306 233.5 193H234.5Z" fill="#111111" mask="url(#path-123-inside-6_4296_576)"/>
<circle cx="225" cy="217" r="23.75" stroke="#111111" stroke-width="0.5"/>
<line x1="430.5" y1="208" x2="430.5" y2="235" stroke="#111111"/>
<line x1="386" y1="204.5" x2="430" y2="204.5" stroke="#111111"/>
<line x1="432.5" y1="220" x2="432.5" y2="247" stroke="#111111"/>
<line x1="373.5" y1="233" x2="373.5" y2="260" stroke="#111111"/>
<path fill-rule="evenodd" clip-rule="evenodd" d="M437.024 86L437.232 86.0118C458.117 87.2597 479.016 105.996 479 130.79L479 131L478.584 131L478.584 130.79C478.6 106.241 457.895 87.6675 437.207 86.4314L437 86.4196L437.024 86Z" fill="#575756"/>
<path fill-rule="evenodd" clip-rule="evenodd" d="M465.595 165C452.05 170.88 440.989 184.729 441 201.813L441 202L441.366 202L441.366 201.813C441.355 184.885 452.329 171.154 465.76 165.334C465.829 165.304 465.595 165 465.595 165Z" fill="#575756"/>
<path fill-rule="evenodd" clip-rule="evenodd" d="M436.25 86.8333L434.75 86.8333L434.75 130.167L436.25 130.167L436.25 86.8333ZM434 86L434 131L437 131L437 86L434 86Z" fill="black"/>
<path fill-rule="evenodd" clip-rule="evenodd" d="M580.5 248.001V245.989C580.672 245.968 580.839 245.918 581 245.831V248.061C580.842 248.013 580.675 247.995 580.5 248.001ZM580.5 282.989V288.5L490.5 288.5L490.5 205.5L580.5 205.5V211.001C580.675 210.995 580.842 211.013 581 211.061V205.5V205H580.5L490.5 205L490 205V205.5L490 288.5L490 289H490.5L580.5 289H581V288.5V282.831C580.839 282.918 580.672 282.968 580.5 282.989Z" fill="#111111"/>
<path d="M582.151 212.767C583.204 218.001 583.36 240.66 582.151 244.166C580.572 248.745 577.064 243.185 575.31 244.166C574.083 243.512 570.259 247.96 568.996 244.82C567.418 240.895 567.944 217.346 568.996 212.767C569.838 209.104 574.258 212.986 575.837 212.767C577.24 213.204 581.309 208.581 582.151 212.767Z" stroke="#111111" stroke-width="0.5"/>
<path d="M582.151 249.767C583.204 255.001 583.36 277.66 582.151 281.166C580.572 285.745 577.064 280.185 575.31 281.166C574.083 280.512 570.259 284.96 568.996 281.82C567.418 277.895 567.944 254.346 568.996 249.767C569.838 246.104 574.258 249.986 575.837 249.767C577.24 250.204 581.309 245.581 582.151 249.767Z" stroke="#111111" stroke-width="0.5"/>
<path fill-rule="evenodd" clip-rule="evenodd" d="M15 141.5H97C97.8284 141.5 98.5 142.172 98.5 143V152C98.5 152.828 97.8284 153.5 97 153.5H92.9973C93.1304 153.665 93.256 153.833 93.3735 154H97C98.1046 154 99 153.105 99 152V143C99 141.895 98.1046 141 97 141H15C13.8954 141 13 141.895 13 143V152C13 153.105 13.8954 154 15 154H61.6674C61.7867 153.835 61.9136 153.667 62.0477 153.5H15C14.1716 153.5 13.5 152.828 13.5 152V143C13.5 142.172 14.1716 141.5 15 141.5Z" fill="#111111"/>
<path fill-rule="evenodd" clip-rule="evenodd" d="M13.5 216L13.5 155C13.5 154.172 14.1716 153.5 15 153.5L24 153.5C24.8284 153.5 25.5 154.172 25.5 155L25.5 182.46C25.6655 182.328 25.8328 182.205 26 182.089L26 155C26 153.895 25.1046 153 24 153H15C13.8954 153 13 153.895 13 155L13 216C13 217.105 13.8954 218 15 218H24C25.1046 218 26 217.105 26 216V213.871C25.8349 213.753 25.6676 213.628 25.5 213.495V216C25.5 216.828 24.8284 217.5 24 217.5H15C14.1716 217.5 13.5 216.828 13.5 216Z" fill="#111111"/>
<path fill-rule="evenodd" clip-rule="evenodd" d="M16.0906 280.5C15.9326 280.335 15.7874 280.168 15.6532 280H15C13.8954 280 13 280.895 13 282V291C13 292.105 13.8954 293 15 293H97C98.1046 293 99 292.105 99 291V282C99 280.895 98.1046 280 97 280H46.2295C46.055 280.169 45.8699 280.336 45.675 280.5H97C97.8284 280.5 98.5 281.172 98.5 282V291C98.5 291.828 97.8284 292.5 97 292.5H15C14.1716 292.5 13.5 291.828 13.5 291V282C13.5 281.172 14.1716 280.5 15 280.5H16.0906Z" fill="#111111"/>
<path d="M88.5 161.5C84.5 162.5 68.1797 162.648 65.5 161.5C62 160 61.2496 157.667 60.5 156C61 154.833 62.6 152.2 65 151C68 149.5 86 150 89.5 151C92.3 151.8 94.3333 155 94.5 156.5C94.1667 157.834 91.7 160.7 88.5 161.5Z" stroke="black" stroke-width="0.5"/>
<path d="M33.4463 187C34.4463 191 34.5947 207.32 33.4463 210C31.9463 213.5 29.613 214.25 27.9463 215C26.7798 214.5 24.1467 212.9 22.9467 210.5C21.4467 207.5 21.9467 189.5 22.9467 186C23.7467 183.2 26.9467 181.167 28.4467 181C29.7799 181.333 32.6463 183.8 33.4463 187Z" stroke="black" stroke-width="0.5"/>
<path d="M42 282.446C38 283.446 21.6797 283.595 19 282.446C15.5 280.946 14.7496 278.613 14 276.946C14.5 275.78 16.1 273.147 18.5 271.947C21.5 270.447 39.5 270.947 43 271.947C45.8 272.747 47.8333 275.947 48 277.447C47.6667 278.78 45.2 281.646 42 282.446Z" stroke="black" stroke-width="0.5"/>
<mask id="path-142-inside-7_4296_576" fill="white">
<path fill-rule="evenodd" clip-rule="evenodd" d="M139.5 150.5L152.5 150.5L152.5 178.5H139.5L139.5 166H147V163H139.5L139.5 150.5ZM139 163L139 150.5V150H139.5H152.5H153V150.5L153 178.5V179H152.5H139.5H139V178.5L139 166H136C136 166 136.5 165.5 136.5 164.5C136.5 163.5 136 163 136 163H139Z"/>
</mask>
<path d="M152.5 150.5L153 150.5L153 150L152.5 150L152.5 150.5ZM139.5 150.5L139.5 150L139 150L139 150.5L139.5 150.5ZM152.5 178.5V179H153L153 178.5L152.5 178.5ZM139.5 178.5L139 178.5L139 179H139.5V178.5ZM139.5 166V165.5H139L139 166L139.5 166ZM147 166V166.5H147.5V166H147ZM147 163H147.5V162.5H147V163ZM139.5 163L139 163L139 163.5H139.5V163ZM139 150.5L139.5 150.5V150.5H139ZM139 163V163.5H139.5L139.5 163L139 163ZM139 150V149.5H138.5V150H139ZM153 150H153.5V149.5H153V150ZM153 150.5L153.5 150.5V150.5H153ZM153 178.5L152.5 178.5V178.5H153ZM153 179V179.5H153.5V179H153ZM139 179H138.5V179.5H139V179ZM139 178.5L138.5 178.5V178.5H139ZM139 166L139.5 166L139.5 165.5H139V166ZM136 166L135.646 165.646L134.793 166.5H136V166ZM136 163V162.5H134.793L135.646 163.354L136 163ZM152.5 150L139.5 150L139.5 151L152.5 151L152.5 150ZM153 178.5L153 150.5L152 150.5L152 178.5L153 178.5ZM139.5 179H152.5V178H139.5V179ZM139 166L139 178.5L140 178.5L140 166L139 166ZM147 165.5H139.5V166.5H147V165.5ZM146.5 163V166H147.5V163H146.5ZM139.5 163.5H147V162.5H139.5V163.5ZM139 150.5L139 163L140 163L140 150.5L139 150.5ZM138.5 150.5L138.5 163L139.5 163L139.5 150.5L138.5 150.5ZM138.5 150V150.5H139.5V150H138.5ZM139.5 149.5H139V150.5H139.5V149.5ZM152.5 149.5H139.5V150.5H152.5V149.5ZM153 149.5H152.5V150.5H153V149.5ZM153.5 150.5V150H152.5V150.5H153.5ZM153.5 178.5L153.5 150.5L152.5 150.5L152.5 178.5L153.5 178.5ZM153.5 179V178.5H152.5V179H153.5ZM152.5 179.5H153V178.5H152.5V179.5ZM139.5 179.5H152.5V178.5H139.5V179.5ZM139 179.5H139.5V178.5H139V179.5ZM138.5 178.5V179H139.5V178.5H138.5ZM138.5 166L138.5 178.5L139.5 178.5L139.5 166L138.5 166ZM139 165.5H136V166.5H139V165.5ZM136 166C136.354 166.354 136.354 166.353 136.354 166.353C136.354 166.353 136.354 166.353 136.354 166.353C136.355 166.353 136.355 166.352 136.355 166.352C136.356 166.352 136.356 166.351 136.357 166.35C136.358 166.349 136.359 166.348 136.361 166.346C136.363 166.344 136.367 166.34 136.37 166.336C136.378 166.328 136.387 166.318 136.398 166.306C136.419 166.281 136.447 166.248 136.478 166.206C136.541 166.123 136.62 166.003 136.697 165.849C136.853 165.537 137 165.086 137 164.5H136C136 164.914 135.897 165.213 135.803 165.401C135.755 165.497 135.709 165.565 135.678 165.606C135.663 165.627 135.651 165.641 135.645 165.647C135.642 165.651 135.641 165.652 135.641 165.652C135.641 165.652 135.641 165.652 135.642 165.651C135.643 165.65 135.643 165.65 135.644 165.649C135.644 165.649 135.645 165.648 135.645 165.648C135.645 165.648 135.646 165.647 135.646 165.647C135.646 165.647 135.646 165.647 135.646 165.647C135.646 165.647 135.646 165.646 136 166ZM137 164.5C137 163.914 136.853 163.463 136.697 163.151C136.62 162.997 136.541 162.877 136.478 162.794C136.447 162.752 136.419 162.719 136.398 162.694C136.387 162.682 136.378 162.672 136.37 162.664C136.367 162.66 136.363 162.656 136.361 162.654C136.359 162.652 136.358 162.651 136.357 162.65C136.356 162.649 136.356 162.648 136.355 162.648C136.355 162.648 136.355 162.647 136.354 162.647C136.354 162.647 136.354 162.647 136.354 162.647C136.354 162.647 136.354 162.646 136 163C135.646 163.354 135.646 163.353 135.646 163.353C135.646 163.353 135.646 163.353 135.646 163.353C135.646 163.353 135.645 163.352 135.645 163.352C135.645 163.352 135.644 163.351 135.644 163.351C135.643 163.35 135.643 163.35 135.642 163.349C135.641 163.348 135.641 163.348 135.641 163.348C135.641 163.348 135.642 163.349 135.645 163.353C135.651 163.359 135.663 163.373 135.678 163.394C135.709 163.435 135.755 163.503 135.803 163.599C135.897 163.787 136 164.086 136 164.5H137ZM136 163.5H139V162.5H136V163.5Z" fill="black" mask="url(#path-142-inside-7_4296_576)"/>
<circle cx="134.5" cy="164.5" r="2.25" stroke="black" stroke-width="0.5"/>
<mask id="path-145-inside-8_4296_576" fill="white">
<path fill-rule="evenodd" clip-rule="evenodd" d="M470.311 229C469.645 231.588 467.296 233.5 464.5 233.5C461.186 233.5 458.5 230.814 458.5 227.5C458.5 224.186 461.186 221.5 464.5 221.5C467.296 221.5 469.645 223.412 470.311 226H464V229H470.311ZM470.826 229C470.149 231.867 467.574 234 464.5 234C460.91 234 458 231.09 458 227.5C458 223.91 460.91 221 464.5 221C467.574 221 470.149 223.133 470.826 226H481V229H470.826Z"/>
</mask>
<path d="M470.311 229L470.795 229.125L470.956 228.5H470.311V229ZM470.311 226V226.5H470.956L470.795 225.875L470.311 226ZM464 226V225.5H463.5V226H464ZM464 229H463.5V229.5H464V229ZM470.826 229V228.5H470.43L470.339 228.885L470.826 229ZM470.826 226L470.339 226.115L470.43 226.5H470.826V226ZM481 226H481.5V225.5H481V226ZM481 229V229.5H481.5V229H481ZM464.5 234C467.529 234 470.074 231.928 470.795 229.125L469.827 228.875C469.216 231.248 467.062 233 464.5 233V234ZM458 227.5C458 231.09 460.91 234 464.5 234V233C461.462 233 459 230.538 459 227.5H458ZM464.5 221C460.91 221 458 223.91 458 227.5H459C459 224.462 461.462 222 464.5 222V221ZM470.795 225.875C470.074 223.072 467.529 221 464.5 221V222C467.062 222 469.216 223.752 469.827 226.125L470.795 225.875ZM464 226.5H470.311V225.5H464V226.5ZM464.5 229V226H463.5V229H464.5ZM470.311 228.5H464V229.5H470.311V228.5ZM464.5 234.5C467.811 234.5 470.583 232.202 471.313 229.115L470.339 228.885C469.714 231.531 467.337 233.5 464.5 233.5V234.5ZM457.5 227.5C457.5 231.366 460.634 234.5 464.5 234.5V233.5C461.186 233.5 458.5 230.814 458.5 227.5H457.5ZM464.5 220.5C460.634 220.5 457.5 223.634 457.5 227.5H458.5C458.5 224.186 461.186 221.5 464.5 221.5V220.5ZM471.313 225.885C470.583 222.798 467.811 220.5 464.5 220.5V221.5C467.337 221.5 469.714 223.469 470.339 226.115L471.313 225.885ZM470.826 226.5H481V225.5H470.826V226.5ZM480.5 226V229H481.5V226H480.5ZM481 228.5H470.826V229.5H481V228.5Z" fill="#111111" mask="url(#path-145-inside-8_4296_576)"/>
<path fill-rule="evenodd" clip-rule="evenodd" d="M2.23828 9.92676H596V10.4268H2.23828V9.92676Z" fill="#575756"/>
<path fill-rule="evenodd" clip-rule="evenodd" d="M595.5 27V10H596V27H595.5Z" fill="#575756"/>
<path fill-rule="evenodd" clip-rule="evenodd" d="M2 25V10H2.5V25H2Z" fill="#575756"/>
<path fill-rule="evenodd" clip-rule="evenodd" d="M595.5 130V32H596V130H595.5Z" fill="#575756"/>
<path fill-rule="evenodd" clip-rule="evenodd" d="M2 130V32H2.5V130H2Z" fill="#575756"/>
<path fill-rule="evenodd" clip-rule="evenodd" d="M0 12L4 8L4.3536 8.35356L0.3536 12.3536L0 12Z" fill="#575756"/>
<path fill-rule="evenodd" clip-rule="evenodd" d="M593.5 12L597.5 8L597.854 8.35356L593.854 12.3536L593.5 12Z" fill="#575756"/>
<path fill-rule="evenodd" clip-rule="evenodd" d="M624.25 130V303H623.75V130H624.25Z" fill="#575756"/>
<path fill-rule="evenodd" clip-rule="evenodd" d="M607 302.927H624V303.427H607V302.927Z" fill="#575756"/>
<path fill-rule="evenodd" clip-rule="evenodd" d="M609 129.927H624V130.427H609V129.927Z" fill="#575756"/>
<path fill-rule="evenodd" clip-rule="evenodd" d="M596 129.927H602V130.427H596V129.927Z" fill="#575756"/>
<path fill-rule="evenodd" clip-rule="evenodd" d="M596 302.927H602V303.427H596V302.927Z" fill="#575756"/>
<path fill-rule="evenodd" clip-rule="evenodd" d="M622.177 128L626.177 132L625.823 132.354L621.823 128.354L622.177 128Z" fill="#575756"/>
<path fill-rule="evenodd" clip-rule="evenodd" d="M622.177 301L626.177 305L625.823 305.354L621.823 301.354L622.177 301Z" fill="#575756"/>
<path d="M290.679 2.7502H291.277V8.0002H290.679V3.40645L289.687 4.00437V3.34083L290.679 2.7502Z" fill="#212121"/>
<path d="M292.475 4.23041C292.467 3.77104 292.672 3.34083 292.992 3.04916C293.291 2.77208 293.707 2.64083 294.115 2.64083C294.56 2.64083 294.976 2.80124 295.267 3.11479C295.552 3.40645 295.719 3.81479 295.719 4.2377C295.719 4.79916 295.472 5.18562 294.998 5.66687L293.335 7.43145H295.705V8.0002H292.438V7.43145L294.648 5.17833C294.976 4.84291 295.122 4.53666 295.122 4.2377C295.122 3.96062 295.012 3.70541 294.823 3.51583C294.633 3.31895 294.378 3.20958 294.093 3.20958C293.831 3.20958 293.583 3.31166 293.401 3.47937C293.204 3.67624 293.073 3.93874 293.08 4.23041H292.475Z" fill="#212121"/>
<path d="M297.215 8.13145C297.215 8.59083 296.989 8.86791 296.544 8.7877L296.581 8.50333C296.88 8.5252 296.916 8.28458 296.894 8.0002H296.544V7.20541H297.215V8.13145Z" fill="#212121"/>
<path d="M300.124 8.10958C299.628 8.10958 299.139 7.9127 298.818 7.54083C298.505 7.18354 298.381 6.80437 298.381 6.30854V4.43458C298.381 3.94604 298.505 3.55229 298.833 3.1877C299.147 2.8377 299.621 2.63354 300.124 2.64083C300.612 2.63354 301.086 2.82312 301.414 3.1877C301.735 3.5377 301.866 3.93874 301.866 4.43458V6.30854C301.866 6.78249 301.742 7.18354 301.436 7.54083C301.108 7.90541 300.641 8.10958 300.124 8.10958ZM300.124 3.20958C299.73 3.20229 299.373 3.41374 299.168 3.72729C299.037 3.93145 298.979 4.16479 298.979 4.43458V6.30854C298.979 6.56374 299.023 6.81166 299.168 7.02312C299.38 7.33666 299.737 7.54083 300.124 7.54083C300.517 7.54083 300.875 7.33666 301.079 7.02312C301.225 6.81166 301.268 6.59291 301.268 6.30854V4.43458C301.268 4.16479 301.217 3.95333 301.086 3.72729C300.875 3.41374 300.517 3.20229 300.124 3.20958Z" fill="#212121"/>
<path d="M305.803 3.3627L305.358 3.74187C305.139 3.42104 304.767 3.20958 304.351 3.20958C303.965 3.20958 303.6 3.39916 303.396 3.69812C303.214 3.92416 303.119 4.20854 303.119 4.52937V5.20749C303.425 4.8502 303.878 4.61687 304.366 4.61687C304.818 4.61687 305.248 4.79187 305.569 5.09083C305.912 5.42624 306.094 5.85645 306.087 6.35229C306.087 6.81895 305.89 7.26374 305.576 7.57729C305.248 7.9127 304.789 8.10958 304.308 8.10229C303.812 8.10958 303.345 7.90541 303.017 7.5627C302.653 7.19083 302.521 6.74604 302.521 6.21374V4.52937C302.521 3.99708 302.674 3.55229 303.024 3.19499C303.367 2.82312 303.841 2.64083 304.351 2.64083C304.942 2.64083 305.467 2.90333 305.803 3.3627ZM304.548 7.43874C304.862 7.37312 305.117 7.18354 305.27 6.92104C305.409 6.68041 305.453 6.38874 305.387 6.11166C305.329 5.80541 305.139 5.55749 304.898 5.40437C304.65 5.25854 304.359 5.20749 304.067 5.26583C303.761 5.33145 303.506 5.52104 303.353 5.77624C303.207 6.00958 303.156 6.30854 303.221 6.59291C303.287 6.87729 303.462 7.11062 303.681 7.26374C303.929 7.43145 304.235 7.49708 304.548 7.43874Z" fill="#212121"/>
<path d="M308.484 8.10958C307.988 8.10958 307.5 7.9127 307.179 7.54083C306.865 7.18354 306.741 6.80437 306.741 6.30854V4.43458C306.741 3.94604 306.865 3.55229 307.193 3.1877C307.507 2.8377 307.981 2.63354 308.484 2.64083C308.973 2.63354 309.447 2.82312 309.775 3.1877C310.095 3.5377 310.227 3.93874 310.227 4.43458V6.30854C310.227 6.78249 310.103 7.18354 309.797 7.54083C309.468 7.90541 309.002 8.10958 308.484 8.10958ZM308.484 3.20958C308.09 3.20229 307.733 3.41374 307.529 3.72729C307.398 3.93145 307.339 4.16479 307.339 4.43458V6.30854C307.339 6.56374 307.383 6.81166 307.529 7.02312C307.74 7.33666 308.098 7.54083 308.484 7.54083C308.878 7.54083 309.235 7.33666 309.439 7.02312C309.585 6.81166 309.629 6.59291 309.629 6.30854V4.43458C309.629 4.16479 309.578 3.95333 309.447 3.72729C309.235 3.41374 308.878 3.20229 308.484 3.20958Z" fill="#212121"/>
<path d="M619.186 222.41C618.909 222.701 618.755 223.08 618.741 223.511L617.334 222.03H616.75L616.75 225.093H617.319L617.319 222.84L618.923 224.532L619.39 224.24C619.302 224.065 619.251 223.861 619.251 223.671C619.251 223.401 619.331 223.132 619.514 222.927C619.732 222.679 620.061 222.577 620.389 222.577C620.739 222.577 621.074 222.687 621.293 222.964C621.453 223.153 621.534 223.409 621.534 223.664C621.534 223.919 621.461 224.174 621.307 224.371C621.176 224.546 620.987 224.67 620.775 224.736L620.936 225.304C621.249 225.21 621.541 225.02 621.745 224.758C621.993 224.444 622.11 224.05 622.102 223.664C622.102 223.277 621.986 222.876 621.73 222.57C621.417 222.169 620.921 221.972 620.389 221.965C619.951 221.958 619.499 222.096 619.186 222.41Z" fill="#212121"/>
<path d="M622.131 220.491H621.205V221.162H622V220.812C622.285 220.79 622.525 220.826 622.503 221.125L622.788 221.162C622.868 220.717 622.591 220.491 622.131 220.491Z" fill="#212121"/>
<path d="M616.75 218.939L619.448 219.099L619.754 218.56C619.638 218.494 619.536 218.399 619.448 218.297C619.273 218.093 619.164 217.823 619.164 217.539C619.164 217.233 619.28 216.955 619.477 216.744C619.689 216.503 620.01 216.35 620.352 216.35C620.68 216.35 620.972 216.489 621.191 216.708C621.402 216.919 621.534 217.218 621.534 217.539C621.534 217.838 621.417 218.122 621.22 218.334C621.074 218.501 620.87 218.625 620.651 218.684L620.804 219.252C621.125 219.165 621.41 218.99 621.628 218.757C621.935 218.428 622.11 217.998 622.102 217.539C622.11 217.065 621.92 216.605 621.592 216.285C621.278 215.964 620.826 215.76 620.352 215.76C619.849 215.752 619.39 215.949 619.054 216.321C618.777 216.635 618.617 217.05 618.617 217.48C618.617 217.852 618.755 218.224 618.989 218.501L617.312 218.399L617.312 216.168H616.75L616.75 218.939Z" fill="#212121"/>
<path d="M622.11 213.358C622.11 213.854 621.913 214.342 621.541 214.663C621.184 214.977 620.804 215.101 620.309 215.101H618.435C617.946 215.101 617.552 214.977 617.188 214.649C616.838 214.335 616.634 213.861 616.641 213.358C616.634 212.869 616.823 212.395 617.188 212.067C617.538 211.746 617.939 211.615 618.435 211.615H620.309C620.782 211.615 621.184 211.739 621.541 212.045C621.905 212.374 622.11 212.84 622.11 213.358ZM617.21 213.358C617.202 213.752 617.414 214.109 617.727 214.313C617.931 214.444 618.165 214.503 618.435 214.503H620.309C620.564 214.503 620.812 214.459 621.023 214.313C621.337 214.102 621.541 213.744 621.541 213.358C621.541 212.964 621.337 212.607 621.023 212.403C620.812 212.257 620.593 212.213 620.309 212.213H618.435C618.165 212.213 617.953 212.264 617.727 212.395C617.414 212.607 617.202 212.964 617.21 213.358Z" fill="#212121"/>
<path d="M622.11 209.291C622.11 209.786 621.913 210.275 621.541 210.596C621.184 210.909 620.804 211.033 620.309 211.033H618.435C617.946 211.033 617.552 210.909 617.188 210.581C616.838 210.268 616.634 209.794 616.641 209.291C616.634 208.802 616.823 208.328 617.188 208C617.538 207.679 617.939 207.548 618.435 207.548L620.309 207.548C620.782 207.548 621.184 207.672 621.541 207.978C621.905 208.306 622.11 208.773 622.11 209.291ZM617.21 209.291C617.202 209.684 617.414 210.042 617.727 210.246C617.931 210.377 618.165 210.435 618.435 210.435H620.309C620.564 210.435 620.812 210.392 621.023 210.246C621.337 210.034 621.541 209.677 621.541 209.291C621.541 208.897 621.337 208.54 621.023 208.335C620.812 208.19 620.593 208.146 620.309 208.146L618.435 208.146C618.165 208.146 617.953 208.197 617.727 208.328C617.414 208.54 617.202 208.897 617.21 209.291Z" fill="#212121"/>
<rect x="479" y="30" width="1" height="100" fill="#111111"/>
<rect x="437" y="131" width="1" height="42" transform="rotate(-90 437 131)" fill="#111111"/>
<path d="M66.3959 218.225V216.5H65.7126V218.225H63.7626L65.7542 214H65.0376L63.0459 218.225V218.867H65.7126V220H66.3959V218.867H67.0376V218.225H66.3959Z" fill="#575756"/>
<path d="M65 223.75C61.272 223.75 58.25 220.728 58.25 217H57.75C57.75 221.004 60.996 224.25 65 224.25V223.75ZM71.75 217C71.75 220.728 68.728 223.75 65 223.75V224.25C69.004 224.25 72.25 221.004 72.25 217H71.75ZM65 210.25C68.728 210.25 71.75 213.272 71.75 217H72.25C72.25 212.996 69.004 209.75 65 209.75V210.25ZM65 209.75C60.996 209.75 57.75 212.996 57.75 217H58.25C58.25 213.272 61.272 210.25 65 210.25V209.75Z" fill="#575756"/>
<path d="M226.441 266.783C226.108 266.467 225.674 266.292 225.183 266.275L226.874 264.667V264H223.374V264.65H225.949L224.016 266.483L224.349 267.017C224.549 266.917 224.783 266.858 224.999 266.858C225.308 266.858 225.616 266.95 225.849 267.158C226.133 267.408 226.249 267.783 226.249 268.158C226.249 268.558 226.124 268.942 225.808 269.192C225.591 269.375 225.299 269.467 225.008 269.467C224.716 269.467 224.424 269.383 224.199 269.208C223.999 269.058 223.858 268.842 223.783 268.6L223.133 268.783C223.241 269.142 223.458 269.475 223.758 269.708C224.116 269.992 224.566 270.125 225.008 270.117C225.449 270.117 225.908 269.983 226.258 269.692C226.716 269.333 226.941 268.767 226.949 268.158C226.958 267.658 226.799 267.142 226.441 266.783Z" fill="#575756"/>
<path d="M225 273.75C221.272 273.75 218.25 270.728 218.25 267H217.75C217.75 271.004 220.996 274.25 225 274.25V273.75ZM231.75 267C231.75 270.728 228.728 273.75 225 273.75V274.25C229.004 274.25 232.25 271.004 232.25 267H231.75ZM225 260.25C228.728 260.25 231.75 263.272 231.75 267H232.25C232.25 262.996 229.004 259.75 225 259.75V260.25ZM225 259.75C220.996 259.75 217.75 262.996 217.75 267H218.25C218.25 263.272 221.272 260.25 225 260.25V259.75Z" fill="#575756"/>
<path d="M527.886 243L526.753 243.675V244.433L527.886 243.75V249H528.57V243H527.886Z" fill="#575756"/>
<path d="M528 252.75C524.272 252.75 521.25 249.728 521.25 246H520.75C520.75 250.004 523.996 253.25 528 253.25V252.75ZM534.75 246C534.75 249.728 531.728 252.75 528 252.75V253.25C532.004 253.25 535.25 250.004 535.25 246H534.75ZM528 239.25C531.728 239.25 534.75 242.272 534.75 246H535.25C535.25 241.996 532.004 238.75 528 238.75V239.25ZM528 238.75C523.996 238.75 520.75 241.996 520.75 246H521.25C521.25 242.272 524.272 239.25 528 239.25V238.75Z" fill="#575756"/>
<path d="M400.154 242.692H400.846C400.837 242.358 400.987 242.058 401.212 241.833C401.421 241.642 401.704 241.525 402.004 241.525C402.329 241.525 402.621 241.65 402.837 241.875C403.054 242.092 403.179 242.383 403.179 242.7C403.179 243.042 403.012 243.392 402.637 243.775L400.112 246.35V247H403.846V246.35H401.137L403.037 244.333C403.579 243.783 403.862 243.342 403.862 242.7C403.862 242.217 403.671 241.75 403.346 241.417C403.012 241.058 402.537 240.875 402.029 240.875C401.562 240.875 401.087 241.025 400.746 241.342C400.379 241.675 400.146 242.167 400.154 242.692Z" fill="#575756"/>
<path d="M402 250.75C398.272 250.75 395.25 247.728 395.25 244H394.75C394.75 248.004 397.996 251.25 402 251.25V250.75ZM408.75 244C408.75 247.728 405.728 250.75 402 250.75V251.25C406.004 251.25 409.25 248.004 409.25 244H408.75ZM402 237.25C405.728 237.25 408.75 240.272 408.75 244H409.25C409.25 239.996 406.004 236.75 402 236.75V237.25ZM402 236.75C397.996 236.75 394.75 239.996 394.75 244H395.25C395.25 240.272 398.272 237.25 402 237.25V236.75Z" fill="#575756"/>
</svg>
