<svg width="432" height="414" viewBox="0 0 432 414" fill="none" xmlns="http://www.w3.org/2000/svg">
<path d="M423.988 240.765C423.988 241.08 423.925 241.359 423.799 241.602C423.673 241.842 423.497 242.031 423.27 242.169C423.042 242.304 422.774 242.372 422.469 242.372C422.156 242.372 421.878 242.296 421.636 242.144C421.391 241.993 421.205 241.762 421.079 241.451L421.282 241.458C421.187 241.717 421.03 241.915 420.813 242.05C420.596 242.185 420.356 242.253 420.092 242.253C419.812 242.253 419.572 242.189 419.371 242.06C419.168 241.932 419.012 241.757 418.902 241.535C418.793 241.311 418.738 241.055 418.738 240.765C418.738 240.476 418.793 240.219 418.902 239.995C419.012 239.771 419.168 239.595 419.371 239.467C419.572 239.339 419.812 239.274 420.092 239.274C420.356 239.274 420.595 239.34 420.81 239.47C421.024 239.599 421.182 239.796 421.282 240.062L421.079 240.079C421.203 239.769 421.387 239.537 421.632 239.383C421.877 239.227 422.156 239.148 422.469 239.148C422.774 239.148 423.042 239.217 423.27 239.355C423.497 239.493 423.673 239.683 423.799 239.925C423.925 240.168 423.988 240.448 423.988 240.765ZM423.494 240.765C423.494 240.448 423.407 240.19 423.232 239.992C423.054 239.794 422.8 239.694 422.469 239.694C422.133 239.694 421.878 239.792 421.706 239.988C421.531 240.184 421.443 240.443 421.443 240.765C421.443 241.087 421.531 241.345 421.706 241.539C421.878 241.733 422.133 241.829 422.469 241.829C422.8 241.829 423.054 241.731 423.232 241.535C423.407 241.339 423.494 241.083 423.494 240.765ZM420.946 240.765C420.946 240.485 420.875 240.258 420.733 240.083C420.588 239.908 420.375 239.82 420.092 239.82C419.81 239.82 419.599 239.908 419.459 240.083C419.316 240.258 419.245 240.485 419.245 240.765C419.245 241.045 419.316 241.273 419.459 241.448C419.599 241.621 419.81 241.707 420.092 241.707C420.375 241.707 420.588 241.621 420.733 241.448C420.875 241.273 420.946 241.045 420.946 240.765ZM424.614 238.311L424.359 238.28C424.366 238.187 424.347 238.119 424.303 238.077C424.258 238.035 424.199 238.009 424.124 238C424.05 237.991 423.969 237.988 423.883 237.993L423.883 238.311L423.144 238.311L423.144 237.713L424.023 237.713C424.237 237.713 424.398 237.768 424.506 237.877C424.613 237.985 424.649 238.129 424.614 238.311ZM423.988 234.678C423.988 234.993 423.912 235.28 423.76 235.539C423.606 235.795 423.399 236.001 423.137 236.155C422.874 236.306 422.577 236.382 422.248 236.382L420.502 236.382C420.163 236.382 419.862 236.306 419.599 236.155C419.333 236.003 419.124 235.796 418.972 235.535C418.818 235.271 418.741 234.973 418.741 234.639C418.741 234.352 418.804 234.086 418.93 233.841C419.056 233.594 419.232 233.392 419.459 233.236L419.784 233.631C419.616 233.738 419.482 233.881 419.382 234.058C419.281 234.235 419.231 234.429 419.231 234.639C419.231 234.875 419.288 235.085 419.403 235.269C419.517 235.453 419.668 235.598 419.854 235.703C420.039 235.808 420.239 235.861 420.456 235.861L421.555 235.861L421.408 235.99C421.177 235.843 420.991 235.651 420.848 235.413C420.706 235.172 420.635 234.911 420.635 234.629C420.635 234.316 420.709 234.035 420.859 233.785C421.006 233.535 421.205 233.337 421.457 233.19C421.709 233.043 421.992 232.97 422.304 232.97C422.615 232.97 422.897 233.048 423.151 233.204C423.406 233.358 423.609 233.565 423.76 233.824C423.912 234.08 423.988 234.365 423.988 234.678ZM423.487 234.678C423.487 234.458 423.435 234.259 423.33 234.079C423.225 233.897 423.082 233.754 422.903 233.649C422.723 233.541 422.524 233.488 422.304 233.488C422.085 233.488 421.885 233.541 421.706 233.649C421.524 233.754 421.38 233.896 421.275 234.076C421.168 234.255 421.114 234.455 421.114 234.674C421.114 234.893 421.168 235.093 421.275 235.273C421.38 235.452 421.524 235.596 421.706 235.703C421.885 235.808 422.085 235.861 422.304 235.861C422.521 235.861 422.72 235.808 422.899 235.703C423.079 235.598 423.222 235.456 423.33 235.276C423.435 235.096 423.487 234.897 423.487 234.678ZM423.988 230.396C423.988 230.707 423.915 230.987 423.771 231.236C423.626 231.484 423.43 231.68 423.183 231.824C422.933 231.969 422.653 232.041 422.343 232.041L420.383 232.041C420.072 232.041 419.794 231.969 419.546 231.824C419.297 231.68 419.099 231.484 418.955 231.236C418.81 230.987 418.738 230.707 418.738 230.396C418.738 230.086 418.81 229.807 418.955 229.56C419.099 229.31 419.297 229.113 419.546 228.968C419.794 228.824 420.072 228.751 420.383 228.751L422.343 228.751C422.653 228.751 422.933 228.824 423.183 228.968C423.43 229.113 423.626 229.31 423.771 229.56C423.915 229.807 423.988 230.086 423.988 230.396ZM423.491 230.396C423.491 230.189 423.441 230 423.34 229.829C423.238 229.659 423.101 229.524 422.931 229.423C422.76 229.323 422.573 229.273 422.367 229.273L420.358 229.273C420.151 229.273 419.962 229.323 419.791 229.423C419.621 229.524 419.486 229.659 419.385 229.829C419.283 230 419.231 230.189 419.231 230.396C419.231 230.604 419.283 230.793 419.385 230.963C419.486 231.134 419.621 231.269 419.791 231.369C419.962 231.47 420.151 231.52 420.358 231.52L422.367 231.52C422.573 231.52 422.76 231.47 422.931 231.369C423.101 231.269 423.238 231.134 423.34 230.963C423.441 230.793 423.491 230.604 423.491 230.396ZM423.988 226.124C423.988 226.434 423.915 226.714 423.771 226.964C423.626 227.211 423.43 227.407 423.183 227.552C422.933 227.696 422.653 227.769 422.343 227.769L420.383 227.769C420.072 227.769 419.794 227.696 419.546 227.552C419.297 227.407 419.099 227.211 418.955 226.964C418.81 226.714 418.738 226.434 418.738 226.124C418.738 225.813 418.81 225.535 418.955 225.287C419.099 225.038 419.297 224.84 419.546 224.696C419.794 224.551 420.072 224.479 420.383 224.479L422.343 224.479C422.653 224.479 422.933 224.551 423.183 224.696C423.43 224.84 423.626 225.038 423.771 225.287C423.915 225.535 423.988 225.813 423.988 226.124ZM423.491 226.124C423.491 225.916 423.441 225.727 423.34 225.557C423.238 225.386 423.101 225.251 422.931 225.151C422.76 225.05 422.573 225 422.367 225L420.358 225C420.151 225 419.962 225.05 419.791 225.151C419.621 225.251 419.486 225.386 419.385 225.557C419.283 225.727 419.231 225.916 419.231 226.124C419.231 226.331 419.283 226.52 419.385 226.691C419.486 226.861 419.621 226.996 419.791 227.097C419.962 227.197 420.151 227.247 420.358 227.247L422.367 227.247C422.573 227.247 422.76 227.197 422.931 227.097C423.101 226.996 423.238 226.861 423.34 226.691C423.441 226.52 423.491 226.331 423.491 226.124Z" fill="black"/>
<path d="M195.856 8V3.534L194.908 4.1045V3.527L195.856 2.96H196.378V8H195.856ZM199.924 8V7.0235H197.565V6.5335L199.252 2.96H199.83L198.143 6.5335H199.924V5.0635H200.442V6.5335H200.992V7.0235H200.442V8H199.924ZM201.628 8.7315L201.659 8.476C201.752 8.483 201.82 8.46433 201.862 8.42C201.904 8.37567 201.93 8.31617 201.939 8.2415C201.948 8.16683 201.951 8.08633 201.946 8H201.628V7.2615H202.226V8.14C202.226 8.35467 202.171 8.51567 202.062 8.623C201.954 8.73033 201.81 8.7665 201.628 8.7315ZM205.776 8V7.0235H203.417V6.5335L205.104 2.96H205.681L203.994 6.5335H205.776V5.0635H206.294V6.5335H206.843V7.0235H206.294V8H205.776ZM209.331 8.105C209.02 8.105 208.74 8.03267 208.491 7.888C208.243 7.74333 208.047 7.54733 207.903 7.3C207.758 7.05033 207.686 6.77033 207.686 6.46V4.5C207.686 4.18967 207.758 3.91083 207.903 3.6635C208.047 3.41383 208.243 3.21667 208.491 3.072C208.74 2.92733 209.02 2.855 209.331 2.855C209.641 2.855 209.92 2.92733 210.167 3.072C210.417 3.21667 210.614 3.41383 210.759 3.6635C210.903 3.91083 210.976 4.18967 210.976 4.5V6.46C210.976 6.77033 210.903 7.05033 210.759 7.3C210.614 7.54733 210.417 7.74333 210.167 7.888C209.92 8.03267 209.641 8.105 209.331 8.105ZM209.331 7.608C209.538 7.608 209.727 7.55783 209.898 7.4575C210.068 7.35483 210.203 7.21833 210.304 7.048C210.404 6.87767 210.454 6.68983 210.454 6.4845V4.4755C210.454 4.26783 210.404 4.07883 210.304 3.9085C210.203 3.73817 210.068 3.60283 209.898 3.5025C209.727 3.39983 209.538 3.3485 209.331 3.3485C209.123 3.3485 208.934 3.39983 208.764 3.5025C208.593 3.60283 208.458 3.73817 208.358 3.9085C208.257 4.07883 208.207 4.26783 208.207 4.4755V6.4845C208.207 6.68983 208.257 6.87767 208.358 7.048C208.458 7.21833 208.593 7.35483 208.764 7.4575C208.934 7.55783 209.123 7.608 209.331 7.608ZM213.603 8.105C213.293 8.105 213.013 8.03267 212.763 7.888C212.516 7.74333 212.32 7.54733 212.175 7.3C212.031 7.05033 211.958 6.77033 211.958 6.46V4.5C211.958 4.18967 212.031 3.91083 212.175 3.6635C212.32 3.41383 212.516 3.21667 212.763 3.072C213.013 2.92733 213.293 2.855 213.603 2.855C213.914 2.855 214.192 2.92733 214.44 3.072C214.689 3.21667 214.887 3.41383 215.031 3.6635C215.176 3.91083 215.248 4.18967 215.248 4.5V6.46C215.248 6.77033 215.176 7.05033 215.031 7.3C214.887 7.54733 214.689 7.74333 214.44 7.888C214.192 8.03267 213.914 8.105 213.603 8.105ZM213.603 7.608C213.811 7.608 214 7.55783 214.17 7.4575C214.341 7.35483 214.476 7.21833 214.576 7.048C214.677 6.87767 214.727 6.68983 214.727 6.4845V4.4755C214.727 4.26783 214.677 4.07883 214.576 3.9085C214.476 3.73817 214.341 3.60283 214.17 3.5025C214 3.39983 213.811 3.3485 213.603 3.3485C213.396 3.3485 213.207 3.39983 213.036 3.5025C212.866 3.60283 212.731 3.73817 212.63 3.9085C212.53 4.07883 212.48 4.26783 212.48 4.4755V6.4845C212.48 6.68983 212.53 6.87767 212.63 7.048C212.731 7.21833 212.866 7.35483 213.036 7.4575C213.207 7.55783 213.396 7.608 213.603 7.608Z" fill="black"/>
<path d="M279.9 202.704L271.41 211.924C271.05 212.324 270.43 212.344 270.04 211.984L267.57 209.714C267.17 209.354 267.15 208.734 267.51 208.344L276 199.124C276.36 198.724 276.98 198.704 277.37 199.064L279.84 201.334C280.24 201.694 280.27 202.304 279.9 202.704Z" fill="#B2B2B2" stroke="#575756" stroke-width="0.5" stroke-miterlimit="10"/>
<path d="M61.7798 289.455C61.7798 289.455 62.0998 269.535 83.1198 268.125" stroke="#575756" stroke-width="0.5" stroke-miterlimit="10" stroke-linecap="square"/>
<path d="M18.2201 155.755H3.89014V192.565H18.2201V155.755Z" stroke="#575756" stroke-width="0.5" stroke-miterlimit="10"/>
<path d="M95.58 238.645H49.3C48.29 238.645 47.48 237.825 47.48 236.825V185.455C47.48 184.445 48.3 183.635 49.3 183.635H95.58C96.59 183.635 97.4 184.455 97.4 185.455V236.825C97.41 237.825 96.59 238.645 95.58 238.645Z" stroke="#575756" stroke-width="0.5" stroke-miterlimit="10" stroke-linecap="square"/>
<path d="M108.15 227.535V238.975" stroke="#575756" stroke-width="0.5" stroke-miterlimit="10" stroke-linecap="square"/>
<path d="M97.4102 227.535H108.15" stroke="#575756" stroke-width="0.5" stroke-miterlimit="10" stroke-linecap="square"/>
<path d="M307.7 294.205V347.205" stroke="#575756" stroke-width="0.5" stroke-miterlimit="10"/>
<path d="M306.78 294.205V347.205" stroke="#575756" stroke-width="0.5" stroke-miterlimit="10"/>
<path d="M156.85 180.165V347.235" stroke="#575756" stroke-width="0.5" stroke-miterlimit="10"/>
<path d="M108.15 242.495V259.235" stroke="#575756" stroke-width="0.5" stroke-miterlimit="10"/>
<path d="M36.7402 242.495V259.235" stroke="#575756" stroke-width="0.5" stroke-miterlimit="10" stroke-linecap="square"/>
<path d="M36.7402 227.535V238.975" stroke="#575756" stroke-width="0.5" stroke-miterlimit="10" stroke-linecap="square"/>
<path d="M47.4802 227.535H36.7402" stroke="#575756" stroke-width="0.5" stroke-miterlimit="10" stroke-linecap="square"/>
<path d="M72.4399 242.495V259.235" stroke="#575756" stroke-width="0.5" stroke-miterlimit="10"/>
<path d="M108.15 259.234H36.7402" stroke="#575756" stroke-width="0.5" stroke-miterlimit="10" stroke-linecap="square"/>
<path d="M80.6602 319.645V347.235" stroke="#575756" stroke-width="0.5" stroke-miterlimit="10" stroke-linecap="square"/>
<path d="M77.2598 335.165V347.235" stroke="#575756" stroke-width="0.5" stroke-miterlimit="10" stroke-linecap="square"/>
<path d="M90.1602 330.864V332.944" stroke="#575756" stroke-width="0.5" stroke-miterlimit="10" stroke-linecap="square"/>
<path d="M90.1899 330.864H92.2699" stroke="#575756" stroke-width="0.5" stroke-miterlimit="10" stroke-linecap="square"/>
<path d="M98.37 330.854H96.29" stroke="#575756" stroke-width="0.5" stroke-miterlimit="10" stroke-linecap="square"/>
<path d="M98.3701 330.885V332.955" stroke="#575756" stroke-width="0.5" stroke-miterlimit="10" stroke-linecap="square"/>
<path d="M98.3701 339.075V337.005" stroke="#575756" stroke-width="0.5" stroke-miterlimit="10" stroke-linecap="square"/>
<path d="M98.3398 339.074H96.2598" stroke="#575756" stroke-width="0.5" stroke-miterlimit="10" stroke-linecap="square"/>
<path d="M90.1602 339.085H92.2401" stroke="#575756" stroke-width="0.5" stroke-miterlimit="10" stroke-linecap="square"/>
<path d="M90.1602 339.054V336.984" stroke="#575756" stroke-width="0.5" stroke-miterlimit="10" stroke-linecap="square"/>
<path d="M35.9102 335.165V347.235" stroke="#575756" stroke-width="0.5" stroke-miterlimit="10" stroke-linecap="square"/>
<path d="M107.81 319.645H80.6602" stroke="#575756" stroke-width="0.5" stroke-miterlimit="10" stroke-linecap="square"/>
<path d="M77.2602 335.165H35.9102" stroke="#575756" stroke-width="0.5" stroke-miterlimit="10" stroke-linecap="square"/>
<path d="M306.78 335.165H243.15" stroke="#575756" stroke-width="0.5" stroke-miterlimit="10" stroke-linecap="square"/>
<path d="M268.44 335.165V347.205" stroke="#575756" stroke-width="0.5" stroke-miterlimit="10" stroke-linecap="square"/>
<path d="M259.33 335.165V347.205" stroke="#575756" stroke-width="0.5" stroke-miterlimit="10" stroke-linecap="square"/>
<path d="M259.33 335.165L268.44 347.205" stroke="#575756" stroke-width="0.5" stroke-miterlimit="10"/>
<path d="M268.44 335.165L259.33 347.205" stroke="#575756" stroke-width="0.5" stroke-miterlimit="10"/>
<path d="M24.6598 310.085H18.7798" stroke="#575756" stroke-width="0.5" stroke-miterlimit="10" stroke-linecap="square"/>
<path d="M25.0501 342.125H18.2701C14.9901 342.125 12.3301 339.465 12.3301 336.185V308.145C12.3301 304.865 14.9901 302.205 18.2701 302.205H25.0501C28.3301 302.205 30.9901 304.865 30.9901 308.145V336.185C31.0001 339.465 28.3401 342.125 25.0501 342.125Z" stroke="#575756" stroke-width="0.5" stroke-miterlimit="10"/>
<path d="M24.1799 344.575H19.1499C14.7499 344.575 11.1899 341.015 11.1899 336.615V307.715C11.1899 303.315 14.7499 299.755 19.1499 299.755H24.1799C28.5799 299.755 32.1399 303.315 32.1399 307.715V336.605C32.1399 341.005 28.5799 344.575 24.1799 344.575Z" stroke="#575756" stroke-width="0.5" stroke-miterlimit="10"/>
<path d="M21.7202 307.145V313.035" stroke="#575756" stroke-width="0.5" stroke-miterlimit="10" stroke-linecap="square"/>
<path d="M155.44 277.535H141.33" stroke="#575756" stroke-width="0.5" stroke-miterlimit="10" stroke-linecap="square"/>
<path d="M139.92 265.314H156.85" stroke="#575756" stroke-width="0.5" stroke-miterlimit="10" stroke-linecap="square"/>
<path d="M139.92 246.205H156.85" stroke="#575756" stroke-width="0.5" stroke-miterlimit="10" stroke-linecap="square"/>
<path d="M139.92 180.165H156.85" stroke="#575756" stroke-width="0.5" stroke-miterlimit="10" stroke-linecap="square"/>
<path d="M148.39 270.475V284.585" stroke="#575756" stroke-width="0.5" stroke-miterlimit="10" stroke-linecap="square"/>
<path d="M153.38 272.545L143.4 282.525" stroke="#575756" stroke-width="0.5" stroke-miterlimit="10" stroke-linecap="square"/>
<path d="M143.4 272.545L153.38 282.525" stroke="#575756" stroke-width="0.5" stroke-miterlimit="10" stroke-linecap="square"/>
<path d="M47.48 224.795H97.41" stroke="#575756" stroke-width="0.5" stroke-miterlimit="10"/>
<path d="M85.0502 156.975H59.7202V159.915H85.0502V156.975Z" stroke="#575756" stroke-width="0.5" stroke-miterlimit="10"/>
<path d="M97.4001 218.864H91.3301V224.794H97.4001V218.864Z" stroke="#575756" stroke-width="0.5" stroke-miterlimit="10"/>
<path d="M91.3301 224.794L97.4101 218.864" stroke="#575756" stroke-width="0.5" stroke-miterlimit="10"/>
<path d="M90.54 235.864H76.76C76.05 235.864 75.48 235.294 75.48 234.584V228.804C75.48 228.094 76.05 227.524 76.76 227.524H90.54C91.25 227.524 91.82 228.094 91.82 228.804V234.584C91.81 235.294 91.24 235.864 90.54 235.864Z" stroke="#575756" stroke-width="0.5" stroke-miterlimit="10"/>
<path d="M68.1298 235.864H54.3498C53.6398 235.864 53.0698 235.294 53.0698 234.584V228.804C53.0698 228.094 53.6398 227.524 54.3498 227.524H68.1298C68.8398 227.524 69.4098 228.094 69.4098 228.804V234.584C69.4098 235.294 68.8298 235.864 68.1298 235.864Z" stroke="#575756" stroke-width="0.5" stroke-miterlimit="10"/>
<path d="M36.7402 259.235L72.4402 242.495" stroke="#575756" stroke-width="0.5" stroke-miterlimit="10" stroke-linecap="square"/>
<path d="M72.4399 259.235L108.15 242.495" stroke="#575756" stroke-width="0.5" stroke-miterlimit="10" stroke-linecap="square"/>
<path d="M36.7402 242.495L72.4402 259.235" stroke="#575756" stroke-width="0.5" stroke-miterlimit="10" stroke-linecap="square"/>
<path d="M72.4399 242.495L108.15 259.235" stroke="#575756" stroke-width="0.5" stroke-miterlimit="10" stroke-linecap="square"/>
<path d="M93.2598 342.715V347.205" stroke="#575756" stroke-width="0.5" stroke-miterlimit="10" stroke-linecap="square"/>
<path d="M95.1802 342.715V347.205" stroke="#575756" stroke-width="0.5" stroke-miterlimit="10" stroke-linecap="square"/>
<path d="M95.1898 340.274H93.2598V342.204H95.1898V340.274Z" stroke="#575756" stroke-width="0.5" stroke-miterlimit="10" stroke-linecap="square"/>
<path d="M135.33 341.976H112.66" stroke="#575756" stroke-width="0.5" stroke-miterlimit="10" stroke-linecap="square"/>
<path d="M135.33 342.715H112.66" stroke="#575756" stroke-width="0.5" stroke-miterlimit="10" stroke-linecap="square"/>
<path d="M116.59 342.715V347.205" stroke="#575756" stroke-width="0.5" stroke-miterlimit="10" stroke-linecap="square"/>
<path d="M131.48 342.715V347.205" stroke="#575756" stroke-width="0.5" stroke-miterlimit="10" stroke-linecap="square"/>
<path d="M116.59 342.715L131.48 347.205" stroke="#575756" stroke-width="0.5" stroke-miterlimit="10" stroke-linecap="square"/>
<path d="M116.59 347.205L131.48 342.715" stroke="#575756" stroke-width="0.5" stroke-miterlimit="10" stroke-linecap="square"/>
<path d="M124.15 341.245C126.889 341.245 129.11 338.093 129.11 334.205C129.11 330.317 126.889 327.165 124.15 327.165C121.411 327.165 119.19 330.317 119.19 334.205C119.19 338.093 121.411 341.245 124.15 341.245Z" stroke="#575756" stroke-width="0.5" stroke-miterlimit="10" stroke-linecap="square"/>
<path d="M128.47 341.975C129.47 340.285 130.08 338.005 130.08 335.495C130.08 330.265 127.43 326.035 124.15 326.035C120.88 326.035 118.22 330.275 118.22 335.495C118.22 338.005 118.83 340.285 119.83 341.975" stroke="#575756" stroke-width="0.5" stroke-miterlimit="10"/>
<path d="M211.99 341.975H231.7" stroke="#575756" stroke-width="0.5" stroke-miterlimit="10" stroke-linecap="square"/>
<path d="M211.99 342.715H221.04" stroke="#575756" stroke-width="0.5" stroke-miterlimit="10" stroke-linecap="square"/>
<path d="M222.67 342.715H231.71" stroke="#575756" stroke-width="0.5" stroke-miterlimit="10" stroke-linecap="square"/>
<path d="M234.44 342.715H238.3" stroke="#575756" stroke-width="0.5" stroke-miterlimit="10" stroke-linecap="square"/>
<path d="M234.44 341.975H238.3" stroke="#575756" stroke-width="0.5" stroke-miterlimit="10" stroke-linecap="square"/>
<path d="M206.15 342.715H210.01" stroke="#575756" stroke-width="0.5" stroke-miterlimit="10" stroke-linecap="square"/>
<path d="M206.15 341.975H210.01" stroke="#575756" stroke-width="0.5" stroke-miterlimit="10" stroke-linecap="square"/>
<path d="M214.44 342.715V347.205" stroke="#575756" stroke-width="0.5" stroke-miterlimit="10" stroke-linecap="square"/>
<path d="M229.33 342.715V347.205" stroke="#575756" stroke-width="0.5" stroke-miterlimit="10" stroke-linecap="square"/>
<path d="M214.44 342.715L229.33 347.205" stroke="#575756" stroke-width="0.5" stroke-miterlimit="10"/>
<path d="M214.44 347.205L229.33 342.715" stroke="#575756" stroke-width="0.5" stroke-miterlimit="10"/>
<path d="M222 341.245C224.739 341.245 226.96 338.093 226.96 334.205C226.96 330.317 224.739 327.165 222 327.165C219.261 327.165 217.04 330.317 217.04 334.205C217.04 338.093 219.261 341.245 222 341.245Z" stroke="#575756" stroke-width="0.5" stroke-miterlimit="10" stroke-linecap="square"/>
<path d="M226.32 341.975C227.32 340.285 227.93 338.005 227.93 335.495C227.93 330.265 225.28 326.035 222 326.035C218.72 326.035 216.07 330.275 216.07 335.495C216.07 338.005 216.68 340.285 217.68 341.975" stroke="#575756" stroke-width="0.5" stroke-miterlimit="10"/>
<path d="M56.8902 345.904C59.4694 345.904 61.5602 343.814 61.5602 341.234C61.5602 338.655 59.4694 336.564 56.8902 336.564C54.311 336.564 52.2202 338.655 52.2202 341.234C52.2202 343.814 54.311 345.904 56.8902 345.904Z" stroke="#575756" stroke-width="0.5" stroke-miterlimit="10"/>
<path d="M56.89 346.644C59.8778 346.644 62.3 344.222 62.3 341.234C62.3 338.246 59.8778 335.824 56.89 335.824C53.9021 335.824 51.48 338.246 51.48 341.234C51.48 344.222 53.9021 346.644 56.89 346.644Z" stroke="#575756" stroke-width="0.5" stroke-miterlimit="10"/>
<path d="M62.29 340.645H65" stroke="#575756" stroke-width="0.5" stroke-miterlimit="10"/>
<path d="M62.29 341.975H65" stroke="#575756" stroke-width="0.5" stroke-miterlimit="10"/>
<path d="M65.3301 340.645V341.975" stroke="#575756" stroke-width="0.5" stroke-miterlimit="10"/>
<path d="M60.48 340.645V341.975" stroke="#575756" stroke-width="0.5" stroke-miterlimit="10"/>
<path d="M61.9702 339.395H63.8102" stroke="#575756" stroke-width="0.5" stroke-miterlimit="10"/>
<path d="M61.9702 343.314H63.8102" stroke="#575756" stroke-width="0.5" stroke-miterlimit="10"/>
<path d="M139.89 294.205L156.85 347.235" stroke="#575756" stroke-width="0.5" stroke-miterlimit="10"/>
<path d="M156.78 294.205L139.89 347.205" stroke="#575756" stroke-width="0.5" stroke-miterlimit="10"/>
<path d="M323.11 199.205H297.33V226.425H323.11V199.205Z" stroke="#575756" stroke-width="0.5" stroke-miterlimit="10" stroke-linecap="square"/>
<path d="M348.22 212.814H323.11V226.424H348.22V212.814Z" stroke="#575756" stroke-width="0.5" stroke-miterlimit="10" stroke-linecap="square"/>
<path d="M376.5 242.974H359.94C358.56 242.974 357.44 241.854 357.44 240.474V201.694C357.44 200.314 358.56 199.194 359.94 199.194H376.5C377.88 199.194 379 200.314 379 201.694V240.474C379 241.854 377.88 242.974 376.5 242.974Z" stroke="#575756" stroke-width="0.5" stroke-miterlimit="10" stroke-linecap="square"/>
<path d="M229.33 182.975H201.89V259.755H229.33V182.975Z" stroke="#575756" stroke-width="0.5" stroke-miterlimit="10" stroke-linecap="square"/>
<path d="M201.89 224.314H229.33" stroke="#575756" stroke-width="0.5" stroke-miterlimit="10" stroke-linecap="square"/>
<path d="M213.75 247.425H205.19C204.16 247.425 203.33 246.595 203.33 245.565V238.285C203.33 237.255 204.16 236.425 205.19 236.425H213.75C214.78 236.425 215.61 237.255 215.61 238.285V245.565C215.61 246.585 214.78 247.425 213.75 247.425Z" stroke="#575756" stroke-width="0.5" stroke-miterlimit="10" stroke-linecap="square"/>
<path d="M132.51 339.215H133.73" stroke="#575756" stroke-width="0.5" stroke-miterlimit="10" stroke-linecap="square"/>
<path d="M132.51 340.114H133.73" stroke="#575756" stroke-width="0.5" stroke-miterlimit="10" stroke-linecap="square"/>
<path d="M132.44 340.795H135.33" stroke="#575756" stroke-width="0.5" stroke-miterlimit="10" stroke-linecap="square"/>
<path d="M134.54 340.465H133.89V341.115H134.54V340.465Z" fill="#B2B2B2" stroke="#575756" stroke-width="0.5" stroke-miterlimit="10"/>
<path d="M214.36 339.175H212.92" stroke="#575756" stroke-width="0.5" stroke-miterlimit="10" stroke-linecap="square"/>
<path d="M214.36 340.074H212.92" stroke="#575756" stroke-width="0.5" stroke-miterlimit="10" stroke-linecap="square"/>
<path d="M214.39 340.665H211.5" stroke="#575756" stroke-width="0.5" stroke-miterlimit="10" stroke-linecap="square"/>
<path d="M211.969 341.519L212.619 341.519L212.619 340.339L211.969 340.339L211.969 341.519Z" fill="#B2B2B2" stroke="#575756" stroke-width="0.5" stroke-miterlimit="10"/>
<path d="M243.15 335.165L259.33 347.205" stroke="#575756" stroke-width="0.5" stroke-miterlimit="10"/>
<path d="M259.33 335.165L242.96 347.205" stroke="#575756" stroke-width="0.5" stroke-miterlimit="10"/>
<path d="M222.52 305.485C225.099 305.485 227.19 303.394 227.19 300.815C227.19 298.235 225.099 296.145 222.52 296.145C219.941 296.145 217.85 298.235 217.85 300.815C217.85 303.394 219.941 305.485 222.52 305.485Z" stroke="#575756" stroke-width="0.5" stroke-miterlimit="10"/>
<path d="M222.52 306.224C225.508 306.224 227.93 303.802 227.93 300.814C227.93 297.826 225.508 295.404 222.52 295.404C219.532 295.404 217.11 297.826 217.11 300.814C217.11 303.802 219.532 306.224 222.52 306.224Z" stroke="#575756" stroke-width="0.5" stroke-miterlimit="10"/>
<path d="M217.12 301.404H214.41" stroke="#575756" stroke-width="0.5" stroke-miterlimit="10"/>
<path d="M217.12 300.074H214.41" stroke="#575756" stroke-width="0.5" stroke-miterlimit="10"/>
<path d="M214.08 301.404V300.074" stroke="#575756" stroke-width="0.5" stroke-miterlimit="10"/>
<path d="M218.93 301.404V300.074" stroke="#575756" stroke-width="0.5" stroke-miterlimit="10"/>
<path d="M217.44 302.654H215.6" stroke="#575756" stroke-width="0.5" stroke-miterlimit="10"/>
<path d="M217.44 298.745H215.6" stroke="#575756" stroke-width="0.5" stroke-miterlimit="10"/>
<path d="M287.25 345.855C289.829 345.855 291.92 343.764 291.92 341.185C291.92 338.605 289.829 336.515 287.25 336.515C284.671 336.515 282.58 338.605 282.58 341.185C282.58 343.764 284.671 345.855 287.25 345.855Z" stroke="#575756" stroke-width="0.5" stroke-miterlimit="10"/>
<path d="M287.25 346.594C290.238 346.594 292.66 344.172 292.66 341.184C292.66 338.197 290.238 335.774 287.25 335.774C284.262 335.774 281.84 338.197 281.84 341.184C281.84 344.172 284.262 346.594 287.25 346.594Z" stroke="#575756" stroke-width="0.5" stroke-miterlimit="10"/>
<path d="M292.66 340.585H295.36" stroke="#575756" stroke-width="0.5" stroke-miterlimit="10"/>
<path d="M292.66 341.925H295.36" stroke="#575756" stroke-width="0.5" stroke-miterlimit="10"/>
<path d="M295.7 340.585V341.925" stroke="#575756" stroke-width="0.5" stroke-miterlimit="10"/>
<path d="M290.84 340.585V341.925" stroke="#575756" stroke-width="0.5" stroke-miterlimit="10"/>
<path d="M292.33 339.345H294.18" stroke="#575756" stroke-width="0.5" stroke-miterlimit="10"/>
<path d="M292.33 343.255H294.18" stroke="#575756" stroke-width="0.5" stroke-miterlimit="10"/>
<path d="M139.92 265.315L156.85 246.205" stroke="#575756" stroke-width="0.5" stroke-miterlimit="10"/>
<path d="M139.92 246.205L156.85 265.315" stroke="#575756" stroke-width="0.5" stroke-miterlimit="10"/>
<path d="M139.92 246.205L156.85 180.165" stroke="#575756" stroke-width="0.5" stroke-miterlimit="10"/>
<path d="M156.85 246.205L139.92 180.165C139.92 180.165 164.72 180.255 164.99 155.755" stroke="#575756" stroke-width="0.5" stroke-miterlimit="10"/>
<path d="M284.92 314.325C287.659 314.325 289.88 311.173 289.88 307.285C289.88 303.397 287.659 300.245 284.92 300.245C282.181 300.245 279.96 303.397 279.96 307.285C279.96 311.173 282.181 314.325 284.92 314.325Z" stroke="#575756" stroke-width="0.5" stroke-miterlimit="10" stroke-linecap="square"/>
<path d="M280.6 299.505C279.6 301.195 278.99 303.475 278.99 305.985C278.99 311.215 281.64 315.445 284.92 315.445C288.2 315.445 290.85 311.205 290.85 305.985C290.85 303.475 290.24 301.195 289.24 299.505" stroke="#575756" stroke-width="0.5" stroke-miterlimit="10"/>
<path d="M299.83 294.205H270.44V298.815H299.83V294.205Z" stroke="#575756" stroke-width="0.5" stroke-miterlimit="10" stroke-linecap="square"/>
<path d="M277.63 298.944H270.44V299.754H277.63V298.944Z" stroke="#575756" stroke-width="0.5" stroke-miterlimit="10" stroke-linecap="square"/>
<path d="M289.29 298.944H280.6V299.754H289.29V298.944Z" stroke="#575756" stroke-width="0.5" stroke-miterlimit="10" stroke-linecap="square"/>
<path d="M299.84 298.944H292.65V299.754H299.84V298.944Z" stroke="#575756" stroke-width="0.5" stroke-miterlimit="10" stroke-linecap="square"/>
<path d="M277.63 298.945V294.205" stroke="#575756" stroke-width="0.5" stroke-miterlimit="10" stroke-linecap="square"/>
<path d="M292.65 298.945V294.205" stroke="#575756" stroke-width="0.5" stroke-miterlimit="10" stroke-linecap="square"/>
<path d="M277.63 294.205L292.65 298.645" stroke="#575756" stroke-width="0.5" stroke-miterlimit="10"/>
<path d="M277.63 298.605L292.65 294.205" stroke="#575756" stroke-width="0.5" stroke-miterlimit="10"/>
<path d="M212.92 339.175V340.075" stroke="#575756" stroke-width="0.5" stroke-miterlimit="10" stroke-linecap="square"/>
<path d="M214.41 339.175V340.075" stroke="#575756" stroke-width="0.5" stroke-miterlimit="10" stroke-linecap="square"/>
<path d="M276.93 302.324H275.48" stroke="#575756" stroke-width="0.5" stroke-miterlimit="10" stroke-linecap="square"/>
<path d="M276.93 301.425H275.48" stroke="#575756" stroke-width="0.5" stroke-miterlimit="10" stroke-linecap="square"/>
<path d="M276.95 300.774H274.06" stroke="#575756" stroke-width="0.5" stroke-miterlimit="10" stroke-linecap="square"/>
<path d="M274.531 301.103L275.181 301.103L275.181 299.923L274.531 299.923L274.531 301.103Z" fill="#B2B2B2" stroke="#575756" stroke-width="0.5" stroke-miterlimit="10"/>
<path d="M275.48 302.325V301.425" stroke="#575756" stroke-width="0.5" stroke-miterlimit="10" stroke-linecap="square"/>
<path d="M276.98 302.325V301.425" stroke="#575756" stroke-width="0.5" stroke-miterlimit="10" stroke-linecap="square"/>
<path d="M132.37 339.215V340.115" stroke="#575756" stroke-width="0.5" stroke-miterlimit="10" stroke-linecap="square"/>
<path d="M133.73 339.215V340.115" stroke="#575756" stroke-width="0.5" stroke-miterlimit="10" stroke-linecap="square"/>
<path d="M283.89 235.055C283.35 234.235 283.03 233.255 283.03 232.205C283.03 229.345 285.35 227.015 288.22 227.015C291.08 227.015 293.41 229.335 293.41 232.205C293.41 235.075 291.09 237.395 288.22 237.395C286.83 237.395 285.57 236.855 284.64 235.965" stroke="#575756" stroke-width="0.5" stroke-miterlimit="10"/>
<path d="M270.73 247.234C271 247.704 271.15 248.254 271.15 248.834C271.15 250.634 269.69 252.094 267.89 252.094C266.09 252.094 264.63 250.634 264.63 248.834C264.63 247.034 266.09 245.574 267.89 245.574C268.65 245.574 269.35 245.834 269.91 246.274" stroke="#575756" stroke-width="0.5" stroke-miterlimit="10" stroke-linecap="square"/>
<path d="M283.26 235.585C282.6 234.625 282.22 233.455 282.22 232.205C282.22 228.895 284.91 226.205 288.22 226.205C291.53 226.205 294.22 228.895 294.22 232.205C294.22 235.515 291.53 238.205 288.22 238.205C286.58 238.205 285.09 237.545 284.01 236.475" stroke="#575756" stroke-width="0.5" stroke-miterlimit="10"/>
<path d="M282.56 236.134C281.78 235.024 281.33 233.664 281.33 232.204C281.33 228.404 284.41 225.314 288.22 225.314C292.03 225.314 295.11 228.394 295.11 232.204C295.11 236.014 292.03 239.094 288.22 239.094C286.3 239.094 284.56 238.304 283.31 237.044" stroke="#575756" stroke-width="0.5" stroke-miterlimit="10"/>
<path d="M271.51 246.604C271.91 247.254 272.14 248.014 272.14 248.834C272.14 251.184 270.23 253.094 267.88 253.094C265.53 253.094 263.62 251.184 263.62 248.834C263.62 246.484 265.53 244.574 267.88 244.574C268.99 244.574 270 244.994 270.76 245.694" stroke="#575756" stroke-width="0.5" stroke-miterlimit="10" stroke-linecap="square"/>
<path d="M267.41 248.424L270.76 245.694L287.78 231.904" stroke="#575756" stroke-width="0.5" stroke-miterlimit="10" stroke-linecap="square"/>
<path d="M268.24 249.254L271.51 246.604L288.61 232.734" stroke="#575756" stroke-width="0.5" stroke-miterlimit="10" stroke-linecap="square"/>
<path d="M63.8301 159.925H63.1602V164.365H63.8301V159.925Z" stroke="#575756" stroke-width="0.5" stroke-miterlimit="10"/>
<path d="M63.8301 152.535H63.1602V156.975H63.8301V152.535Z" stroke="#575756" stroke-width="0.5" stroke-miterlimit="10"/>
<path d="M81.67 159.925H81V164.365H81.67V159.925Z" stroke="#575756" stroke-width="0.5" stroke-miterlimit="10"/>
<path d="M81.67 152.535H81V156.975H81.67V152.535Z" stroke="#575756" stroke-width="0.5" stroke-miterlimit="10"/>
<path d="M62.5498 156.975V152.535" stroke="#575756" stroke-width="0.5" stroke-miterlimit="10" stroke-linecap="square"/>
<path d="M62.5498 164.365V159.925" stroke="#575756" stroke-width="0.5" stroke-miterlimit="10" stroke-linecap="square"/>
<path d="M82.3101 156.975V152.535" stroke="#575756" stroke-width="0.5" stroke-miterlimit="10" stroke-linecap="square"/>
<path d="M82.3101 164.365V159.925" stroke="#575756" stroke-width="0.5" stroke-miterlimit="10" stroke-linecap="square"/>
<path d="M60 167.705L72.11 159.925" stroke="#575756" stroke-width="0.5" stroke-miterlimit="10"/>
<path d="M72 159.925L84.11 167.705" stroke="#575756" stroke-width="0.5" stroke-miterlimit="10"/>
<path d="M347.9 164.785H322.57V167.725H347.9V164.785Z" stroke="#575756" stroke-width="0.5" stroke-miterlimit="10"/>
<path d="M326.69 167.725H326.02V172.165H326.69V167.725Z" stroke="#575756" stroke-width="0.5" stroke-miterlimit="10"/>
<path d="M326.69 160.335H326.02V164.775H326.69V160.335Z" stroke="#575756" stroke-width="0.5" stroke-miterlimit="10"/>
<path d="M344.52 167.725H343.85V172.165H344.52V167.725Z" stroke="#575756" stroke-width="0.5" stroke-miterlimit="10"/>
<path d="M344.52 160.335H343.85V164.775H344.52V160.335Z" stroke="#575756" stroke-width="0.5" stroke-miterlimit="10"/>
<path d="M325.41 164.785V160.335" stroke="#575756" stroke-width="0.5" stroke-miterlimit="10" stroke-linecap="square"/>
<path d="M325.41 172.175V167.725" stroke="#575756" stroke-width="0.5" stroke-miterlimit="10" stroke-linecap="square"/>
<path d="M345.16 164.785V160.335" stroke="#575756" stroke-width="0.5" stroke-miterlimit="10" stroke-linecap="square"/>
<path d="M345.16 172.175V167.725" stroke="#575756" stroke-width="0.5" stroke-miterlimit="10" stroke-linecap="square"/>
<path d="M322.85 175.505L334.96 167.725" stroke="#575756" stroke-width="0.5" stroke-miterlimit="10"/>
<path d="M334.85 167.725L346.96 175.505" stroke="#575756" stroke-width="0.5" stroke-miterlimit="10"/>
<path d="M168.63 384.314C168.63 384.314 196.56 382.314 199.56 356.314" stroke="#575756" stroke-width="0.5" stroke-miterlimit="10"/>
<path d="M180 306.225C180 306.225 180 327.085 201.39 327.865" stroke="#575756" stroke-width="0.5" stroke-miterlimit="10"/>
<path d="M244.29 313.084C244.29 313.084 263.22 313.014 264.49 294.194" stroke="#575756" stroke-width="0.5" stroke-miterlimit="10"/>
<path d="M307.7 292.095C309.26 292.095 309.26 293.795 310.82 293.795C312.38 293.795 312.38 292.095 313.94 292.095C315.5 292.095 315.5 293.795 317.06 293.795C318.62 293.795 318.62 292.095 320.18 292.095C321.74 292.095 321.74 293.795 323.3 293.795C324.86 293.795 324.86 292.095 326.42 292.095C327.98 292.095 327.98 293.795 329.55 293.795C331.11 293.795 331.11 292.095 332.68 292.095" stroke="#575756" stroke-width="0.5" stroke-miterlimit="10"/>
<path d="M261.55 204.495L276.15 219.615L288.22 206.125L271.7 193.465L261.55 204.495Z" stroke="#575756" stroke-width="0.5" stroke-miterlimit="10"/>
<path d="M261.81 205.604L261.14 206.274L269.85 216.074L270.91 215.064" stroke="#575756" stroke-width="0.5" stroke-miterlimit="10"/>
<path d="M272.74 193.615L273.32 192.875L284.1 200.325L283.23 201.495" stroke="#575756" stroke-width="0.5" stroke-miterlimit="10"/>
<path d="M263 204.535L272.05 194.705" stroke="#575756" stroke-width="0.5" stroke-miterlimit="10"/>
<path d="M264.25 205.785L273.31 195.955" stroke="#575756" stroke-width="0.5" stroke-miterlimit="10"/>
<path d="M265.8 207.245L274.86 197.415" stroke="#575756" stroke-width="0.5" stroke-miterlimit="10"/>
<path d="M269.09 210.535L278.15 200.705" stroke="#575756" stroke-width="0.5" stroke-miterlimit="10"/>
<path d="M269.09 210.534L278.61 200.194" stroke="#575756" stroke-width="0.5" stroke-miterlimit="10"/>
<path d="M379.15 222.834L370.66 232.054C370.3 232.454 369.68 232.474 369.29 232.114L366.82 229.844C366.42 229.484 366.4 228.864 366.76 228.474L375.25 219.254C375.61 218.854 376.23 218.834 376.62 219.194L379.09 221.464C379.49 221.824 379.52 222.434 379.15 222.834Z" fill="#B2B2B2" stroke="#575756" stroke-width="0.5" stroke-miterlimit="10"/>
<path d="M368.34 230.665L377.4 220.835" stroke="#575756" stroke-width="0.5" stroke-miterlimit="10"/>
<path d="M368.34 230.664L377.39 220.824" stroke="#575756" stroke-width="0.5" stroke-miterlimit="10"/>
<path d="M378.04 232.164L369.55 241.384C369.19 241.784 368.57 241.804 368.18 241.444L365.71 239.174C365.31 238.814 365.29 238.194 365.65 237.804L374.14 228.584C374.5 228.184 375.12 228.164 375.51 228.524L377.98 230.794C378.38 231.154 378.41 231.764 378.04 232.164Z" fill="#B2B2B2" stroke="#575756" stroke-width="0.5" stroke-miterlimit="10"/>
<path d="M367.23 239.995L376.28 230.165" stroke="#575756" stroke-width="0.5" stroke-miterlimit="10"/>
<path d="M367.23 239.995L376.28 230.165" stroke="#575756" stroke-width="0.5" stroke-miterlimit="10"/>
<path d="M339.55 356.314C339.55 356.314 341.77 382.584 370.61 383.724" stroke="#575756" stroke-width="0.5" stroke-miterlimit="10"/>
<path d="M216.72 236.755V245.815" stroke="#575756" stroke-width="0.5" stroke-miterlimit="10"/>
<path d="M212 236.915L216.53 240.155V241.145L211.63 237.635L212 236.915Z" fill="white" stroke="#575756" stroke-width="0.5" stroke-miterlimit="10"/>
<path d="M211.25 237.364L216.72 241.284" stroke="#575756" stroke-width="0.5" stroke-miterlimit="10"/>
<path d="M211.68 236.685L216.72 240.295" stroke="#575756" stroke-width="0.5" stroke-miterlimit="10"/>
<path d="M156 224.125H141.85V240.715H156V224.125Z" stroke="#575756" stroke-width="0.5" stroke-miterlimit="10"/>
<path d="M156 219.535H141.85V222.385H156V219.535Z" stroke="#575756" stroke-width="0.5" stroke-miterlimit="10"/>
<path d="M146.07 239.865C147.931 239.865 149.44 238.356 149.44 236.495C149.44 234.634 147.931 233.125 146.07 233.125C144.209 233.125 142.7 234.634 142.7 236.495C142.7 238.356 144.209 239.865 146.07 239.865Z" stroke="#575756" stroke-width="0.5" stroke-miterlimit="10"/>
<path d="M145.79 230.495C147.303 230.495 148.53 229.268 148.53 227.755C148.53 226.241 147.303 225.015 145.79 225.015C144.277 225.015 143.05 226.241 143.05 227.755C143.05 229.268 144.277 230.495 145.79 230.495Z" stroke="#575756" stroke-width="0.5" stroke-miterlimit="10"/>
<path d="M152.69 230.495C154.203 230.495 155.43 229.268 155.43 227.755C155.43 226.241 154.203 225.015 152.69 225.015C151.177 225.015 149.95 226.241 149.95 227.755C149.95 229.268 151.177 230.495 152.69 230.495Z" stroke="#575756" stroke-width="0.5" stroke-miterlimit="10"/>
<path d="M153.16 238.464C154.419 238.464 155.44 237.444 155.44 236.184C155.44 234.925 154.419 233.904 153.16 233.904C151.901 233.904 150.88 234.925 150.88 236.184C150.88 237.444 151.901 238.464 153.16 238.464Z" stroke="#575756" stroke-width="0.5" stroke-miterlimit="10"/>
<path d="M145.79 180.165V246.205" stroke="#575756" stroke-width="0.5" stroke-miterlimit="10"/>
<path d="M139.92 180.165L145.79 246.205" stroke="#575756" stroke-width="0.5" stroke-miterlimit="10"/>
<path d="M145.79 180.165L139.92 246.205" stroke="#575756" stroke-width="0.5" stroke-miterlimit="10"/>
<path d="M295.78 262.944H289.3C288.34 262.944 287.56 262.164 287.56 261.204V246.684C287.56 245.724 288.34 244.944 289.3 244.944H296.49C297.45 244.944 298.23 245.724 298.23 246.684V258.644" stroke="#575756" stroke-width="0.5" stroke-miterlimit="10"/>
<path d="M348.66 262.944H355.14C356.1 262.944 356.88 262.164 356.88 261.204V246.684C356.88 245.724 356.1 244.944 355.14 244.944H347.95C346.99 244.944 346.21 245.724 346.21 246.684V258.644" stroke="#575756" stroke-width="0.5" stroke-miterlimit="10"/>
<path d="M290 244.944V244.294C290 243.564 290.59 242.984 291.31 242.984H353.27C354 242.984 354.58 243.574 354.58 244.294V244.944" stroke="#575756" stroke-width="0.5" stroke-miterlimit="10"/>
<path d="M323.11 242.975V268.125" stroke="#575756" stroke-width="0.5" stroke-miterlimit="10"/>
<path d="M290.23 262.944V268.124" stroke="#575756" stroke-width="0.5" stroke-miterlimit="10"/>
<path d="M354.59 262.944V268.124" stroke="#575756" stroke-width="0.5" stroke-miterlimit="10" stroke-linecap="square"/>
<path d="M323.11 268.125H290.23C290.23 268.125 292.98 265.385 295.79 264.935H323.12" stroke="#575756" stroke-width="0.5" stroke-miterlimit="10" stroke-linejoin="round"/>
<path d="M323.11 268.125H354.59C354.59 268.125 351.96 265.385 349.27 264.935H323.11" stroke="#575756" stroke-width="0.5" stroke-miterlimit="10" stroke-linejoin="round"/>
<path d="M323.11 259.425C323.11 259.425 322.89 258.755 322.3 258.645C321.71 258.535 298.97 258.425 298.97 258.425C298.97 258.425 298.19 258.535 297.9 259.125C297.61 259.715 295.64 262.715 295.6 263.125C295.56 263.535 295.6 264.795 295.6 264.795" stroke="#575756" stroke-width="0.5" stroke-miterlimit="10"/>
<path d="M323.11 259.425C323.11 259.425 323.32 258.755 323.87 258.645C324.42 258.535 345.68 258.425 345.68 258.425C345.68 258.425 346.41 258.535 346.68 259.125C346.96 259.715 348.79 262.715 348.83 263.125C348.86 263.535 348.83 264.795 348.83 264.795" stroke="#575756" stroke-width="0.5" stroke-miterlimit="10"/>
<path d="M364.62 262.364C360.46 258.064 359.2 252.534 361.81 250.004C364.42 247.474 369.91 248.904 374.07 253.204C378.23 257.504 379.49 263.034 376.88 265.564C374.27 268.094 368.78 266.664 364.62 262.364Z" stroke="#575756" stroke-width="0.5" stroke-miterlimit="10" stroke-dasharray="0.99 0.99"/>
<path d="M373.93 262.514C369.63 266.674 364.1 267.934 361.57 265.324C359.04 262.714 360.47 257.224 364.77 253.064C369.07 248.904 374.6 247.644 377.13 250.254C379.66 252.864 378.23 258.354 373.93 262.514Z" stroke="#575756" stroke-width="0.5" stroke-miterlimit="10" stroke-dasharray="0.99 0.99"/>
<path d="M375.184 260.813C377.944 255.507 377.568 249.846 374.343 248.169C371.119 246.492 366.268 249.435 363.509 254.741C360.749 260.048 361.125 265.709 364.349 267.386C367.574 269.062 372.424 266.12 375.184 260.813Z" stroke="#575756" stroke-width="0.5" stroke-miterlimit="10" stroke-dasharray="0.99 0.99"/>
<path d="M374.353 267.374C377.572 265.687 377.932 260.025 375.156 254.727C372.381 249.429 367.522 246.501 364.303 248.187C361.084 249.873 360.724 255.535 363.499 260.833C366.275 266.132 371.134 269.06 374.353 267.374Z" stroke="#575756" stroke-width="0.5" stroke-miterlimit="10" stroke-dasharray="0.99 0.99"/>
<path d="M425.18 111.824V357.764" stroke="#575756" stroke-width="0.5" stroke-miterlimit="10"/>
<path d="M411.45 351.545H431.45" stroke="#575756" stroke-width="0.5" stroke-miterlimit="10"/>
<path d="M422.46 348.795L427.91 354.235" stroke="#575756" stroke-width="0.5" stroke-miterlimit="10"/>
<path d="M422.35 112.965L427.79 118.405" stroke="#575756" stroke-width="0.5" stroke-miterlimit="10"/>
<path d="M411.45 115.685H431.45" stroke="#575756" stroke-width="0.5" stroke-miterlimit="10"/>
<path d="M2 9.46484H405.29" stroke="#575756" stroke-width="0.5" stroke-miterlimit="10"/>
<path d="M400.89 5.52441V76.9444" stroke="#575756" stroke-width="0.5" stroke-miterlimit="10"/>
<path d="M335.21 55.835V76.945" stroke="#575756" stroke-width="0.5" stroke-miterlimit="10"/>
<path d="M335.21 37.0146V49.1646" stroke="#575756" stroke-width="0.5" stroke-miterlimit="10"/>
<path d="M6.81006 5.52441V27.1744" stroke="#575756" stroke-width="0.5" stroke-miterlimit="10"/>
<path d="M400.89 83.7949V94.3449" stroke="#575756" stroke-width="0.5" stroke-miterlimit="10"/>
<path d="M335.21 83.7949V94.3449" stroke="#575756" stroke-width="0.5" stroke-miterlimit="10"/>
<path d="M9.53984 6.73438L4.08984 12.1844" stroke="#575756" stroke-width="0.5" stroke-miterlimit="10"/>
<path d="M403.61 6.73438L398.16 12.1844" stroke="#575756" stroke-width="0.5" stroke-miterlimit="10"/>
<path d="M6.81006 388.715V410.645" stroke="#575756" stroke-width="0.5" stroke-miterlimit="10"/>
<path d="M39.5498 356.205V410.645" stroke="#575756" stroke-width="0.5" stroke-miterlimit="10"/>
<path d="M72.4399 356.205V410.645" stroke="#575756" stroke-width="0.5" stroke-miterlimit="10"/>
<path d="M105.04 356.205V410.645" stroke="#575756" stroke-width="0.5" stroke-miterlimit="10"/>
<path d="M138.07 356.205V410.645" stroke="#575756" stroke-width="0.5" stroke-miterlimit="10"/>
<path d="M170.66 356.205V410.645" stroke="#575756" stroke-width="0.5" stroke-miterlimit="10"/>
<path d="M203.65 356.205V410.645" stroke="#575756" stroke-width="0.5" stroke-miterlimit="10"/>
<path d="M236.37 356.205V410.645" stroke="#575756" stroke-width="0.5" stroke-miterlimit="10"/>
<path d="M269.63 356.205V410.645" stroke="#575756" stroke-width="0.5" stroke-miterlimit="10"/>
<path d="M302.42 356.205V410.645" stroke="#575756" stroke-width="0.5" stroke-miterlimit="10"/>
<path d="M335.26 356.205V410.645" stroke="#575756" stroke-width="0.5" stroke-miterlimit="10"/>
<path d="M368.29 356.205V410.645" stroke="#575756" stroke-width="0.5" stroke-miterlimit="10"/>
<path d="M400.74 388.274V410.644" stroke="#575756" stroke-width="0.5" stroke-miterlimit="10"/>
<path d="M39.4399 28.6445V148.945" stroke="#575756" stroke-width="0.5" stroke-miterlimit="10"/>
<path d="M6.81006 28.6445V115.605" stroke="#575756" stroke-width="0.5" stroke-miterlimit="10"/>
<path d="M72.5898 28.6445V148.945" stroke="#575756" stroke-width="0.5" stroke-miterlimit="10"/>
<path d="M105.18 28.6445V148.945" stroke="#575756" stroke-width="0.5" stroke-miterlimit="10"/>
<path d="M137.92 28.6445V148.945" stroke="#575756" stroke-width="0.5" stroke-miterlimit="10"/>
<path d="M171.06 28.6445V148.945" stroke="#575756" stroke-width="0.5" stroke-miterlimit="10"/>
<path d="M203.65 28.6445V148.945" stroke="#575756" stroke-width="0.5" stroke-miterlimit="10"/>
<path d="M236.59 28.6445V148.945" stroke="#575756" stroke-width="0.5" stroke-miterlimit="10"/>
<path d="M269.43 28.6445V148.945" stroke="#575756" stroke-width="0.5" stroke-miterlimit="10"/>
<path d="M302.59 94.3447V148.945" stroke="#575756" stroke-width="0.5" stroke-miterlimit="10"/>
<path d="M335.21 94.3447V148.945" stroke="#575756" stroke-width="0.5" stroke-miterlimit="10"/>
<path d="M368.05 94.3447V148.945" stroke="#575756" stroke-width="0.5" stroke-miterlimit="10"/>
<path d="M137.92 31.0949C139.395 31.0949 140.59 29.8995 140.59 28.4249C140.59 26.9503 139.395 25.7549 137.92 25.7549C136.445 25.7549 135.25 26.9503 135.25 28.4249C135.25 29.8995 136.445 31.0949 137.92 31.0949Z" stroke="#575756" stroke-width="0.5" stroke-miterlimit="10"/>
<path d="M137.92 50.3448L148.74 39.3848" stroke="#575756" stroke-width="0.5" stroke-miterlimit="10"/>
<path d="M137.74 50.3448L126.92 39.3848" stroke="#575756" stroke-width="0.5" stroke-miterlimit="10"/>
<path d="M396.18 356.314H167.11" stroke="#575756" stroke-width="0.5" stroke-miterlimit="10"/>
<path d="M268.28 148.715H205.16" stroke="#575756" stroke-width="0.5" stroke-miterlimit="10"/>
<path d="M269.54 115.685H11.1099" stroke="#575756" stroke-width="0.5" stroke-miterlimit="10"/>
<path d="M290.66 83.0146H2" stroke="#575756" stroke-width="0.5" stroke-miterlimit="10"/>
<path d="M290.66 50.3447H2" stroke="#575756" stroke-width="0.5" stroke-miterlimit="10"/>
<path d="M203.65 413.145C205.031 413.145 206.15 412.025 206.15 410.645C206.15 409.264 205.031 408.145 203.65 408.145C202.269 408.145 201.15 409.264 201.15 410.645C201.15 412.025 202.269 413.145 203.65 413.145Z" stroke="#575756" stroke-width="0.5" stroke-miterlimit="10"/>
<path d="M203.65 388.425L192.89 399.615" stroke="#575756" stroke-width="0.5" stroke-miterlimit="10"/>
<path d="M203.65 388.425L214.41 399.615" stroke="#575756" stroke-width="0.5" stroke-miterlimit="10"/>
<path d="M216.72 239.035C217.018 239.035 217.26 238.793 217.26 238.495C217.26 238.197 217.018 237.955 216.72 237.955C216.422 237.955 216.18 238.197 216.18 238.495C216.18 238.793 216.422 239.035 216.72 239.035Z" stroke="#575756" stroke-width="0.5" stroke-miterlimit="10"/>
<path d="M216.72 244.184C217.018 244.184 217.26 243.943 217.26 243.645C217.26 243.346 217.018 243.104 216.72 243.104C216.422 243.104 216.18 243.346 216.18 243.645C216.18 243.943 216.422 244.184 216.72 244.184Z" stroke="#575756" stroke-width="0.5" stroke-miterlimit="10"/>
<path d="M216.72 239.965C217.26 239.965 217.7 240.405 217.7 240.945C217.7 241.485 217.26 241.925 216.72 241.925" stroke="#575756" stroke-width="0.5" stroke-miterlimit="10"/>
<path d="M229.33 204.555C229.33 204.555 233.26 204.955 234.29 205.925C235.33 206.895 236.59 208.665 236.59 210.755" stroke="#575756" stroke-width="0.5" stroke-miterlimit="10" stroke-linecap="round" stroke-linejoin="round"/>
<path d="M229.33 216.774C229.33 216.774 233.26 216.374 234.29 215.404C235.33 214.434 236.59 212.664 236.59 210.574" stroke="#575756" stroke-width="0.5" stroke-miterlimit="10" stroke-linecap="round" stroke-linejoin="round"/>
<path d="M237.86 216.305L238.69 216.325" stroke="#575756" stroke-width="0.5" stroke-miterlimit="10" stroke-linecap="round" stroke-linejoin="round"/>
<path d="M232.63 216.204L236.27 216.274" stroke="#575756" stroke-width="0.5" stroke-miterlimit="10" stroke-linecap="round" stroke-linejoin="round"/>
<path d="M238.13 215.465H238.89" stroke="#575756" stroke-width="0.5" stroke-miterlimit="10" stroke-linecap="round" stroke-linejoin="round"/>
<path d="M234.29 215.475H236.59" stroke="#575756" stroke-width="0.5" stroke-miterlimit="10" stroke-linecap="round" stroke-linejoin="round"/>
<path d="M238.09 205.065L238.72 205.055" stroke="#575756" stroke-width="0.5" stroke-miterlimit="10" stroke-linecap="round" stroke-linejoin="round"/>
<path d="M232.63 205.194L236.25 205.114" stroke="#575756" stroke-width="0.5" stroke-miterlimit="10" stroke-linecap="round" stroke-linejoin="round"/>
<path d="M238.27 205.914H238.89" stroke="#575756" stroke-width="0.5" stroke-miterlimit="10" stroke-linecap="round" stroke-linejoin="round"/>
<path d="M234.29 205.914H236.71" stroke="#575756" stroke-width="0.5" stroke-miterlimit="10" stroke-linecap="round" stroke-linejoin="round"/>
<path d="M237.24 218.024C237.24 218.024 239.02 213.714 239.09 210.464C239.16 207.214 237.24 203.314 237.24 203.314L235.93 204.294C235.93 204.294 237.86 207.674 237.78 210.494C237.71 213.314 235.93 217.054 235.93 217.054L237.24 218.024Z" stroke="#575756" stroke-width="0.5" stroke-miterlimit="10" stroke-linecap="round" stroke-linejoin="round"/>
<path d="M236.59 210.574H237.78" stroke="#575756" stroke-width="0.5" stroke-miterlimit="10" stroke-linecap="round" stroke-linejoin="round"/>
<path d="M236.59 211.854H237.63" stroke="#575756" stroke-width="0.5" stroke-miterlimit="10" stroke-linecap="round" stroke-linejoin="round"/>
<path d="M236.59 209.364H237.63" stroke="#575756" stroke-width="0.5" stroke-miterlimit="10" stroke-linecap="round" stroke-linejoin="round"/>
<path d="M229.33 187.445C229.33 187.445 233.26 187.845 234.29 188.815C235.33 189.785 236.59 191.555 236.59 193.645" stroke="#575756" stroke-width="0.5" stroke-miterlimit="10" stroke-linecap="round" stroke-linejoin="round"/>
<path d="M229.33 199.665C229.33 199.665 233.26 199.265 234.29 198.295C235.33 197.325 236.59 195.555 236.59 193.465" stroke="#575756" stroke-width="0.5" stroke-miterlimit="10" stroke-linecap="round" stroke-linejoin="round"/>
<path d="M237.86 199.195L238.69 199.215" stroke="#575756" stroke-width="0.5" stroke-miterlimit="10" stroke-linecap="round" stroke-linejoin="round"/>
<path d="M232.63 199.085L236.27 199.165" stroke="#575756" stroke-width="0.5" stroke-miterlimit="10" stroke-linecap="round" stroke-linejoin="round"/>
<path d="M238.13 198.355H238.89" stroke="#575756" stroke-width="0.5" stroke-miterlimit="10" stroke-linecap="round" stroke-linejoin="round"/>
<path d="M234.29 198.365L236.59 198.355" stroke="#575756" stroke-width="0.5" stroke-miterlimit="10" stroke-linecap="round" stroke-linejoin="round"/>
<path d="M238.09 187.955L238.72 187.945" stroke="#575756" stroke-width="0.5" stroke-miterlimit="10" stroke-linecap="round" stroke-linejoin="round"/>
<path d="M232.63 188.075L236.25 187.995" stroke="#575756" stroke-width="0.5" stroke-miterlimit="10" stroke-linecap="round" stroke-linejoin="round"/>
<path d="M238.27 188.805H238.89" stroke="#575756" stroke-width="0.5" stroke-miterlimit="10" stroke-linecap="round" stroke-linejoin="round"/>
<path d="M234.29 188.805H236.71" stroke="#575756" stroke-width="0.5" stroke-miterlimit="10" stroke-linecap="round" stroke-linejoin="round"/>
<path d="M237.24 200.915C237.24 200.915 239.02 196.605 239.09 193.355C239.16 190.105 237.24 186.205 237.24 186.205L235.93 187.185C235.93 187.185 237.86 190.565 237.78 193.385C237.71 196.205 235.93 199.945 235.93 199.945L237.24 200.915Z" stroke="#575756" stroke-width="0.5" stroke-miterlimit="10" stroke-linecap="round" stroke-linejoin="round"/>
<path d="M236.59 193.465H237.78" stroke="#575756" stroke-width="0.5" stroke-miterlimit="10" stroke-linecap="round" stroke-linejoin="round"/>
<path d="M236.59 194.735H237.63" stroke="#575756" stroke-width="0.5" stroke-miterlimit="10" stroke-linecap="round" stroke-linejoin="round"/>
<path d="M236.59 192.255H237.63" stroke="#575756" stroke-width="0.5" stroke-miterlimit="10" stroke-linecap="round" stroke-linejoin="round"/>
<path d="M18.2202 162.735C18.2202 162.735 22.1502 163.135 23.1802 164.105C24.2202 165.075 25.4802 166.845 25.4802 168.935" stroke="#575756" stroke-width="0.5" stroke-miterlimit="10" stroke-linecap="round" stroke-linejoin="round"/>
<path d="M18.2202 174.955C18.2202 174.955 22.1502 174.555 23.1802 173.585C24.2202 172.615 25.4802 170.845 25.4802 168.755" stroke="#575756" stroke-width="0.5" stroke-miterlimit="10" stroke-linecap="round" stroke-linejoin="round"/>
<path d="M26.75 174.485L27.58 174.505" stroke="#575756" stroke-width="0.5" stroke-miterlimit="10" stroke-linecap="round" stroke-linejoin="round"/>
<path d="M21.52 174.375L25.16 174.455" stroke="#575756" stroke-width="0.5" stroke-miterlimit="10" stroke-linecap="round" stroke-linejoin="round"/>
<path d="M27.02 173.646H27.78" stroke="#575756" stroke-width="0.5" stroke-miterlimit="10" stroke-linecap="round" stroke-linejoin="round"/>
<path d="M23.1802 173.655L25.4702 173.646" stroke="#575756" stroke-width="0.5" stroke-miterlimit="10" stroke-linecap="round" stroke-linejoin="round"/>
<path d="M26.98 163.245L27.61 163.235" stroke="#575756" stroke-width="0.5" stroke-miterlimit="10" stroke-linecap="round" stroke-linejoin="round"/>
<path d="M21.52 163.375L25.14 163.285" stroke="#575756" stroke-width="0.5" stroke-miterlimit="10" stroke-linecap="round" stroke-linejoin="round"/>
<path d="M27.1602 164.095H27.7802" stroke="#575756" stroke-width="0.5" stroke-miterlimit="10" stroke-linecap="round" stroke-linejoin="round"/>
<path d="M23.1802 164.095H25.6002" stroke="#575756" stroke-width="0.5" stroke-miterlimit="10" stroke-linecap="round" stroke-linejoin="round"/>
<path d="M26.1303 176.205C26.1303 176.205 27.9103 171.895 27.9803 168.645C28.0503 165.395 26.1303 161.495 26.1303 161.495L24.8203 162.475C24.8203 162.475 26.7503 165.855 26.6703 168.675C26.6003 171.495 24.8203 175.235 24.8203 175.235L26.1303 176.205Z" stroke="#575756" stroke-width="0.5" stroke-miterlimit="10" stroke-linecap="round" stroke-linejoin="round"/>
<path d="M25.48 168.755H26.66" stroke="#575756" stroke-width="0.5" stroke-miterlimit="10" stroke-linecap="round" stroke-linejoin="round"/>
<path d="M25.48 170.025H26.52" stroke="#575756" stroke-width="0.5" stroke-miterlimit="10" stroke-linecap="round" stroke-linejoin="round"/>
<path d="M25.48 167.545H26.52" stroke="#575756" stroke-width="0.5" stroke-miterlimit="10" stroke-linecap="round" stroke-linejoin="round"/>
<path d="M201.89 199.974C201.89 199.974 197.96 199.574 196.93 198.604C195.89 197.634 194.63 195.864 194.63 193.774" stroke="#575756" stroke-width="0.5" stroke-miterlimit="10" stroke-linecap="round" stroke-linejoin="round"/>
<path d="M201.89 187.755C201.89 187.755 197.96 188.155 196.93 189.125C195.89 190.095 194.63 191.865 194.63 193.955" stroke="#575756" stroke-width="0.5" stroke-miterlimit="10" stroke-linecap="round" stroke-linejoin="round"/>
<path d="M193.36 188.225L192.53 188.205" stroke="#575756" stroke-width="0.5" stroke-miterlimit="10" stroke-linecap="round" stroke-linejoin="round"/>
<path d="M198.59 188.325L194.95 188.255" stroke="#575756" stroke-width="0.5" stroke-miterlimit="10" stroke-linecap="round" stroke-linejoin="round"/>
<path d="M193.09 189.064H192.33" stroke="#575756" stroke-width="0.5" stroke-miterlimit="10" stroke-linecap="round" stroke-linejoin="round"/>
<path d="M196.92 189.055H194.63" stroke="#575756" stroke-width="0.5" stroke-miterlimit="10" stroke-linecap="round" stroke-linejoin="round"/>
<path d="M193.13 199.465L192.5 199.475" stroke="#575756" stroke-width="0.5" stroke-miterlimit="10" stroke-linecap="round" stroke-linejoin="round"/>
<path d="M198.59 199.335L194.97 199.415" stroke="#575756" stroke-width="0.5" stroke-miterlimit="10" stroke-linecap="round" stroke-linejoin="round"/>
<path d="M192.94 198.615H192.33" stroke="#575756" stroke-width="0.5" stroke-miterlimit="10" stroke-linecap="round" stroke-linejoin="round"/>
<path d="M196.92 198.615H194.51" stroke="#575756" stroke-width="0.5" stroke-miterlimit="10" stroke-linecap="round" stroke-linejoin="round"/>
<path d="M193.98 186.505C193.98 186.505 192.2 190.815 192.13 194.065C192.06 197.315 193.98 201.215 193.98 201.215L195.29 200.235C195.29 200.235 193.36 196.855 193.44 194.035C193.51 191.215 195.29 187.475 195.29 187.475L193.98 186.505Z" stroke="#575756" stroke-width="0.5" stroke-miterlimit="10" stroke-linecap="round" stroke-linejoin="round"/>
<path d="M194.63 193.955H193.44" stroke="#575756" stroke-width="0.5" stroke-miterlimit="10" stroke-linecap="round" stroke-linejoin="round"/>
<path d="M194.63 192.675H193.59" stroke="#575756" stroke-width="0.5" stroke-miterlimit="10" stroke-linecap="round" stroke-linejoin="round"/>
<path d="M194.63 195.165H193.59" stroke="#575756" stroke-width="0.5" stroke-miterlimit="10" stroke-linecap="round" stroke-linejoin="round"/>
<path d="M201.89 217.084C201.89 217.084 197.96 216.684 196.93 215.714C195.89 214.744 194.63 212.974 194.63 210.884" stroke="#575756" stroke-width="0.5" stroke-miterlimit="10" stroke-linecap="round" stroke-linejoin="round"/>
<path d="M201.89 204.864C201.89 204.864 197.96 205.264 196.93 206.234C195.89 207.204 194.63 208.974 194.63 211.064" stroke="#575756" stroke-width="0.5" stroke-miterlimit="10" stroke-linecap="round" stroke-linejoin="round"/>
<path d="M193.36 205.334L192.53 205.314" stroke="#575756" stroke-width="0.5" stroke-miterlimit="10" stroke-linecap="round" stroke-linejoin="round"/>
<path d="M198.59 205.444L194.95 205.364" stroke="#575756" stroke-width="0.5" stroke-miterlimit="10" stroke-linecap="round" stroke-linejoin="round"/>
<path d="M193.09 206.174H192.33" stroke="#575756" stroke-width="0.5" stroke-miterlimit="10" stroke-linecap="round" stroke-linejoin="round"/>
<path d="M196.92 206.164L194.63 206.174" stroke="#575756" stroke-width="0.5" stroke-miterlimit="10" stroke-linecap="round" stroke-linejoin="round"/>
<path d="M193.13 216.574L192.5 216.584" stroke="#575756" stroke-width="0.5" stroke-miterlimit="10" stroke-linecap="round" stroke-linejoin="round"/>
<path d="M198.59 216.454L194.97 216.534" stroke="#575756" stroke-width="0.5" stroke-miterlimit="10" stroke-linecap="round" stroke-linejoin="round"/>
<path d="M192.94 215.725H192.33" stroke="#575756" stroke-width="0.5" stroke-miterlimit="10" stroke-linecap="round" stroke-linejoin="round"/>
<path d="M196.92 215.725H194.51" stroke="#575756" stroke-width="0.5" stroke-miterlimit="10" stroke-linecap="round" stroke-linejoin="round"/>
<path d="M193.98 203.614C193.98 203.614 192.2 207.924 192.13 211.174C192.06 214.424 193.98 218.324 193.98 218.324L195.29 217.344C195.29 217.344 193.36 213.964 193.44 211.144C193.51 208.324 195.29 204.584 195.29 204.584L193.98 203.614Z" stroke="#575756" stroke-width="0.5" stroke-miterlimit="10" stroke-linecap="round" stroke-linejoin="round"/>
<path d="M194.63 211.064H193.44" stroke="#575756" stroke-width="0.5" stroke-miterlimit="10" stroke-linecap="round" stroke-linejoin="round"/>
<path d="M194.63 209.794H193.59" stroke="#575756" stroke-width="0.5" stroke-miterlimit="10" stroke-linecap="round" stroke-linejoin="round"/>
<path d="M194.63 212.274H193.59" stroke="#575756" stroke-width="0.5" stroke-miterlimit="10" stroke-linecap="round" stroke-linejoin="round"/>
<path d="M11.11 115.604H2V155.754H11.11V115.604Z" fill="#737474" stroke="black" stroke-miterlimit="10"/>
<path d="M405.29 215.534H396.18V250.344H405.29V215.534Z" fill="#737474" stroke="black" stroke-miterlimit="10"/>
<path d="M405.29 115.685H396.18V155.835H405.29V115.685Z" fill="#737474" stroke="black" stroke-miterlimit="10"/>
<path d="M167.11 347.204H139.89V294.204H156.78V289.644H139.89V180.274H135.33V289.644H83.16V294.204H135.33V347.204H112.48V319.684H107.92V347.204H11.11H2V356.314V388.424H11.11V356.314H167.11V347.204Z" fill="#737474" stroke="black" stroke-miterlimit="10"/>
<path d="M307.698 294.203V289.643H264.498V294.203H307.698Z" fill="#737474" stroke="black" stroke-miterlimit="10"/>
<path d="M396.18 289.645H337.22H332.66V294.205V347.205H242.96V294.205V289.645H238.41H205.94H201.39V294.205V306.055H205.94V294.205H238.41V347.205H205.94V327.865H201.39V347.205H199.55V356.315H339.55V347.205H337.22V294.205H396.18V347.205H371.85V356.315H396.18V388.275H405.29V356.315V347.205V294.205V289.645H396.18Z" fill="#737474" stroke="black" stroke-miterlimit="10"/>
<path d="M11.11 289.455V215.385H2V289.455V294.205H11.11H61.78V289.455H11.11Z" fill="#737474" stroke="black" stroke-miterlimit="10"/>
<path d="M74.66 150.314H70.29V155.754H74.66V150.314Z" fill="#737474" stroke="black" stroke-miterlimit="10"/>
<path d="M140.35 150.314H135.98V155.754H140.35V150.314Z" fill="#737474" stroke="black" stroke-miterlimit="10"/>
<path d="M205.94 150.314H201.57V155.754H205.94V150.314Z" fill="#737474" stroke="black" stroke-miterlimit="10"/>
<path d="M271.72 150.314H267.35V155.754H271.72V150.314Z" fill="#737474" stroke="black" stroke-miterlimit="10"/>
<path d="M337.42 150.314H333.05V155.754H337.42V150.314Z" fill="#737474" stroke="black" stroke-miterlimit="10"/>
<path d="M2 155.755V215.385" stroke="black" stroke-width="0.75" stroke-miterlimit="10"/>
<path d="M2 294.205V347.205" stroke="black" stroke-width="0.75" stroke-miterlimit="10"/>
<path d="M2 28.4248V115.605" stroke="black" stroke-width="0.75" stroke-miterlimit="10"/>
<path d="M290.66 28.4248H2" stroke="black" stroke-width="0.75" stroke-miterlimit="10" stroke-linecap="square"/>
<path d="M281.04 39.3848H2" stroke="black" stroke-width="0.75" stroke-miterlimit="10"/>
<path d="M269.54 50.3447H2" stroke="black" stroke-width="0.75" stroke-miterlimit="10"/>
<path d="M205.16 148.715H11.1099" stroke="black" stroke-width="0.75" stroke-miterlimit="10"/>
<path d="M205.94 150.314H11.1099" stroke="black" stroke-width="0.75" stroke-miterlimit="10"/>
<path d="M396.18 148.715H236.55" stroke="black" stroke-width="0.75" stroke-miterlimit="10"/>
<path d="M300 147.015H236.55" stroke="black" stroke-width="0.75" stroke-miterlimit="10"/>
<path d="M236.55 147.015V148.715" stroke="black" stroke-width="0.75" stroke-miterlimit="10" stroke-linecap="square"/>
<path d="M205.16 148.715V150.315" stroke="black" stroke-width="0.75" stroke-miterlimit="10" stroke-linecap="square"/>
<path d="M268.28 148.715V150.315" stroke="black" stroke-width="0.75" stroke-miterlimit="10" stroke-linecap="square"/>
<path d="M300 147.015V148.715" stroke="black" stroke-width="0.75" stroke-miterlimit="10" stroke-linecap="square"/>
<path d="M396.18 150.314H268.33" stroke="black" stroke-width="0.75" stroke-miterlimit="10"/>
<path d="M405.29 94.3447H290.66" stroke="black" stroke-width="0.75" stroke-miterlimit="10"/>
<path d="M405.29 104.864H281.04" stroke="black" stroke-width="0.75" stroke-miterlimit="10"/>
<path d="M396.18 115.685H269.54" stroke="black" stroke-width="0.75" stroke-miterlimit="10"/>
<path d="M290.66 28.4248V94.3448" stroke="black" stroke-width="0.75" stroke-miterlimit="10" stroke-linecap="square"/>
<path d="M281.04 39.3848V104.865" stroke="black" stroke-width="0.75" stroke-miterlimit="10" stroke-linecap="square"/>
<path d="M269.54 50.3447V115.685" stroke="black" stroke-width="0.75" stroke-miterlimit="10" stroke-linecap="square"/>
<path d="M405.29 94.3447V115.685" stroke="black" stroke-width="0.75" stroke-miterlimit="10" stroke-linecap="square"/>
<path d="M405.29 155.755V215.535" stroke="black" stroke-width="0.75" stroke-miterlimit="10" stroke-linecap="square"/>
<path d="M405.29 250.345V289.645" stroke="black" stroke-width="0.75" stroke-miterlimit="10" stroke-linecap="square"/>
<path d="M405.29 388.274V410.644" stroke="black" stroke-width="0.75" stroke-miterlimit="10" stroke-linecap="square"/>
<path d="M405.29 410.645H2" stroke="black" stroke-width="0.75" stroke-miterlimit="10"/>
<path d="M396.18 388.274L11.1099 388.424" stroke="black" stroke-width="0.75" stroke-miterlimit="10"/>
<path d="M405.29 399.614H2" stroke="black" stroke-width="0.75" stroke-miterlimit="10"/>
<path d="M3.89014 155.755V215.385" stroke="black" stroke-width="0.75" stroke-miterlimit="10"/>
<path d="M2 388.425V410.645" stroke="black" stroke-width="0.75" stroke-miterlimit="10"/>
<path d="M3.89014 294.205V347.205" stroke="black" stroke-width="0.75" stroke-miterlimit="10"/>
<path d="M403.41 155.835V215.465" stroke="black" stroke-width="0.75" stroke-miterlimit="10"/>
<path d="M403.41 250.345V289.645" stroke="black" stroke-width="0.75" stroke-miterlimit="10"/>
<path d="M332.66 291.535H307.7" stroke="black" stroke-width="0.75" stroke-miterlimit="10" stroke-linecap="square"/>
<path d="M332.66 289.645H307.7" stroke="black" stroke-width="0.75" stroke-miterlimit="10"/>
<path d="M201.39 306.274H180.78" stroke="black" stroke-width="0.75" stroke-miterlimit="10"/>
<path d="M201.39 307.795H180.78" stroke="black" stroke-width="0.75" stroke-miterlimit="10"/>
<path d="M201.39 289.645H179.07" stroke="black" stroke-width="0.75" stroke-miterlimit="10" stroke-linecap="square"/>
<path d="M224.52 288.495H179.07" stroke="black" stroke-width="0.75" stroke-miterlimit="10" stroke-linecap="square"/>
<path d="M201.39 306.465V307.795" stroke="black" stroke-width="0.75" stroke-miterlimit="10" stroke-linecap="square"/>
<path d="M83.3301 289.645H81.6001" stroke="black" stroke-width="0.75" stroke-miterlimit="10" stroke-linecap="square"/>
<path d="M244.29 313.085H243.15" stroke="black" stroke-width="0.75" stroke-miterlimit="10" stroke-linecap="square"/>
<path d="M224.52 288.495V289.645" stroke="black" stroke-width="0.75" stroke-miterlimit="10" stroke-linecap="square"/>
<path d="M244.29 291.154V313.084" stroke="black" stroke-width="0.75" stroke-miterlimit="10"/>
<path d="M165 155.755H140.35" stroke="black" stroke-width="0.75" stroke-miterlimit="10" stroke-linecap="square"/>
<path d="M165 157.274H140.35" stroke="black" stroke-width="0.75" stroke-miterlimit="10" stroke-linecap="square"/>
<path d="M140.35 155.755V157.085" stroke="black" stroke-width="0.75" stroke-miterlimit="10" stroke-linecap="square"/>
<path d="M81.6001 268.125V289.645" stroke="black" stroke-width="0.75" stroke-miterlimit="10"/>
<path d="M83.1201 268.135V289.645" stroke="black" stroke-width="0.75" stroke-miterlimit="10"/>
<path d="M168.63 384.315L167.11 384.305" stroke="black" stroke-width="0.75" stroke-miterlimit="10" stroke-linecap="square"/>
<path d="M168.63 351.315L167.11 351.305" stroke="black" stroke-width="0.75" stroke-miterlimit="10" stroke-linecap="square"/>
<path d="M167.11 356.205V384.305" stroke="black" stroke-width="0.75" stroke-miterlimit="10"/>
<path d="M168.63 351.314V384.314" stroke="black" stroke-width="0.75" stroke-miterlimit="10"/>
<path d="M371.83 383.725H370.61" stroke="black" stroke-width="0.75" stroke-miterlimit="10" stroke-linecap="square"/>
<path d="M371.82 351.315L370.59 351.305" stroke="black" stroke-width="0.75" stroke-miterlimit="10" stroke-linecap="square"/>
<path d="M370.59 351.305L370.61 383.725" stroke="black" stroke-width="0.75" stroke-miterlimit="10"/>
<path d="M371.83 356.545V383.725" stroke="black" stroke-width="0.75" stroke-miterlimit="10"/>
<path d="M108.15 238.645H36.7402V242.495H108.15V238.645Z" fill="#737474" stroke="black" stroke-width="0.75" stroke-miterlimit="10"/>
<path d="M366.737 320V318.884H364.041V318.324L365.969 314.24H366.629L364.701 318.324H366.737V316.644H367.329V318.324H367.957V318.884H367.329V320H366.737Z" fill="#575756"/>
<path d="M366 323.75C362.272 323.75 359.25 320.728 359.25 317H358.75C358.75 321.004 361.996 324.25 366 324.25V323.75ZM372.75 317C372.75 320.728 369.728 323.75 366 323.75V324.25C370.004 324.25 373.25 321.004 373.25 317H372.75ZM366 310.25C369.728 310.25 372.75 313.272 372.75 317H373.25C373.25 312.996 370.004 309.75 366 309.75V310.25ZM366 309.75C361.996 309.75 358.75 312.996 358.75 317H359.25C359.25 313.272 362.272 310.25 366 310.25V309.75Z" fill="#575756"/>
<path d="M268.897 320.116C268.612 320.116 268.349 320.065 268.109 319.964C267.869 319.863 267.662 319.719 267.489 319.532C267.316 319.343 267.189 319.117 267.109 318.856L267.669 318.688C267.765 318.973 267.922 319.189 268.141 319.336C268.362 319.483 268.612 319.553 268.889 319.548C269.145 319.543 269.365 319.485 269.549 319.376C269.736 319.267 269.878 319.115 269.977 318.92C270.076 318.725 270.125 318.5 270.125 318.244C270.125 317.852 270.01 317.537 269.781 317.3C269.554 317.06 269.254 316.94 268.881 316.94C268.777 316.94 268.668 316.955 268.553 316.984C268.438 317.011 268.332 317.049 268.233 317.1L267.937 316.632L270.177 314.564L270.273 314.804H267.337V314.24H270.665V314.812L268.713 316.676L268.705 316.444C269.105 316.393 269.457 316.439 269.761 316.58C270.065 316.721 270.302 316.937 270.473 317.228C270.646 317.516 270.733 317.855 270.733 318.244C270.733 318.612 270.653 318.937 270.493 319.22C270.336 319.5 270.118 319.72 269.841 319.88C269.564 320.037 269.249 320.116 268.897 320.116Z" fill="#575756"/>
<path d="M269 323.75C265.272 323.75 262.25 320.728 262.25 317H261.75C261.75 321.004 264.996 324.25 269 324.25V323.75ZM275.75 317C275.75 320.728 272.728 323.75 269 323.75V324.25C273.004 324.25 276.25 321.004 276.25 317H275.75ZM269 310.25C272.728 310.25 275.75 313.272 275.75 317H276.25C276.25 312.996 273.004 309.75 269 309.75V310.25ZM269 309.75C264.996 309.75 261.75 312.996 261.75 317H262.25C262.25 313.272 265.272 310.25 269 310.25V309.75Z" fill="#575756"/>
<path d="M219.119 319.996L219.123 319.46L221.727 317.108C221.951 316.905 222.099 316.713 222.171 316.532C222.245 316.348 222.283 316.156 222.283 315.956C222.283 315.719 222.227 315.504 222.115 315.312C222.003 315.12 221.852 314.968 221.663 314.856C221.473 314.741 221.261 314.684 221.027 314.684C220.781 314.684 220.563 314.743 220.371 314.86C220.179 314.977 220.027 315.132 219.915 315.324C219.805 315.516 219.752 315.725 219.755 315.952H219.155C219.155 315.603 219.237 315.289 219.403 315.012C219.568 314.735 219.792 314.517 220.075 314.36C220.357 314.2 220.677 314.12 221.035 314.12C221.384 314.12 221.697 314.203 221.975 314.368C222.255 314.531 222.475 314.752 222.635 315.032C222.797 315.309 222.879 315.619 222.879 315.96C222.879 316.2 222.849 316.412 222.791 316.596C222.735 316.777 222.645 316.947 222.523 317.104C222.403 317.259 222.249 317.419 222.063 317.584L219.751 319.672L219.659 319.432H222.879V319.996H219.119Z" fill="#575756"/>
<path d="M221 323.75C217.272 323.75 214.25 320.728 214.25 317H213.75C213.75 321.004 216.996 324.25 221 324.25V323.75ZM227.75 317C227.75 320.728 224.728 323.75 221 323.75V324.25C225.004 324.25 228.25 321.004 228.25 317H227.75ZM221 310.25C224.728 310.25 227.75 313.272 227.75 317H228.25C228.25 312.996 225.004 309.75 221 309.75V310.25ZM221 309.75C216.996 309.75 213.75 312.996 213.75 317H214.25C214.25 313.272 217.272 310.25 221 310.25V309.75Z" fill="#575756"/>
<path d="M65.8602 320L67.9802 314.812H65.3122V314.24H68.6082V314.812L66.4922 320H65.8602Z" fill="#575756"/>
<path d="M67 323.75C63.2721 323.75 60.25 320.728 60.25 317H59.75C59.75 321.004 62.9959 324.25 67 324.25V323.75ZM73.75 317C73.75 320.728 70.7279 323.75 67 323.75V324.25C71.0041 324.25 74.25 321.004 74.25 317H73.75ZM67 310.25C70.7279 310.25 73.75 313.272 73.75 317H74.25C74.25 312.996 71.0041 309.75 67 309.75V310.25ZM67 309.75C62.9959 309.75 59.75 312.996 59.75 317H60.25C60.25 313.272 63.2721 310.25 67 310.25V309.75Z" fill="#575756"/>
<path d="M117.028 211.12C116.668 211.12 116.34 211.033 116.044 210.86C115.75 210.684 115.516 210.447 115.34 210.148C115.166 209.847 115.08 209.508 115.08 209.132V207.136C115.08 206.749 115.166 206.405 115.34 206.104C115.513 205.8 115.749 205.561 116.048 205.388C116.349 205.212 116.69 205.124 117.072 205.124C117.4 205.124 117.704 205.196 117.984 205.34C118.266 205.484 118.497 205.685 118.676 205.944L118.224 206.316C118.101 206.124 117.938 205.971 117.736 205.856C117.533 205.741 117.312 205.684 117.072 205.684C116.802 205.684 116.562 205.749 116.352 205.88C116.141 206.011 115.976 206.183 115.856 206.396C115.736 206.607 115.676 206.836 115.676 207.084V208.34L115.528 208.172C115.696 207.908 115.916 207.695 116.188 207.532C116.462 207.369 116.761 207.288 117.084 207.288C117.441 207.288 117.762 207.373 118.048 207.544C118.333 207.712 118.56 207.94 118.728 208.228C118.896 208.516 118.98 208.839 118.98 209.196C118.98 209.551 118.89 209.873 118.712 210.164C118.536 210.455 118.3 210.687 118.004 210.86C117.71 211.033 117.385 211.12 117.028 211.12ZM117.028 210.548C117.278 210.548 117.506 210.488 117.712 210.368C117.92 210.248 118.084 210.085 118.204 209.88C118.326 209.675 118.388 209.447 118.388 209.196C118.388 208.945 118.326 208.717 118.204 208.512C118.084 208.304 117.921 208.14 117.716 208.02C117.51 207.897 117.282 207.836 117.032 207.836C116.781 207.836 116.553 207.897 116.348 208.02C116.142 208.14 115.978 208.304 115.856 208.512C115.736 208.717 115.676 208.945 115.676 209.196C115.676 209.444 115.736 209.671 115.856 209.876C115.976 210.081 116.138 210.245 116.344 210.368C116.549 210.488 116.777 210.548 117.028 210.548Z" fill="#575756"/>
<path d="M117 214.75C113.272 214.75 110.25 211.728 110.25 208H109.75C109.75 212.004 112.996 215.25 117 215.25V214.75ZM123.75 208C123.75 211.728 120.728 214.75 117 214.75V215.25C121.004 215.25 124.25 212.004 124.25 208H123.75ZM117 201.25C120.728 201.25 123.75 204.272 123.75 208H124.25C124.25 203.996 121.004 200.75 117 200.75V201.25ZM117 200.75C112.996 200.75 109.75 203.996 109.75 208H110.25C110.25 204.272 113.272 201.25 117 201.25V200.75Z" fill="#575756"/>
<path d="M254.951 229.12C254.653 229.12 254.377 229.059 254.123 228.936C253.87 228.813 253.654 228.644 253.475 228.428C253.297 228.212 253.169 227.964 253.091 227.684L253.655 227.532C253.706 227.74 253.798 227.92 253.931 228.072C254.065 228.221 254.221 228.337 254.399 228.42C254.581 228.503 254.77 228.544 254.967 228.544C255.223 228.544 255.453 228.483 255.655 228.36C255.861 228.235 256.023 228.069 256.143 227.864C256.263 227.659 256.323 227.433 256.323 227.188C256.323 226.935 256.261 226.707 256.135 226.504C256.01 226.299 255.845 226.136 255.639 226.016C255.434 225.896 255.21 225.836 254.967 225.836C254.695 225.836 254.461 225.896 254.263 226.016C254.066 226.133 253.909 226.281 253.791 226.46L253.255 226.236L253.431 223.24H256.507V223.804H253.691L253.983 223.528L253.827 226.084L253.679 225.888C253.845 225.699 254.045 225.551 254.279 225.444C254.514 225.337 254.761 225.284 255.019 225.284C255.374 225.284 255.694 225.369 255.979 225.54C256.265 225.708 256.491 225.936 256.659 226.224C256.827 226.512 256.911 226.833 256.911 227.188C256.911 227.54 256.822 227.863 256.643 228.156C256.465 228.447 256.227 228.68 255.931 228.856C255.635 229.032 255.309 229.12 254.951 229.12Z" fill="#575756"/>
<path d="M255 232.75C251.272 232.75 248.25 229.728 248.25 226H247.75C247.75 230.004 250.996 233.25 255 233.25V232.75ZM261.75 226C261.75 229.728 258.728 232.75 255 232.75V233.25C259.004 233.25 262.25 230.004 262.25 226H261.75ZM255 219.25C258.728 219.25 261.75 222.272 261.75 226H262.25C262.25 221.996 259.004 218.75 255 218.75V219.25ZM255 218.75C250.996 218.75 247.75 221.996 247.75 226H248.25C248.25 222.272 251.272 219.25 255 219.25V218.75Z" fill="#575756"/>
<path d="M152.996 101.12C152.636 101.12 152.317 101.048 152.04 100.904C151.765 100.76 151.549 100.559 151.392 100.3C151.237 100.039 151.16 99.7333 151.16 99.384C151.16 99.0267 151.246 98.7093 151.42 98.432C151.593 98.152 151.857 97.94 152.212 97.796L152.204 98.028C151.908 97.9187 151.682 97.74 151.528 97.492C151.373 97.244 151.296 96.9693 151.296 96.668C151.296 96.348 151.369 96.0733 151.516 95.844C151.662 95.612 151.862 95.4333 152.116 95.308C152.372 95.1827 152.665 95.12 152.996 95.12C153.326 95.12 153.62 95.1827 153.876 95.308C154.132 95.4333 154.333 95.612 154.48 95.844C154.626 96.0733 154.7 96.348 154.7 96.668C154.7 96.9693 154.625 97.2427 154.476 97.488C154.329 97.7333 154.104 97.9133 153.8 98.028L153.78 97.796C154.134 97.9373 154.4 98.148 154.576 98.428C154.754 98.708 154.844 99.0267 154.844 99.384C154.844 99.7333 154.765 100.039 154.608 100.3C154.45 100.559 154.233 100.76 153.956 100.904C153.678 101.048 153.358 101.12 152.996 101.12ZM152.996 100.556C153.358 100.556 153.653 100.456 153.88 100.256C154.106 100.053 154.22 99.7627 154.22 99.384C154.22 99 154.108 98.7093 153.884 98.512C153.66 98.312 153.364 98.212 152.996 98.212C152.628 98.212 152.333 98.312 152.112 98.512C151.89 98.7093 151.78 99 151.78 99.384C151.78 99.7627 151.892 100.053 152.116 100.256C152.34 100.456 152.633 100.556 152.996 100.556ZM152.996 97.644C153.316 97.644 153.576 97.5627 153.776 97.4C153.976 97.2347 154.076 96.9907 154.076 96.668C154.076 96.3453 153.976 96.104 153.776 95.944C153.576 95.7813 153.316 95.7 152.996 95.7C152.676 95.7 152.416 95.7813 152.216 95.944C152.018 96.104 151.92 96.3453 151.92 96.668C151.92 96.9907 152.018 97.2347 152.216 97.4C152.416 97.5627 152.676 97.644 152.996 97.644Z" fill="#575756"/>
<path d="M153 104.75C149.272 104.75 146.25 101.728 146.25 98H145.75C145.75 102.004 148.996 105.25 153 105.25V104.75ZM159.75 98C159.75 101.728 156.728 104.75 153 104.75V105.25C157.004 105.25 160.25 102.004 160.25 98H159.75ZM153 91.25C156.728 91.25 159.75 94.2721 159.75 98H160.25C160.25 93.9959 157.004 90.75 153 90.75V91.25ZM153 90.75C148.996 90.75 145.75 93.9959 145.75 98H146.25C146.25 94.2721 149.272 91.25 153 91.25V90.75Z" fill="#575756"/>
<path d="M254.996 378.12C254.636 378.12 254.317 378.048 254.04 377.904C253.765 377.76 253.549 377.559 253.392 377.3C253.237 377.039 253.16 376.733 253.16 376.384C253.16 376.027 253.246 375.709 253.42 375.432C253.593 375.152 253.857 374.94 254.212 374.796L254.204 375.028C253.908 374.919 253.682 374.74 253.528 374.492C253.373 374.244 253.296 373.969 253.296 373.668C253.296 373.348 253.369 373.073 253.516 372.844C253.662 372.612 253.862 372.433 254.116 372.308C254.372 372.183 254.665 372.12 254.996 372.12C255.326 372.12 255.62 372.183 255.876 372.308C256.132 372.433 256.333 372.612 256.48 372.844C256.626 373.073 256.7 373.348 256.7 373.668C256.7 373.969 256.625 374.243 256.476 374.488C256.329 374.733 256.104 374.913 255.8 375.028L255.78 374.796C256.134 374.937 256.4 375.148 256.576 375.428C256.754 375.708 256.844 376.027 256.844 376.384C256.844 376.733 256.765 377.039 256.608 377.3C256.45 377.559 256.233 377.76 255.956 377.904C255.678 378.048 255.358 378.12 254.996 378.12ZM254.996 377.556C255.358 377.556 255.653 377.456 255.88 377.256C256.106 377.053 256.22 376.763 256.22 376.384C256.22 376 256.108 375.709 255.884 375.512C255.66 375.312 255.364 375.212 254.996 375.212C254.628 375.212 254.333 375.312 254.112 375.512C253.89 375.709 253.78 376 253.78 376.384C253.78 376.763 253.892 377.053 254.116 377.256C254.34 377.456 254.633 377.556 254.996 377.556ZM254.996 374.644C255.316 374.644 255.576 374.563 255.776 374.4C255.976 374.235 256.076 373.991 256.076 373.668C256.076 373.345 255.976 373.104 255.776 372.944C255.576 372.781 255.316 372.7 254.996 372.7C254.676 372.7 254.416 372.781 254.216 372.944C254.018 373.104 253.92 373.345 253.92 373.668C253.92 373.991 254.018 374.235 254.216 374.4C254.416 374.563 254.676 374.644 254.996 374.644Z" fill="#575756"/>
<path d="M255 381.75C251.272 381.75 248.25 378.728 248.25 375H247.75C247.75 379.004 250.996 382.25 255 382.25V381.75ZM261.75 375C261.75 378.728 258.728 381.75 255 381.75V382.25C259.004 382.25 262.25 379.004 262.25 375H261.75ZM255 368.25C258.728 368.25 261.75 371.272 261.75 375H262.25C262.25 370.996 259.004 367.75 255 367.75V368.25ZM255 367.75C250.996 367.75 247.75 370.996 247.75 375H248.25C248.25 371.272 251.272 368.25 255 368.25V367.75Z" fill="#575756"/>
<path d="M169.005 320V314.896L167.921 315.548V314.888L169.005 314.24H169.601V320H169.005Z" fill="#575756"/>
<path d="M169 323.75C165.272 323.75 162.25 320.728 162.25 317H161.75C161.75 321.004 164.996 324.25 169 324.25V323.75ZM175.75 317C175.75 320.728 172.728 323.75 169 323.75V324.25C173.004 324.25 176.25 321.004 176.25 317H175.75ZM169 310.25C172.728 310.25 175.75 313.272 175.75 317H176.25C176.25 312.996 173.004 309.75 169 309.75V310.25ZM169 309.75C164.996 309.75 161.75 312.996 161.75 317H162.25C162.25 313.272 165.272 310.25 169 310.25V309.75Z" fill="#575756"/>
</svg>
