<svg width="680" height="698" viewBox="0 0 680 698" fill="none" xmlns="http://www.w3.org/2000/svg">
<path opacity="0.95" d="M680 0H0V698H680V0Z" fill="#D3D3D3"/>
<path d="M8.7125 304.572C7.99062 305.099 7.57812 305.924 7.57812 306.852C7.57812 307.654 7.86458 308.399 8.44896 308.937C9.01042 309.487 9.70937 309.728 10.5458 309.728H13.1927C14.0292 309.728 14.7281 309.522 15.3125 308.949C15.851 308.433 16.1719 307.7 16.1604 306.921C16.1719 306.164 15.8625 305.442 15.3354 304.927C14.8427 304.434 14.1437 304.125 13.4104 304.125C12.6312 304.113 11.9552 304.4 11.4281 304.938C10.9583 305.442 10.6833 306.118 10.6833 306.829C10.6833 307.597 11.05 308.307 11.6115 308.788H10.5458C10.0417 308.788 9.59479 308.639 9.23958 308.353C8.76979 308.032 8.47187 307.459 8.47187 306.852C8.47187 306.199 8.80417 305.614 9.30833 305.271L8.7125 304.572ZM15.1177 306.542C15.2094 307.035 15.1062 307.516 14.8427 307.906C14.6021 308.25 14.2354 308.525 13.7885 308.628C13.3417 308.731 12.8719 308.651 12.5052 308.422C12.1042 308.181 11.8062 307.78 11.7031 307.299C11.6115 306.84 11.6917 306.382 11.9208 305.992C12.1615 305.614 12.551 305.316 13.0323 305.225C13.4677 305.122 13.926 305.19 14.3042 305.408C14.7167 305.649 15.0146 306.05 15.1177 306.542ZM16.2063 301.813H14.751V302.867H16V302.317C16.4469 302.283 16.825 302.34 16.7906 302.81L17.2375 302.867C17.3635 302.168 16.9281 301.813 16.2063 301.813ZM11.5771 295.203C11.1417 295.661 10.901 296.257 10.8781 296.933L8.66667 294.607H7.75V299.42H8.64375V295.879L11.1646 298.537L11.8979 298.079C11.7604 297.804 11.6802 297.483 11.6802 297.185C11.6802 296.761 11.8062 296.337 12.0927 296.017C12.4365 295.627 12.9521 295.467 13.4677 295.467C14.0177 295.467 14.5448 295.638 14.8885 296.074C15.1406 296.372 15.2667 296.773 15.2667 297.174C15.2667 297.575 15.1521 297.976 14.9115 298.285C14.7052 298.56 14.4073 298.755 14.075 298.858L14.3271 299.752C14.8198 299.603 15.2781 299.305 15.599 298.893C15.9885 298.4 16.1719 297.781 16.1604 297.174C16.1604 296.567 15.9771 295.936 15.576 295.455C15.0833 294.825 14.3042 294.515 13.4677 294.504C12.7802 294.493 12.0698 294.71 11.5771 295.203ZM16.1719 290.733C16.1719 291.512 15.8625 292.28 15.2781 292.784C14.7167 293.277 14.1208 293.471 13.3417 293.471H10.3969C9.62917 293.471 9.01042 293.277 8.4375 292.761C7.8875 292.268 7.56667 291.523 7.57812 290.733C7.56667 289.965 7.86458 289.22 8.4375 288.705C8.9875 288.201 9.61771 287.994 10.3969 287.994H13.3417C14.0865 287.994 14.7167 288.189 15.2781 288.67C15.851 289.186 16.1719 289.919 16.1719 290.733ZM8.47187 290.733C8.46042 291.352 8.79271 291.913 9.28542 292.234C9.60625 292.44 9.97292 292.532 10.3969 292.532H13.3417C13.7427 292.532 14.1323 292.463 14.4646 292.234C14.9573 291.902 15.2781 291.34 15.2781 290.733C15.2781 290.114 14.9573 289.553 14.4646 289.232C14.1323 289.003 13.7885 288.934 13.3417 288.934H10.3969C9.97292 288.934 9.64062 289.014 9.28542 289.22C8.79271 289.553 8.46042 290.114 8.47187 290.733ZM16.1719 284.341C16.1719 285.12 15.8625 285.888 15.2781 286.392C14.7167 286.885 14.1208 287.08 13.3417 287.08H10.3969C9.62917 287.08 9.01042 286.885 8.4375 286.369C7.8875 285.877 7.56667 285.132 7.57812 284.341C7.56667 283.574 7.86458 282.829 8.4375 282.313C8.9875 281.809 9.61771 281.603 10.3969 281.603H13.3417C14.0865 281.603 14.7167 281.797 15.2781 282.279C15.851 282.794 16.1719 283.528 16.1719 284.341ZM8.47187 284.341C8.46042 284.96 8.79271 285.521 9.28542 285.842C9.60625 286.049 9.97292 286.14 10.3969 286.14H13.3417C13.7427 286.14 14.1323 286.071 14.4646 285.842C14.9573 285.51 15.2781 284.949 15.2781 284.341C15.2781 283.722 14.9573 283.161 14.4646 282.84C14.1323 282.611 13.7885 282.542 13.3417 282.542H10.3969C9.97292 282.542 9.64062 282.622 9.28542 282.829C8.79271 283.161 8.46042 283.722 8.47187 284.341Z" fill="black"/>
<path d="M17.5713 175.531V419.061" stroke="#575756" stroke-width="0.5" stroke-miterlimit="10"/>
<path d="M17.5713 419.061H23.8413" stroke="#575756" stroke-width="0.5" stroke-miterlimit="10"/>
<path d="M14.8516 416.301L20.3016 421.741" stroke="#575756" stroke-miterlimit="10"/>
<path d="M14.8516 172.811L20.3016 178.251" stroke="#575756" stroke-miterlimit="10"/>
<path d="M17.5713 175.531H23.8413" stroke="#575756" stroke-width="0.5" stroke-miterlimit="10"/>
<path d="M112.781 419.061H132.781" stroke="#575756" stroke-width="0.5" stroke-miterlimit="10"/>
<path d="M31.5508 175.531H44.6608" stroke="#575756" stroke-width="0.5" stroke-miterlimit="10"/>
<path d="M31.5508 419.021H44.6608" stroke="#575756" stroke-width="0.5" stroke-miterlimit="10"/>
<path d="M116.441 419.021H129.551" stroke="#575756" stroke-width="0.5" stroke-miterlimit="10"/>
<path d="M55.3311 419.021H105.771" stroke="#575756" stroke-width="0.5" stroke-miterlimit="10"/>
<path d="M590.502 170.07H50.0615V426.27H590.502V170.07Z" stroke="#575756" stroke-width="0.5" stroke-miterlimit="10" stroke-linecap="square"/>
<path d="M202.95 401.751C197.93 401.751 196.95 398.291 196.95 394.021C196.95 389.751 197.94 386.291 202.95 386.291C207.96 386.291 215.11 389.621 215.11 394.021C215.12 398.421 207.96 401.751 202.95 401.751Z" stroke="#575756" stroke-width="0.5" stroke-miterlimit="10"/>
<path d="M197.901 388.861H195.561" stroke="#575756" stroke-width="0.5" stroke-miterlimit="10"/>
<path d="M197.901 399.301H195.561" stroke="#575756" stroke-width="0.5" stroke-miterlimit="10"/>
<path d="M183.681 384.201H191.251C193.631 384.201 195.561 386.131 195.561 388.511V399.531C195.561 401.911 193.631 403.841 191.251 403.841H183.681V384.201Z" stroke="#575756" stroke-width="0.5" stroke-miterlimit="10"/>
<path d="M268.731 302.721H246.661V354.571H268.731V302.721Z" stroke="#575756" stroke-width="0.5" stroke-miterlimit="10"/>
<path d="M246.661 321.16H268.921" stroke="#575756" stroke-width="0.5" stroke-miterlimit="10"/>
<path d="M246.661 321.16L268.731 354.57" stroke="#575756" stroke-width="0.5" stroke-miterlimit="10"/>
<path d="M246.661 354.571L268.731 321.451" stroke="#575756" stroke-width="0.5" stroke-miterlimit="10"/>
<path d="M246.661 321.161L268.731 302.721" stroke="#575756" stroke-width="0.5" stroke-miterlimit="10"/>
<path d="M246.661 302.721L268.921 321.161" stroke="#575756" stroke-width="0.5" stroke-miterlimit="10"/>
<path d="M186.181 304.311H209.732C210.512 304.311 211.142 304.941 211.142 305.721V324.781C211.142 325.561 210.512 326.191 209.732 326.191H186.181C185.401 326.191 184.771 325.561 184.771 324.781V305.721C184.771 304.951 185.401 304.311 186.181 304.311Z" stroke="#575756" stroke-width="0.5" stroke-miterlimit="10" stroke-linecap="square"/>
<path d="M198.372 308.771H207.992C208.942 308.771 209.712 309.681 209.712 310.801V322.301C209.712 323.421 208.942 324.331 207.992 324.331H187.812C186.862 324.331 186.092 323.421 186.092 322.301V310.801C186.092 309.681 186.862 308.771 187.812 308.771H197.432" stroke="#575756" stroke-width="0.5" stroke-miterlimit="10"/>
<path d="M197.891 316.29C198.432 316.29 198.871 315.829 198.871 315.26C198.871 314.692 198.432 314.23 197.891 314.23C197.35 314.23 196.911 314.692 196.911 315.26C196.911 315.829 197.35 316.29 197.891 316.29Z" stroke="#575756" stroke-width="0.5" stroke-miterlimit="10" stroke-linecap="square"/>
<path d="M201.601 307.521C202.142 307.521 202.581 307.06 202.581 306.491C202.581 305.922 202.142 305.461 201.601 305.461C201.06 305.461 200.621 305.922 200.621 306.491C200.621 307.06 201.06 307.521 201.601 307.521Z" stroke="#575756" stroke-width="0.5" stroke-miterlimit="10" stroke-linecap="square"/>
<path d="M194.021 307.521C194.562 307.521 195.001 307.06 195.001 306.491C195.001 305.922 194.562 305.461 194.021 305.461C193.48 305.461 193.041 305.922 193.041 306.491C193.041 307.06 193.48 307.521 194.021 307.521Z" stroke="#575756" stroke-width="0.5" stroke-miterlimit="10" stroke-linecap="square"/>
<path d="M198.431 305.93H197.371V313.08H198.431V305.93Z" stroke="#575756" stroke-width="0.5" stroke-miterlimit="10" stroke-linecap="square"/>
<path d="M163.691 300.57H104.431V318.5H163.691V300.57Z" stroke="#575756" stroke-width="0.5" stroke-miterlimit="10"/>
<path d="M163.691 253.611H104.431V271.541H163.691V253.611Z" stroke="#575756" stroke-width="0.5" stroke-miterlimit="10"/>
<path d="M163.691 269.141H171.331" stroke="#575756" stroke-width="0.5" stroke-miterlimit="10"/>
<path d="M163.691 263.35H171.331" stroke="#575756" stroke-width="0.5" stroke-miterlimit="10"/>
<path d="M163.691 257.57H171.331" stroke="#575756" stroke-width="0.5" stroke-miterlimit="10"/>
<path d="M50.1016 251.811H171.332" stroke="#575756" stroke-width="0.5" stroke-miterlimit="10"/>
<path d="M50.1016 246H171.332" stroke="#575756" stroke-width="0.5" stroke-miterlimit="10"/>
<path d="M50.1016 240.201H171.332" stroke="#575756" stroke-width="0.5" stroke-miterlimit="10"/>
<path d="M50.1016 234.41H171.332" stroke="#575756" stroke-width="0.5" stroke-miterlimit="10"/>
<path d="M50.1016 228.621H171.332" stroke="#575756" stroke-width="0.5" stroke-miterlimit="10"/>
<path d="M50.1016 222.83H171.332" stroke="#575756" stroke-width="0.5" stroke-miterlimit="10"/>
<path d="M50.1016 217.041H171.332" stroke="#575756" stroke-width="0.5" stroke-miterlimit="10"/>
<path d="M50.1016 211.25H171.332" stroke="#575756" stroke-width="0.5" stroke-miterlimit="10"/>
<path d="M50.1016 205.461H171.332" stroke="#575756" stroke-width="0.5" stroke-miterlimit="10"/>
<path d="M50.1016 199.68H171.332" stroke="#575756" stroke-width="0.5" stroke-miterlimit="10"/>
<path d="M50.1016 193.891H171.332" stroke="#575756" stroke-width="0.5" stroke-miterlimit="10"/>
<path d="M50.1016 188.1H171.332" stroke="#575756" stroke-width="0.5" stroke-miterlimit="10"/>
<path d="M50.1016 182.311H171.332" stroke="#575756" stroke-width="0.5" stroke-miterlimit="10"/>
<path d="M50.1016 176.521H171.332" stroke="#575756" stroke-width="0.5" stroke-miterlimit="10"/>
<path d="M50.1016 367.9H171.332" stroke="#575756" stroke-width="0.5" stroke-miterlimit="10"/>
<path d="M50.1016 362.1H171.332" stroke="#575756" stroke-width="0.5" stroke-miterlimit="10"/>
<path d="M50.1016 356.291H171.332" stroke="#575756" stroke-width="0.5" stroke-miterlimit="10"/>
<path d="M50.1016 350.49H171.332" stroke="#575756" stroke-width="0.5" stroke-miterlimit="10"/>
<path d="M50.1016 344.68H171.332" stroke="#575756" stroke-width="0.5" stroke-miterlimit="10"/>
<path d="M50.1016 338.881H171.332" stroke="#575756" stroke-width="0.5" stroke-miterlimit="10"/>
<path d="M50.1016 333.07H171.332" stroke="#575756" stroke-width="0.5" stroke-miterlimit="10"/>
<path d="M50.1016 327.271H171.332" stroke="#575756" stroke-width="0.5" stroke-miterlimit="10"/>
<path d="M50.1016 321.461H171.332" stroke="#575756" stroke-width="0.5" stroke-miterlimit="10"/>
<path d="M163.691 315.041H171.331" stroke="#575756" stroke-width="0.5" stroke-miterlimit="10"/>
<path d="M163.691 309.25H171.331" stroke="#575756" stroke-width="0.5" stroke-miterlimit="10"/>
<path d="M163.691 303.461H171.331" stroke="#575756" stroke-width="0.5" stroke-miterlimit="10"/>
<path d="M50.1016 298.25H171.332" stroke="#575756" stroke-width="0.5" stroke-miterlimit="10"/>
<path d="M50.1016 292.441H171.332" stroke="#575756" stroke-width="0.5" stroke-miterlimit="10"/>
<path d="M50.1016 286.641H171.332" stroke="#575756" stroke-width="0.5" stroke-miterlimit="10"/>
<path d="M50.1016 280.83H171.332" stroke="#575756" stroke-width="0.5" stroke-miterlimit="10"/>
<path d="M50.1016 275.031H171.332" stroke="#575756" stroke-width="0.5" stroke-miterlimit="10"/>
<path d="M50.1016 269.221H104.432" stroke="#575756" stroke-width="0.5" stroke-miterlimit="10"/>
<path d="M50.1016 263.42H104.432" stroke="#575756" stroke-width="0.5" stroke-miterlimit="10"/>
<path d="M50.1016 257.611H104.432" stroke="#575756" stroke-width="0.5" stroke-miterlimit="10"/>
<path d="M50.1016 315.66H104.432" stroke="#575756" stroke-width="0.5" stroke-miterlimit="10"/>
<path d="M50.1016 309.85H104.432" stroke="#575756" stroke-width="0.5" stroke-miterlimit="10"/>
<path d="M50.1016 304.051H104.432" stroke="#575756" stroke-width="0.5" stroke-miterlimit="10"/>
<path d="M50.1016 420.141H171.332" stroke="#575756" stroke-width="0.5" stroke-miterlimit="10"/>
<path d="M50.1016 414.34H171.332" stroke="#575756" stroke-width="0.5" stroke-miterlimit="10"/>
<path d="M50.1016 408.531H171.332" stroke="#575756" stroke-width="0.5" stroke-miterlimit="10"/>
<path d="M50.1016 402.73H171.332" stroke="#575756" stroke-width="0.5" stroke-miterlimit="10"/>
<path d="M50.1016 396.92H171.332" stroke="#575756" stroke-width="0.5" stroke-miterlimit="10"/>
<path d="M50.1016 391.121H171.332" stroke="#575756" stroke-width="0.5" stroke-miterlimit="10"/>
<path d="M50.1016 385.32H171.332" stroke="#575756" stroke-width="0.5" stroke-miterlimit="10"/>
<path d="M50.1016 379.51H171.332" stroke="#575756" stroke-width="0.5" stroke-miterlimit="10"/>
<path d="M50.1016 373.711H171.332" stroke="#575756" stroke-width="0.5" stroke-miterlimit="10"/>
<path d="M287.921 414.23H299.921" stroke="#575756" stroke-width="0.5" stroke-miterlimit="10"/>
<path d="M290.721 425.031H297.111" stroke="#575756" stroke-width="0.5" stroke-miterlimit="10"/>
<path d="M274.591 404.65H313.251" stroke="#575756" stroke-width="0.5" stroke-miterlimit="10"/>
<path d="M274.591 395.061H313.251" stroke="#575756" stroke-width="0.5" stroke-miterlimit="10"/>
<path d="M274.591 385.48H313.251" stroke="#575756" stroke-width="0.5" stroke-miterlimit="10"/>
<path d="M274.591 375.891H313.251" stroke="#575756" stroke-width="0.5" stroke-miterlimit="10"/>
<path d="M274.591 366.311H313.251" stroke="#575756" stroke-width="0.5" stroke-miterlimit="10"/>
<path d="M274.591 356.721H313.251" stroke="#575756" stroke-width="0.5" stroke-miterlimit="10"/>
<path d="M274.591 347.141H313.251" stroke="#575756" stroke-width="0.5" stroke-miterlimit="10"/>
<path d="M274.591 337.551H313.251" stroke="#575756" stroke-width="0.5" stroke-miterlimit="10"/>
<path d="M274.591 327.971H313.251" stroke="#575756" stroke-width="0.5" stroke-miterlimit="10"/>
<path d="M274.591 318.381H313.251" stroke="#575756" stroke-width="0.5" stroke-miterlimit="10"/>
<path d="M274.591 308.801H313.251" stroke="#575756" stroke-width="0.5" stroke-miterlimit="10"/>
<path d="M274.591 299.211H313.251" stroke="#575756" stroke-width="0.5" stroke-miterlimit="10"/>
<path d="M274.591 289.631H313.251" stroke="#575756" stroke-width="0.5" stroke-miterlimit="10"/>
<path d="M274.591 280.051H313.251" stroke="#575756" stroke-width="0.5" stroke-miterlimit="10"/>
<path d="M274.591 270.461H313.251" stroke="#575756" stroke-width="0.5" stroke-miterlimit="10"/>
<path d="M352.142 260.271C344.402 260.851 319.652 268.041 319.102 296.151" stroke="#575756" stroke-width="0.5" stroke-miterlimit="10" stroke-linecap="square"/>
<path d="M352.891 260.781H353.681V295.401H352.891V260.781ZM352.141 260.031V296.151H354.431V260.031H352.141Z" fill="black"/>
<path d="M268.921 354.57H243.921V414.21H268.921V354.57Z" stroke="#575756" stroke-width="0.5" stroke-miterlimit="10"/>
<path d="M266.041 369.231C265.991 363.271 261.701 358.451 256.421 358.451C251.141 358.451 246.851 363.271 246.801 369.231V408.011C246.801 409.731 248.031 411.121 249.551 411.121H263.311C264.831 411.121 266.061 409.731 266.061 408.011L266.041 369.231Z" stroke="#575756" stroke-width="0.5" stroke-miterlimit="10"/>
<path d="M256.421 407.35C256.835 407.35 257.171 407.014 257.171 406.6C257.171 406.185 256.835 405.85 256.421 405.85C256.007 405.85 255.671 406.185 255.671 406.6C255.671 407.014 256.007 407.35 256.421 407.35Z" stroke="#575756" stroke-width="0.5" stroke-miterlimit="10"/>
<path d="M443.841 302.91H363.211V338.45H443.841V302.91Z" stroke="#575756" stroke-width="0.5" stroke-miterlimit="10"/>
<path d="M441.951 302.91H365.101V338.45H441.951V302.91Z" stroke="#575756" stroke-width="0.5" stroke-miterlimit="10"/>
<path d="M439.101 306.779H425.321V334.569H439.101V306.779Z" stroke="#575756" stroke-width="0.5" stroke-miterlimit="10"/>
<path d="M425.321 338.45L415.751 302.91" stroke="#575756" stroke-width="0.5" stroke-miterlimit="10"/>
<path d="M443.851 302.91H441.961V304.8H443.851V302.91Z" stroke="#575756" stroke-width="0.5" stroke-miterlimit="10"/>
<path d="M443.851 336.561H441.961V338.451H443.851V336.561Z" stroke="#575756" stroke-width="0.5" stroke-miterlimit="10"/>
<path d="M365.101 336.561H363.211V338.451H365.101V336.561Z" stroke="#575756" stroke-width="0.5" stroke-miterlimit="10"/>
<path d="M365.101 302.91H363.211V304.8H365.101V302.91Z" stroke="#575756" stroke-width="0.5" stroke-miterlimit="10"/>
<path d="M321.081 224.051C321.661 231.751 328.851 256.391 356.961 256.941" stroke="#575756" stroke-width="0.5" stroke-miterlimit="10" stroke-linecap="square"/>
<path d="M321.591 222.51H356.211V223.3H321.591V222.51ZM320.841 221.76V224.05H356.961V221.76H320.841Z" fill="black"/>
<path d="M212.921 260.271C220.771 260.851 245.861 268.041 246.421 296.151" stroke="#575756" stroke-width="0.5" stroke-miterlimit="10" stroke-linecap="square"/>
<path d="M212.171 260.781V295.401H211.381V260.781H212.171ZM212.921 260.031H210.631V296.151H212.921V260.031Z" fill="black"/>
<path d="M171.331 193.09V227.83" stroke="#575756" stroke-width="0.5" stroke-miterlimit="10"/>
<path d="M465.361 206.729C470.641 206.729 474.921 202.449 474.921 197.169C474.921 191.89 470.641 187.609 465.361 187.609C460.081 187.609 455.801 191.89 455.801 197.169C455.801 202.449 460.081 206.729 465.361 206.729Z" stroke="#575756" stroke-width="0.5" stroke-miterlimit="10"/>
<path d="M465.361 208.52C471.629 208.52 476.711 203.439 476.711 197.17C476.711 190.902 471.629 185.82 465.361 185.82C459.092 185.82 454.011 190.902 454.011 197.17C454.011 203.439 459.092 208.52 465.361 208.52Z" stroke="#575756" stroke-width="0.5" stroke-miterlimit="10"/>
<path d="M455.191 409.089C460.471 409.089 464.751 404.809 464.751 399.529C464.751 394.249 460.471 389.969 455.191 389.969C449.911 389.969 445.631 394.249 445.631 399.529C445.631 404.809 449.911 409.089 455.191 409.089Z" stroke="#575756" stroke-width="0.5" stroke-miterlimit="10"/>
<path d="M455.191 410.88C461.459 410.88 466.541 405.798 466.541 399.53C466.541 393.261 461.459 388.18 455.191 388.18C448.922 388.18 443.841 393.261 443.841 399.53C443.841 405.798 448.922 410.88 455.191 410.88Z" stroke="#575756" stroke-width="0.5" stroke-miterlimit="10"/>
<path d="M440.592 387.24H315.312V414.23H440.592V387.24Z" stroke="#575756" stroke-width="0.5" stroke-miterlimit="10"/>
<path d="M315.312 387.24L440.582 414.23" stroke="#575756" stroke-width="0.5" stroke-miterlimit="10"/>
<path d="M440.582 387.24L315.312 414.23" stroke="#575756" stroke-width="0.5" stroke-miterlimit="10"/>
<path d="M520.661 272.871V182.291" stroke="#575756" stroke-width="0.5" stroke-miterlimit="10"/>
<path d="M532.682 272.871V182.291" stroke="#575756" stroke-width="0.5" stroke-miterlimit="10"/>
<path d="M531.231 225.211V185.361" stroke="#575756" stroke-width="0.5" stroke-miterlimit="10"/>
<path d="M531.231 270.032V231.432" stroke="#575756" stroke-width="0.5" stroke-miterlimit="10"/>
<path d="M532.681 182.84H529.791V185.36H532.681V182.84Z" stroke="#575756" stroke-width="0.5" stroke-miterlimit="10" stroke-linecap="square"/>
<path d="M529.791 184.01H520.661V182.4H532.681" stroke="#575756" stroke-width="0.5" stroke-miterlimit="10" stroke-linecap="square"/>
<path d="M532.681 225.211H529.791V227.731H532.681V225.211Z" stroke="#575756" stroke-width="0.5" stroke-miterlimit="10" stroke-linecap="square"/>
<path d="M532.681 228.922H529.791V231.442H532.681V228.922Z" stroke="#575756" stroke-width="0.5" stroke-miterlimit="10" stroke-linecap="square"/>
<path d="M532.681 227.441V228.171H520.661V226.561H529.791" stroke="#575756" stroke-width="0.5" stroke-miterlimit="10" stroke-linecap="square"/>
<path d="M529.791 230.081H520.661V228.471H532.681" stroke="#575756" stroke-width="0.5" stroke-miterlimit="10" stroke-linecap="square"/>
<path d="M532.681 270.002H529.791V272.522H532.681V270.002Z" stroke="#575756" stroke-width="0.5" stroke-miterlimit="10" stroke-linecap="square"/>
<path d="M520.661 271.262H529.791" stroke="#575756" stroke-width="0.5" stroke-miterlimit="10" stroke-linecap="square"/>
<path d="M520.661 414.23V323.65" stroke="#575756" stroke-width="0.5" stroke-miterlimit="10"/>
<path d="M532.682 414.23V323.65" stroke="#575756" stroke-width="0.5" stroke-miterlimit="10"/>
<path d="M531.231 366.571V326.721" stroke="#575756" stroke-width="0.5" stroke-miterlimit="10"/>
<path d="M531.231 411.391V372.801" stroke="#575756" stroke-width="0.5" stroke-miterlimit="10"/>
<path d="M532.681 324.199H529.791V326.719H532.681V324.199Z" stroke="#575756" stroke-width="0.5" stroke-miterlimit="10" stroke-linecap="square"/>
<path d="M529.791 325.37H520.661V323.76H532.681" stroke="#575756" stroke-width="0.5" stroke-miterlimit="10" stroke-linecap="square"/>
<path d="M532.681 366.57H529.791V369.09H532.681V366.57Z" stroke="#575756" stroke-width="0.5" stroke-miterlimit="10" stroke-linecap="square"/>
<path d="M532.681 370.281H529.791V372.801H532.681V370.281Z" stroke="#575756" stroke-width="0.5" stroke-miterlimit="10" stroke-linecap="square"/>
<path d="M532.681 368.8V369.54H520.661V367.93H529.791" stroke="#575756" stroke-width="0.5" stroke-miterlimit="10" stroke-linecap="square"/>
<path d="M529.791 371.44H520.661V369.83H532.681" stroke="#575756" stroke-width="0.5" stroke-miterlimit="10" stroke-linecap="square"/>
<path d="M532.681 411.361H529.791V413.881H532.681V411.361Z" stroke="#575756" stroke-width="0.5" stroke-miterlimit="10" stroke-linecap="square"/>
<path d="M520.661 412.621H529.791" stroke="#575756" stroke-width="0.5" stroke-miterlimit="10" stroke-linecap="square"/>
<path d="M520.661 302.43H494.812V359.43H520.661V302.43Z" stroke="#575756" stroke-width="0.5" stroke-miterlimit="10"/>
<path d="M183.562 333.371V371.801" stroke="#575756" stroke-width="0.5" stroke-miterlimit="10"/>
<path d="M171.191 333.371V371.801" stroke="#575756" stroke-width="0.5" stroke-miterlimit="10"/>
<path d="M172.632 336.342V368.842" stroke="#575756" stroke-width="0.5" stroke-miterlimit="10"/>
<path d="M174.161 368.832H171.191V371.352H174.161V368.832Z" stroke="#575756" stroke-width="0.5" stroke-miterlimit="10" stroke-linecap="square"/>
<path d="M174.161 370.191H183.561V371.801H171.191" stroke="#575756" stroke-width="0.5" stroke-miterlimit="10" stroke-linecap="square"/>
<path d="M174.081 333.811H171.191V336.331H174.081V333.811Z" stroke="#575756" stroke-width="0.5" stroke-miterlimit="10" stroke-linecap="square"/>
<path d="M171.191 334.111V333.371H183.561V334.981H174.161" stroke="#575756" stroke-width="0.5" stroke-miterlimit="10" stroke-linecap="square"/>
<path d="M520.661 268.76H363.121V296.66H520.661V268.76Z" stroke="#575756" stroke-width="0.5" stroke-miterlimit="10"/>
<path d="M463.361 268.76V296.65" stroke="#575756" stroke-width="0.5" stroke-miterlimit="10"/>
<path d="M363.121 268.76L463.361 296.65" stroke="#575756" stroke-width="0.5" stroke-miterlimit="10"/>
<path d="M463.361 268.76L363.121 296.65" stroke="#575756" stroke-width="0.5" stroke-miterlimit="10"/>
<path d="M135.011 226.06C135.591 218.34 142.781 193.64 170.891 193.09" stroke="#575756" stroke-width="0.5" stroke-miterlimit="10" stroke-linecap="square"/>
<path d="M170.141 226.811V227.601H135.521V226.811H170.141ZM170.891 226.061H134.771V228.351H170.891V226.061Z" fill="black"/>
<path d="M487.272 262.301L472.982 267.181C472.642 267.291 472.282 267.121 472.162 266.781L467.772 253.911C467.662 253.571 467.832 253.211 468.172 253.091L482.462 248.211C482.802 248.101 483.162 248.271 483.282 248.611L487.672 261.481C487.782 261.821 487.602 262.191 487.272 262.301Z" stroke="#575756" stroke-width="0.5" stroke-miterlimit="10" stroke-linecap="square"/>
<path d="M482.451 247.692L467.861 252.672C467.611 252.762 467.331 252.622 467.241 252.372L466.941 251.502C466.851 251.252 466.991 250.972 467.241 250.882L481.831 245.902C482.081 245.812 482.361 245.952 482.451 246.202L482.751 247.072C482.841 247.322 482.701 247.602 482.451 247.692Z" stroke="#575756" stroke-width="0.5" stroke-miterlimit="10"/>
<path d="M467.461 249.526L466.524 249.846L466.928 251.029L467.865 250.709L467.461 249.526Z" stroke="#575756" stroke-width="0.5" stroke-miterlimit="10.0003" stroke-linejoin="round"/>
<path d="M482.032 244.557L481.095 244.877L481.498 246.06L482.435 245.741L482.032 244.557Z" stroke="#575756" stroke-width="0.5" stroke-miterlimit="10.0003" stroke-linejoin="round"/>
<path d="M494.251 319.171V334.271C494.251 334.631 493.961 334.911 493.611 334.911H480.011C479.651 334.911 479.371 334.621 479.371 334.271V319.171C479.371 318.811 479.661 318.531 480.011 318.531H493.611C493.961 318.531 494.251 318.821 494.251 319.171Z" stroke="#575756" stroke-width="0.5" stroke-miterlimit="10" stroke-linecap="square"/>
<path d="M478.861 319.012V334.431C478.861 334.701 478.641 334.922 478.371 334.922H477.451C477.181 334.922 476.961 334.701 476.961 334.431V319.012C476.961 318.742 477.181 318.521 477.451 318.521H478.371C478.641 318.531 478.861 318.752 478.861 319.012Z" stroke="#575756" stroke-width="0.5" stroke-miterlimit="10"/>
<path d="M476.821 333.932H475.571V334.922H476.821V333.932Z" stroke="#575756" stroke-width="0.5" stroke-miterlimit="10" stroke-linejoin="round"/>
<path d="M476.821 318.531H475.571V319.521H476.821V318.531Z" stroke="#575756" stroke-width="0.5" stroke-miterlimit="10" stroke-linejoin="round"/>
<path d="M299.741 423.82H297.301V426.26H299.741V423.82Z" stroke="#575756" stroke-width="0.5" stroke-miterlimit="10" stroke-linecap="square"/>
<path d="M290.641 423.811H288.201V426.251H290.641V423.811Z" stroke="#575756" stroke-width="0.5" stroke-miterlimit="10" stroke-linecap="square"/>
<path d="M289.421 414.23V423.81" stroke="#575756" stroke-width="0.5" stroke-miterlimit="10"/>
<path d="M298.251 414.23V423.81" stroke="#575756" stroke-width="0.5" stroke-miterlimit="10"/>
<path d="M230.361 182.291H352.211" stroke="#575756" stroke-width="0.5" stroke-miterlimit="10"/>
<path d="M444.442 182.98H363.812V218.52H444.442V182.98Z" stroke="#575756" stroke-width="0.5" stroke-miterlimit="10"/>
<path d="M442.541 182.98H365.691V218.52H442.541V182.98Z" stroke="#575756" stroke-width="0.5" stroke-miterlimit="10"/>
<path d="M382.332 186.85H368.552V214.64H382.332V186.85Z" stroke="#575756" stroke-width="0.5" stroke-miterlimit="10"/>
<path d="M382.321 182.98L391.901 218.52" stroke="#575756" stroke-width="0.5" stroke-miterlimit="10"/>
<path d="M365.702 216.631H363.812V218.521H365.702V216.631Z" stroke="#575756" stroke-width="0.5" stroke-miterlimit="10"/>
<path d="M365.702 182.98H363.812V184.87H365.702V182.98Z" stroke="#575756" stroke-width="0.5" stroke-miterlimit="10"/>
<path d="M444.442 182.98H442.552V184.87H444.442V182.98Z" stroke="#575756" stroke-width="0.5" stroke-miterlimit="10"/>
<path d="M444.442 216.631H442.552V218.521H444.442V216.631Z" stroke="#575756" stroke-width="0.5" stroke-miterlimit="10"/>
<path d="M266.091 171.5H233.591" stroke="#575756" stroke-width="0.5" stroke-miterlimit="10"/>
<path d="M233.591 170.07H231.071V173.01H233.591V170.07Z" stroke="#575756" stroke-width="0.5" stroke-miterlimit="10" stroke-linecap="square"/>
<path d="M232.241 173.01V182.29H230.631V170.07" stroke="#575756" stroke-width="0.5" stroke-miterlimit="10" stroke-linecap="square"/>
<path d="M268.611 170.07H266.091V172.92H268.611V170.07Z" stroke="#575756" stroke-width="0.5" stroke-miterlimit="10" stroke-linecap="square"/>
<path d="M268.32 170.07H269.05V182.29H267.44V173.01" stroke="#575756" stroke-width="0.5" stroke-miterlimit="10" stroke-linecap="square"/>
<path d="M307.562 171.5H275.062" stroke="#575756" stroke-width="0.5" stroke-miterlimit="10"/>
<path d="M275.072 170.061H272.552V173.001H275.072V170.061Z" stroke="#575756" stroke-width="0.5" stroke-miterlimit="10" stroke-linecap="square"/>
<path d="M273.712 173.01V182.29H272.102V170.07" stroke="#575756" stroke-width="0.5" stroke-miterlimit="10" stroke-linecap="square"/>
<path d="M310.091 170.07H307.571V172.92H310.091V170.07Z" stroke="#575756" stroke-width="0.5" stroke-miterlimit="10" stroke-linecap="square"/>
<path d="M309.792 170.07H310.532V182.29H308.922V173.01" stroke="#575756" stroke-width="0.5" stroke-miterlimit="10" stroke-linecap="square"/>
<path d="M349.021 171.5H316.521" stroke="#575756" stroke-width="0.5" stroke-miterlimit="10"/>
<path d="M316.522 170.07H314.002V173.01H316.522V170.07Z" stroke="#575756" stroke-width="0.5" stroke-miterlimit="10" stroke-linecap="square"/>
<path d="M315.172 173.01V182.29H313.562V170.07" stroke="#575756" stroke-width="0.5" stroke-miterlimit="10" stroke-linecap="square"/>
<path d="M351.542 170.07H349.021V172.92H351.542V170.07Z" stroke="#575756" stroke-width="0.5" stroke-miterlimit="10" stroke-linecap="square"/>
<path d="M351.251 170.07H351.981V182.29H350.371V173.01" stroke="#575756" stroke-width="0.5" stroke-miterlimit="10" stroke-linecap="square"/>
<path d="M211.141 296.652H183.341V227.832H171.331V296.652V302.422V333.312H183.341V302.422H211.141V296.652Z" fill="#737474" stroke="black" stroke-miterlimit="10"/>
<path d="M584.741 272.872H532.681H520.661V296.652H363.121V257.092H357.351V296.652H353.921V302.422H520.661V323.472H532.681V323.462H584.741V323.472H590.511V272.862H584.741V272.872V272.872ZM584.741 317.702H532.681V278.642H584.741V317.702V317.702Z" fill="#737474" stroke="black" stroke-miterlimit="10"/>
<path d="M230.361 170.271H183.341H171.331H171.321V182.291H171.331V193.091H183.341V182.291H230.361V170.271Z" fill="#737474" stroke="black" stroke-miterlimit="10"/>
<path d="M590.511 170.271H352.211V182.291H357.351V222.061H363.121V182.291H590.511V170.271Z" fill="#737474" stroke="black" stroke-miterlimit="10"/>
<path d="M274.691 414.231V302.421V298.171V296.651V269.201H272.691V296.651H246.661V302.421H268.921V414.231H183.341V371.831H171.331V414.231V426.251V426.271H183.341V426.251H287.921V414.231H274.691Z" fill="#737474" stroke="black" stroke-miterlimit="10"/>
<path d="M315.311 414.231V302.431H318.971V296.651H315.311V269.201H313.311V414.231H299.921V426.251H590.511V414.231H315.311Z" fill="#737474" stroke="black" stroke-miterlimit="10"/>
<path d="M271.872 170.271H269.312V182.081H271.872V170.271Z" fill="#737474" stroke="black" stroke-miterlimit="10"/>
<path d="M313.351 170.271H310.791V182.081H313.351V170.271Z" fill="#737474" stroke="black" stroke-miterlimit="10"/>
<path d="M177.331 600.241V586.941" stroke="#575756" stroke-width="0.5" stroke-miterlimit="10"/>
<path d="M177.331 513.9V500.6" stroke="#575756" stroke-width="0.5" stroke-miterlimit="10"/>
<path d="M177.331 489.161V457.311" stroke="#575756" stroke-width="0.5" stroke-miterlimit="10"/>
<path d="M177.331 662.5V611.24" stroke="#575756" stroke-width="0.5" stroke-miterlimit="10"/>
<path d="M177.331 575.241V524.871" stroke="#575756" stroke-width="0.5" stroke-miterlimit="10"/>
<path d="M528.211 600.651V586.881" stroke="#575756" stroke-width="0.5" stroke-miterlimit="10"/>
<path d="M528.211 512.72V501.76" stroke="#575756" stroke-width="0.5" stroke-miterlimit="10"/>
<path d="M528.211 661.091V611.531" stroke="#575756" stroke-width="0.5" stroke-miterlimit="10"/>
<path d="M528.211 573.011V525.381" stroke="#575756" stroke-width="0.5" stroke-miterlimit="10"/>
<path d="M528.211 486.651V457.311" stroke="#575756" stroke-width="0.5" stroke-miterlimit="10"/>
<path d="M180.061 688.48L174.611 693.92" stroke="#575756" stroke-miterlimit="10"/>
<path d="M530.941 688.48L525.491 693.92" stroke="#575756" stroke-miterlimit="10"/>
<path d="M177.331 691.199H528.211" stroke="#575756" stroke-width="0.5" stroke-miterlimit="10"/>
<path d="M528.211 691.2V675.65" stroke="#575756" stroke-width="0.5" stroke-miterlimit="10"/>
<path d="M177.331 691.2V675.65" stroke="#575756" stroke-width="0.5" stroke-miterlimit="10"/>
<path d="M338.596 682.504C339.123 683.214 339.959 683.627 340.876 683.627C341.678 683.638 342.423 683.352 342.973 682.768C343.511 682.195 343.752 681.496 343.752 680.659V678.012C343.752 677.176 343.546 676.488 342.973 675.904C342.457 675.365 341.724 675.033 340.956 675.045C340.188 675.033 339.466 675.343 338.962 675.87C338.458 676.374 338.16 677.061 338.149 677.795C338.137 678.574 338.435 679.261 338.962 679.777C339.466 680.247 340.154 680.522 340.853 680.522C341.632 680.522 342.331 680.155 342.812 679.594V680.659C342.812 681.163 342.663 681.61 342.377 681.977C342.056 682.435 341.483 682.745 340.876 682.745C340.234 682.745 339.65 682.401 339.306 681.897L338.596 682.504ZM340.566 676.099C341.059 675.996 341.54 676.099 341.93 676.362C342.285 676.603 342.549 676.981 342.652 677.417C342.755 677.875 342.675 678.333 342.446 678.711C342.205 679.101 341.815 679.399 341.334 679.502C340.864 679.605 340.406 679.525 340.028 679.284C339.638 679.044 339.352 678.654 339.249 678.184C339.146 677.737 339.226 677.29 339.432 676.912C339.673 676.5 340.085 676.19 340.566 676.099ZM345.724 683.661V682.206H344.67V683.455H345.22C345.254 683.902 345.197 684.28 344.727 684.246L344.67 684.693C345.369 684.819 345.724 684.383 345.724 683.661ZM352.851 683.627C352.072 683.627 351.304 683.318 350.8 682.733C350.307 682.172 350.113 681.576 350.113 680.797V677.852C350.113 677.084 350.307 676.465 350.823 675.893C351.316 675.343 352.061 675.022 352.851 675.033C353.619 675.022 354.364 675.32 354.879 675.893C355.383 676.443 355.59 677.073 355.59 677.852V680.797C355.59 681.542 355.395 682.172 354.914 682.733C354.398 683.306 353.665 683.627 352.851 683.627ZM352.851 675.927C352.232 675.915 351.671 676.248 351.35 676.74C351.144 677.061 351.052 677.428 351.052 677.852V680.797C351.052 681.198 351.121 681.587 351.35 681.92C351.682 682.412 352.244 682.733 352.851 682.733C353.47 682.733 354.031 682.412 354.352 681.92C354.581 681.587 354.65 681.244 354.65 680.797V677.852C354.65 677.428 354.57 677.096 354.364 676.74C354.031 676.248 353.47 675.915 352.851 675.927ZM357.112 675.205L356.859 679.445L357.707 679.926C357.81 679.743 357.959 679.582 358.12 679.445C358.441 679.17 358.865 678.998 359.312 678.998C359.793 678.998 360.228 679.181 360.56 679.49C360.939 679.823 361.179 680.327 361.179 680.865C361.179 681.381 360.962 681.839 360.618 682.183C360.285 682.515 359.816 682.722 359.312 682.722C358.842 682.722 358.395 682.538 358.063 682.229C357.799 682 357.604 681.679 357.513 681.335L356.619 681.576C356.756 682.08 357.031 682.527 357.398 682.871C357.914 683.352 358.59 683.627 359.312 683.615C360.056 683.627 360.778 683.329 361.282 682.813C361.787 682.321 362.107 681.61 362.107 680.865C362.119 680.075 361.809 679.353 361.225 678.826C360.732 678.39 360.079 678.138 359.403 678.138C358.819 678.138 358.234 678.356 357.799 678.723L357.959 676.087H361.466V675.205H357.112ZM365.881 683.627C365.102 683.627 364.335 683.318 363.83 682.733C363.338 682.172 363.143 681.576 363.143 680.797V677.852C363.143 677.084 363.338 676.465 363.853 675.893C364.346 675.343 365.091 675.022 365.881 675.033C366.649 675.022 367.394 675.32 367.91 675.893C368.414 676.443 368.62 677.073 368.62 677.852V680.797C368.62 681.542 368.425 682.172 367.944 682.733C367.428 683.306 366.695 683.627 365.881 683.627ZM365.881 675.927C365.263 675.915 364.701 676.248 364.38 676.74C364.174 677.061 364.082 677.428 364.082 677.852V680.797C364.082 681.198 364.151 681.587 364.38 681.92C364.713 682.412 365.274 682.733 365.881 682.733C366.5 682.733 367.062 682.412 367.382 681.92C367.612 681.587 367.68 681.244 367.68 680.797V677.852C367.68 677.428 367.6 677.096 367.394 676.74C367.062 676.248 366.5 675.915 365.881 675.927Z" fill="black"/>
<path d="M104 366C104 362.134 107.134 359 111 359V359C114.866 359 118 362.134 118 366V366C118 369.866 114.866 373 111 373V373C107.134 373 104 369.866 104 366V366Z" fill="#D3D3D3"/>
<path d="M108.433 363L107.3 363.675V364.433L108.433 363.75V369H109.116V363H108.433ZM114.194 363.7C113.811 363.175 113.211 362.875 112.536 362.875C111.952 362.875 111.411 363.083 111.019 363.508C110.619 363.917 110.444 364.425 110.444 365.033V366.958C110.444 367.567 110.594 368.075 111.011 368.5C111.386 368.892 111.919 369.125 112.486 369.117C113.036 369.125 113.561 368.9 113.936 368.517C114.294 368.158 114.519 367.65 114.519 367.117C114.527 366.55 114.319 366.058 113.927 365.675C113.561 365.333 113.069 365.133 112.552 365.133C111.994 365.133 111.477 365.4 111.127 365.808V365.033C111.127 364.667 111.236 364.342 111.444 364.083C111.677 363.742 112.094 363.525 112.536 363.525C113.011 363.525 113.436 363.767 113.686 364.133L114.194 363.7ZM112.761 368.358C112.402 368.425 112.052 368.35 111.769 368.158C111.519 367.983 111.319 367.717 111.244 367.392C111.169 367.067 111.227 366.725 111.394 366.458C111.569 366.167 111.861 365.95 112.211 365.875C112.544 365.808 112.877 365.867 113.161 366.033C113.436 366.208 113.652 366.492 113.719 366.842C113.794 367.158 113.744 367.492 113.586 367.767C113.411 368.067 113.119 368.283 112.761 368.358Z" fill="#575756"/>
<path d="M111 372.75C107.272 372.75 104.25 369.728 104.25 366H103.75C103.75 370.004 106.996 373.25 111 373.25V372.75ZM117.75 366C117.75 369.728 114.728 372.75 111 372.75V373.25C115.004 373.25 118.25 370.004 118.25 366H117.75ZM111 359.25C114.728 359.25 117.75 362.272 117.75 366H118.25C118.25 361.996 115.004 358.75 111 358.75V359.25ZM111 358.75C106.996 358.75 103.75 361.996 103.75 366H104.25C104.25 362.272 107.272 359.25 111 359.25V358.75Z" fill="#575756"/>
<path d="M445.582 363L444.448 363.675V364.433L445.582 363.75V369H446.265V363H445.582ZM447.634 364.692H448.326C448.317 364.358 448.467 364.058 448.692 363.833C448.901 363.642 449.184 363.525 449.484 363.525C449.809 363.525 450.101 363.65 450.317 363.875C450.534 364.092 450.659 364.383 450.659 364.7C450.659 365.042 450.492 365.392 450.117 365.775L447.592 368.35V369H451.326V368.35H448.617L450.517 366.333C451.059 365.783 451.342 365.342 451.342 364.7C451.342 364.217 451.151 363.75 450.826 363.417C450.492 363.058 450.017 362.875 449.509 362.875C449.042 362.875 448.567 363.025 448.226 363.342C447.859 363.675 447.626 364.167 447.634 364.692Z" fill="#575756"/>
<path d="M448 372.75C444.272 372.75 441.25 369.728 441.25 366H440.75C440.75 370.004 443.996 373.25 448 373.25V372.75ZM454.75 366C454.75 369.728 451.728 372.75 448 372.75V373.25C452.004 373.25 455.25 370.004 455.25 366H454.75ZM448 359.25C451.728 359.25 454.75 362.272 454.75 366H455.25C455.25 361.996 452.004 358.75 448 358.75V359.25ZM448 358.75C443.996 358.75 440.75 361.996 440.75 366H441.25C441.25 362.272 444.272 359.25 448 359.25V358.75Z" fill="#575756"/>
<path d="M215.519 363L214.386 363.675V364.433L215.519 363.75V369H216.202V363H215.519ZM220.922 365.783C220.588 365.467 220.155 365.292 219.663 365.275L221.355 363.667V363H217.855V363.65H220.43L218.497 365.483L218.83 366.017C219.03 365.917 219.263 365.858 219.48 365.858C219.788 365.858 220.097 365.95 220.33 366.158C220.613 366.408 220.73 366.783 220.73 367.158C220.73 367.558 220.605 367.942 220.288 368.192C220.072 368.375 219.78 368.467 219.488 368.467C219.197 368.467 218.905 368.383 218.68 368.208C218.48 368.058 218.338 367.842 218.263 367.6L217.613 367.783C217.722 368.142 217.938 368.475 218.238 368.708C218.597 368.992 219.047 369.125 219.488 369.117C219.93 369.117 220.388 368.983 220.738 368.692C221.197 368.333 221.422 367.767 221.43 367.158C221.438 366.658 221.28 366.142 220.922 365.783Z" fill="#575756"/>
<path d="M218 372.75C214.272 372.75 211.25 369.728 211.25 366H210.75C210.75 370.004 213.996 373.25 218 373.25V372.75ZM224.75 366C224.75 369.728 221.728 372.75 218 372.75V373.25C222.004 373.25 225.25 370.004 225.25 366H224.75ZM218 359.25C221.728 359.25 224.75 362.272 224.75 366H225.25C225.25 361.996 222.004 358.75 218 358.75V359.25ZM218 358.75C213.996 358.75 210.75 361.996 210.75 366H211.25C211.25 362.272 214.272 359.25 218 359.25V358.75Z" fill="#575756"/>
<path d="M556.472 363L555.339 363.675V364.433L556.472 363.75V369H557.155V363H556.472ZM558.841 363L558.658 366.083L559.275 366.433C559.35 366.3 559.458 366.183 559.575 366.083C559.808 365.883 560.116 365.758 560.441 365.758C560.791 365.758 561.108 365.892 561.35 366.117C561.625 366.358 561.8 366.725 561.8 367.117C561.8 367.492 561.641 367.825 561.391 368.075C561.15 368.317 560.808 368.467 560.441 368.467C560.1 368.467 559.775 368.333 559.533 368.108C559.341 367.942 559.2 367.708 559.133 367.458L558.483 367.633C558.583 368 558.783 368.325 559.05 368.575C559.425 368.925 559.916 369.125 560.441 369.117C560.983 369.125 561.508 368.908 561.875 368.533C562.241 368.175 562.475 367.658 562.475 367.117C562.483 366.542 562.258 366.017 561.833 365.633C561.475 365.317 561 365.133 560.508 365.133C560.083 365.133 559.658 365.292 559.341 365.558L559.458 363.642H562.008V363H558.841Z" fill="#575756"/>
<path d="M559 372.75C555.272 372.75 552.25 369.728 552.25 366H551.75C551.75 370.004 554.996 373.25 559 373.25V372.75ZM565.75 366C565.75 369.728 562.728 372.75 559 372.75V373.25C563.004 373.25 566.25 370.004 566.25 366H565.75ZM559 359.25C562.728 359.25 565.75 362.272 565.75 366H566.25C566.25 361.996 563.004 358.75 559 358.75V359.25ZM559 358.75C554.996 358.75 551.75 361.996 551.75 366H552.25C552.25 362.272 555.272 359.25 559 359.25V358.75Z" fill="#575756"/>
<path d="M556.515 230L555.382 230.675V231.433L556.515 230.75V236H557.198V230H556.515ZM561.876 234.225V232.5H561.193V234.225H559.243L561.234 230H560.518L558.526 234.225V234.867H561.193V236H561.876V234.867H562.518V234.225H561.876Z" fill="#575756"/>
<path d="M559 239.75C555.272 239.75 552.25 236.728 552.25 233H551.75C551.75 237.004 554.996 240.25 559 240.25V239.75ZM565.75 233C565.75 236.728 562.728 239.75 559 239.75V240.25C563.004 240.25 566.25 237.004 566.25 233H565.75ZM559 226.25C562.728 226.25 565.75 229.272 565.75 233H566.25C566.25 228.996 563.004 225.75 559 225.75V226.25ZM559 225.75C554.996 225.75 551.75 228.996 551.75 233H552.25C552.25 229.272 555.272 226.25 559 226.25V225.75Z" fill="#575756"/>
<path d="M446.406 230L445.272 230.675V231.433L446.406 230.75V236H447.089V230H446.406ZM449.367 230L448.233 230.675V231.433L449.367 230.75V236H450.05V230H449.367Z" fill="#575756"/>
<path d="M448 239.75C444.272 239.75 441.25 236.728 441.25 233H440.75C440.75 237.004 443.996 240.25 448 240.25V239.75ZM454.75 233C454.75 236.728 451.728 239.75 448 239.75V240.25C452.004 240.25 455.25 237.004 455.25 233H454.75ZM448 226.25C451.728 226.25 454.75 229.272 454.75 233H455.25C455.25 228.996 452.004 225.75 448 225.75V226.25ZM448 225.75C443.996 225.75 440.75 228.996 440.75 233H441.25C441.25 229.272 444.272 226.25 448 226.25V225.75Z" fill="#575756"/>
<path d="M255.562 230L254.429 230.675V231.433L255.562 230.75V236H256.245V230H255.562ZM259.481 236.125C258.915 236.125 258.356 235.9 257.99 235.475C257.631 235.067 257.49 234.633 257.49 234.067V231.925C257.49 231.367 257.631 230.917 258.006 230.5C258.365 230.1 258.906 229.867 259.481 229.875C260.04 229.867 260.581 230.083 260.956 230.5C261.323 230.9 261.473 231.358 261.473 231.925V234.067C261.473 234.608 261.331 235.067 260.981 235.475C260.606 235.892 260.073 236.125 259.481 236.125ZM259.481 230.525C259.031 230.517 258.623 230.758 258.39 231.117C258.24 231.35 258.173 231.617 258.173 231.925V234.067C258.173 234.358 258.223 234.642 258.39 234.883C258.631 235.242 259.04 235.475 259.481 235.475C259.931 235.475 260.34 235.242 260.573 234.883C260.74 234.642 260.79 234.392 260.79 234.067V231.925C260.79 231.617 260.731 231.375 260.581 231.117C260.34 230.758 259.931 230.517 259.481 230.525Z" fill="#575756"/>
<path d="M258 239.75C254.272 239.75 251.25 236.728 251.25 233H250.75C250.75 237.004 253.996 240.25 258 240.25V239.75ZM264.75 233C264.75 236.728 261.728 239.75 258 239.75V240.25C262.004 240.25 265.25 237.004 265.25 233H264.75ZM258 226.25C261.728 226.25 264.75 229.272 264.75 233H265.25C265.25 228.996 262.004 225.75 258 225.75V226.25ZM258 225.75C253.996 225.75 250.75 228.996 250.75 233H251.25C251.25 229.272 254.272 226.25 258 226.25V225.75Z" fill="#575756"/>
</svg>
