{"accessors" : [{"bufferView" : 0, "byteOffset" : 0, "componentType" : 5123, "count" : 24, "type" : "SCALAR", "max" : [13], "min" : [0]}, {"bufferView" : 1, "byteOffset" : 0, "componentType" : 5126, "count" : 14, "type" : "VEC3", "max" : [16.738998413085938, 7.674230575561523, 13.123359680175781], "min" : [-12.78856086730957, 6.525936603546143, 0], "name" : "POSITION"}, {"bufferView" : 1, "byteOffset" : 12, "componentType" : 5126, "count" : 14, "type" : "VEC3", "max" : [0, 1.0000044107437134, 0], "min" : [-1.0000044107437134, -1.0000044107437134, 0], "name" : "NORMAL"}, {"bufferView" : 1, "byteOffset" : 24, "componentType" : 5126, "count" : 14, "type" : "VEC2", "max" : [28.953413009643555, 1], "min" : [-28.953413009643555, -12.123359680175781], "name" : "TEXCOORD_0"}, {"bufferView" : 0, "byteOffset" : 48, "componentType" : 5123, "count" : 24, "type" : "SCALAR", "max" : [13], "min" : [0]}, {"bufferView" : 2, "byteOffset" : 0, "componentType" : 5126, "count" : 14, "type" : "VEC3", "max" : [16.738998413085938, 7.674230575561523, 13.123359680175781], "min" : [-12.78856086730957, 6.525936603546143, 0], "name" : "POSITION"}, {"bufferView" : 2, "byteOffset" : 12, "componentType" : 5126, "count" : 14, "type" : "VEC3", "max" : [1.0000044107437134, 0, 1.0000044107437134], "min" : [0, 0, -1.0000044107437134], "name" : "NORMAL"}, {"bufferView" : 2, "byteOffset" : 24, "componentType" : 5126, "count" : 14, "type" : "VEC2", "max" : [1.1482939720153809, 1.5741469860076904], "min" : [-0.5741469860076904, -29.10170555114746], "name" : "TEXCOORD_0"}, {"bufferView" : 0, "byteOffset" : 96, "componentType" : 5123, "count" : 60, "type" : "SCALAR", "max" : [21], "min" : [0]}, {"bufferView" : 3, "byteOffset" : 0, "componentType" : 5126, "count" : 22, "type" : "VEC3", "max" : [-11.640266418457031, 6.525936603546143, 13.123359680175781], "min" : [-12.78856086730957, -13.159102439880371, -6.617444900424222E-24], "name" : "POSITION"}, {"bufferView" : 3, "byteOffset" : 12, "componentType" : 5126, "count" : 22, "type" : "VEC3", "max" : [1.0000044107437134, 0, 0], "min" : [-1.0000044107437134, -1.0000044107437134, 0], "name" : "NORMAL"}, {"bufferView" : 3, "byteOffset" : 24, "componentType" : 5126, "count" : 22, "type" : "VEC2", "max" : [19.11089324951172, 1], "min" : [-30.10170555114746, -12.123359680175781], "name" : "TEXCOORD_0"}, {"bufferView" : 0, "byteOffset" : 216, "componentType" : 5123, "count" : 48, "type" : "SCALAR", "max" : [29], "min" : [0]}, {"bufferView" : 4, "byteOffset" : 0, "componentType" : 5126, "count" : 30, "type" : "VEC3", "max" : [-11.640266418457031, 6.525936603546143, 13.123359680175781], "min" : [-12.78856086730957, -13.159102439880371, -6.617444900424222E-24], "name" : "POSITION"}, {"bufferView" : 4, "byteOffset" : 12, "componentType" : 5126, "count" : 30, "type" : "VEC3", "max" : [0, 1.0000044107437134, 1.0000044107437134], "min" : [0, -1.0000044107437134, -1.0000044107437134], "name" : "NORMAL"}, {"bufferView" : 4, "byteOffset" : 24, "componentType" : 5126, "count" : 30, "type" : "VEC2", "max" : [1.1482939720153809, 1.5741469860076904], "min" : [-0.5741469860076904, -19.259185791015625], "name" : "TEXCOORD_0"}, {"bufferView" : 0, "byteOffset" : 312, "componentType" : 5123, "count" : 192, "type" : "SCALAR", "max" : [53], "min" : [0]}, {"bufferView" : 5, "byteOffset" : 0, "componentType" : 5126, "count" : 54, "type" : "VEC3", "max" : [17.887292861938477, -12.010808944702148, 13.123359680175781], "min" : [-11.640266418457031, -13.159102439880371, -2.6469779601696886E-23], "name" : "POSITION"}, {"bufferView" : 5, "byteOffset" : 12, "componentType" : 5126, "count" : 54, "type" : "VEC3", "max" : [1.0000044107437134, 1.0000044107437134, -0], "min" : [0, -1.0000044107437134, -0], "name" : "NORMAL"}, {"bufferView" : 5, "byteOffset" : 24, "componentType" : 5126, "count" : 54, "type" : "VEC2", "max" : [28.953413009643555, 1], "min" : [-28.953413009643555, -12.123359680175781], "name" : "TEXCOORD_0"}, {"bufferView" : 0, "byteOffset" : 696, "componentType" : 5123, "count" : 144, "type" : "SCALAR", "max" : [93], "min" : [0]}, {"bufferView" : 6, "byteOffset" : 0, "componentType" : 5126, "count" : 94, "type" : "VEC3", "max" : [17.887292861938477, -12.010808944702148, 13.123359680175781], "min" : [-11.640266418457031, -13.159102439880371, -2.6469779601696886E-23], "name" : "POSITION"}, {"bufferView" : 6, "byteOffset" : 12, "componentType" : 5126, "count" : 94, "type" : "VEC3", "max" : [1.0000044107437134, -0, 1.0000044107437134], "min" : [-1.0000044107437134, -0, -1.0000044107437134], "name" : "NORMAL"}, {"bufferView" : 6, "byteOffset" : 24, "componentType" : 5126, "count" : 94, "type" : "VEC2", "max" : [1.1482939720153809, 1.5741469860076904], "min" : [-16.97834587097168, -29.10170555114746], "name" : "TEXCOORD_0"}, {"bufferView" : 0, "byteOffset" : 984, "componentType" : 5123, "count" : 60, "type" : "SCALAR", "max" : [21], "min" : [0]}, {"bufferView" : 7, "byteOffset" : 0, "componentType" : 5126, "count" : 22, "type" : "VEC3", "max" : [17.887292861938477, 7.674230575561523, 13.123359680175781], "min" : [16.738998413085938, -12.010808944702148, -1.3234889800848443E-23], "name" : "POSITION"}, {"bufferView" : 7, "byteOffset" : 12, "componentType" : 5126, "count" : 22, "type" : "VEC3", "max" : [1.0000044107437134, 1.0000044107437134, 0], "min" : [-1.0000044107437134, 0, 0], "name" : "NORMAL"}, {"bufferView" : 7, "byteOffset" : 24, "componentType" : 5126, "count" : 22, "type" : "VEC2", "max" : [19.11089324951172, 1], "min" : [-30.10170555114746, -12.123359680175781], "name" : "TEXCOORD_0"}, {"bufferView" : 0, "byteOffset" : 1104, "componentType" : 5123, "count" : 48, "type" : "SCALAR", "max" : [29], "min" : [0]}, {"bufferView" : 8, "byteOffset" : 0, "componentType" : 5126, "count" : 30, "type" : "VEC3", "max" : [17.887292861938477, 7.674230575561523, 13.123359680175781], "min" : [16.738998413085938, -12.010808944702148, -1.3234889800848443E-23], "name" : "POSITION"}, {"bufferView" : 8, "byteOffset" : 12, "componentType" : 5126, "count" : 30, "type" : "VEC3", "max" : [0, 1.0000044107437134, 1.0000044107437134], "min" : [0, -1.0000044107437134, -1.0000044107437134], "name" : "NORMAL"}, {"bufferView" : 8, "byteOffset" : 24, "componentType" : 5126, "count" : 30, "type" : "VEC2", "max" : [1.1482939720153809, 1.5741469860076904], "min" : [-0.5741469860076904, -19.259185791015625], "name" : "TEXCOORD_0"}, {"bufferView" : 0, "byteOffset" : 1200, "componentType" : 5123, "count" : 168, "type" : "SCALAR", "max" : [95], "min" : [0]}, {"bufferView" : 9, "byteOffset" : 0, "componentType" : 5126, "count" : 96, "type" : "VEC3", "max" : [1.7503280639648438, 0.6561679840087891, 7.2506561279296875], "min" : [-1.7503280639648438, -0.6561679840087891, 0], "name" : "POSITION"}, {"bufferView" : 9, "byteOffset" : 12, "componentType" : 5126, "count" : 96, "type" : "VEC3", "max" : [1.0000044107437134, 1.0000044107437134, 1.0000044107437134], "min" : [-1.0000044107437134, -1.0000044107437134, -1.0000044107437134], "name" : "NORMAL"}, {"bufferView" : 9, "byteOffset" : 24, "componentType" : 5126, "count" : 96, "type" : "VEC2", "max" : [8.750328063964844, 1.0820209980010986], "min" : [-8.750328063964844, -6.2506561279296875], "name" : "TEXCOORD_0"}, {"bufferView" : 0, "byteOffset" : 1536, "componentType" : 5123, "count" : 36, "type" : "SCALAR", "max" : [23], "min" : [0]}, {"bufferView" : 10, "byteOffset" : 0, "componentType" : 5126, "count" : 24, "type" : "VEC3", "max" : [1.5009843111038208, 0.5741469860076904, 7.001312255859375], "min" : [-1.5009843111038208, 0.40682414174079895, 0], "name" : "POSITION"}, {"bufferView" : 10, "byteOffset" : 12, "componentType" : 5126, "count" : 24, "type" : "VEC3", "max" : [1.0000044107437134, 1.0000044107437134, 1.0000044107437134], "min" : [-1.0000044107437134, -1.0000044107437134, -1.0000044107437134], "name" : "NORMAL"}, {"bufferView" : 10, "byteOffset" : 24, "componentType" : 5126, "count" : 24, "type" : "VEC2", "max" : [3.5009844303131104, 1.5741469860076904], "min" : [-3.5009841918945312, -6.001312255859375], "name" : "TEXCOORD_0"}, {"bufferView" : 0, "byteOffset" : 1608, "componentType" : 5123, "count" : 36, "type" : "SCALAR", "max" : [23], "min" : [0]}, {"bufferView" : 11, "byteOffset" : 0, "componentType" : 5126, "count" : 24, "type" : "VEC3", "max" : [1.294291377067566, -0.46259841322898865, 6.797900199890137], "min" : [-1.294291377067566, -0.501968502998352, 1.2073490619659424], "name" : "POSITION"}, {"bufferView" : 11, "byteOffset" : 12, "componentType" : 5126, "count" : 24, "type" : "VEC3", "max" : [1.0000044107437134, 1.0000044107437134, 1.0000044107437134], "min" : [-1.0000044107437134, -1.0000044107437134, -1.0000044107437134], "name" : "NORMAL"}, {"bufferView" : 11, "byteOffset" : 24, "componentType" : 5126, "count" : 24, "type" : "VEC2", "max" : [3.2942912578582764, 1.501968502998352], "min" : [-3.2942914962768555, -5.797900676727295], "name" : "TEXCOORD_0"}, {"bufferView" : 0, "byteOffset" : 1680, "componentType" : 5123, "count" : 288, "type" : "SCALAR", "max" : [143], "min" : [0]}, {"bufferView" : 12, "byteOffset" : 0, "componentType" : 5126, "count" : 144, "type" : "VEC3", "max" : [1.5009843111038208, 0.5314960479736328, 7.004593372344971], "min" : [-1.5009843111038208, -0.616797924041748, 1.0006561279296875], "name" : "POSITION"}, {"bufferView" : 12, "byteOffset" : 12, "componentType" : 5126, "count" : 144, "type" : "VEC3", "max" : [1.0000044107437134, 1.0000044107437134, 1.0000044107437134], "min" : [-1.0000044107437134, -1.0000044107437134, -1.0000044107437134], "name" : "NORMAL"}, {"bufferView" : 12, "byteOffset" : 24, "componentType" : 5126, "count" : 144, "type" : "VEC2", "max" : [3.5009841918945312, 1.616797924041748], "min" : [-3.5009844303131104, -6.004593372344971], "name" : "TEXCOORD_0"}, {"bufferView" : 0, "byteOffset" : 2256, "componentType" : 5123, "count" : 36, "type" : "SCALAR", "max" : [23], "min" : [0]}, {"bufferView" : 13, "byteOffset" : 0, "componentType" : 5126, "count" : 24, "type" : "VEC3", "max" : [4.575131416320801, 0.501968502998352, 6.797900199890137], "min" : [-4.575131416320801, 0.46259841322898865, 1.2073490619659424], "name" : "POSITION"}, {"bufferView" : 13, "byteOffset" : 12, "componentType" : 5126, "count" : 24, "type" : "VEC3", "max" : [1.0000044107437134, 1.0000044107437134, 1.0000044107437134], "min" : [-1.0000044107437134, -1.0000044107437134, -1.0000044107437134], "name" : "NORMAL"}, {"bufferView" : 13, "byteOffset" : 24, "componentType" : 5126, "count" : 24, "type" : "VEC2", "max" : [6.575131416320801, 1.501968502998352], "min" : [-6.575131416320801, -5.797900676727295], "name" : "TEXCOORD_0"}, {"bufferView" : 0, "byteOffset" : 2328, "componentType" : 5123, "count" : 288, "type" : "SCALAR", "max" : [143], "min" : [0]}, {"bufferView" : 14, "byteOffset" : 0, "componentType" : 5126, "count" : 144, "type" : "VEC3", "max" : [4.781824111938477, 0.616797924041748, 7.004593372344971], "min" : [-4.781824111938477, -0.5314960479736328, 1.0006561279296875], "name" : "POSITION"}, {"bufferView" : 14, "byteOffset" : 12, "componentType" : 5126, "count" : 144, "type" : "VEC3", "max" : [1.0000044107437134, 1.0000044107437134, 1.0000044107437134], "min" : [-1.0000044107437134, -1.0000044107437134, -1.0000044107437134], "name" : "NORMAL"}, {"bufferView" : 14, "byteOffset" : 24, "componentType" : 5126, "count" : 144, "type" : "VEC2", "max" : [6.781824111938477, 1.616797924041748], "min" : [-6.781824111938477, -6.004593372344971], "name" : "TEXCOORD_0"}, {"bufferView" : 0, "byteOffset" : 2904, "componentType" : 5123, "count" : 36, "type" : "SCALAR", "max" : [23], "min" : [0]}, {"bufferView" : 15, "byteOffset" : 0, "componentType" : 5126, "count" : 24, "type" : "VEC3", "max" : [4.575131416320801, -0.46259841322898865, 6.797900199890137], "min" : [-4.575131416320801, -0.501968502998352, 1.2073490619659424], "name" : "POSITION"}, {"bufferView" : 15, "byteOffset" : 12, "componentType" : 5126, "count" : 24, "type" : "VEC3", "max" : [1.0000044107437134, 1.0000044107437134, 1.0000044107437134], "min" : [-1.0000044107437134, -1.0000044107437134, -1.0000044107437134], "name" : "NORMAL"}, {"bufferView" : 15, "byteOffset" : 24, "componentType" : 5126, "count" : 24, "type" : "VEC2", "max" : [6.575131416320801, 1.501968502998352], "min" : [-6.575131416320801, -5.797900676727295], "name" : "TEXCOORD_0"}, {"bufferView" : 0, "byteOffset" : 2976, "componentType" : 5123, "count" : 288, "type" : "SCALAR", "max" : [143], "min" : [0]}, {"bufferView" : 16, "byteOffset" : 0, "componentType" : 5126, "count" : 144, "type" : "VEC3", "max" : [4.781824111938477, 0.5314960479736328, 7.004593372344971], "min" : [-4.781824111938477, -0.616797924041748, 1.0006561279296875], "name" : "POSITION"}, {"bufferView" : 16, "byteOffset" : 12, "componentType" : 5126, "count" : 144, "type" : "VEC3", "max" : [1.0000044107437134, 1.0000044107437134, 1.0000044107437134], "min" : [-1.0000044107437134, -1.0000044107437134, -1.0000044107437134], "name" : "NORMAL"}, {"bufferView" : 16, "byteOffset" : 24, "componentType" : 5126, "count" : 144, "type" : "VEC2", "max" : [6.781824111938477, 1.616797924041748], "min" : [-6.781824111938477, -6.004593372344971], "name" : "TEXCOORD_0"}, {"bufferView" : 0, "byteOffset" : 3552, "componentType" : 5123, "count" : 30, "type" : "SCALAR", "max" : [19], "min" : [0]}, {"bufferView" : 17, "byteOffset" : 0, "componentType" : 5126, "count" : 20, "type" : "VEC3", "max" : [20.511964797973633, 10.29890251159668, 0], "min" : [-15.413232803344727, -15.783774375915527, -1.1876640319824219], "name" : "POSITION"}, {"bufferView" : 17, "byteOffset" : 12, "componentType" : 5126, "count" : 20, "type" : "VEC3", "max" : [1.0000044107437134, 1.0000044107437134, -0], "min" : [-1.0000044107437134, -1.0000044107437134, -1.0000044107437134], "name" : "NORMAL"}, {"bufferView" : 17, "byteOffset" : 24, "componentType" : 5126, "count" : 20, "type" : "VEC2", "max" : [20.511964797973633, 11.29890251159668], "min" : [-15.783775329589844, -14.783775329589844], "name" : "TEXCOORD_0"}, {"bufferView" : 0, "byteOffset" : 3612, "componentType" : 5123, "count" : 6, "type" : "SCALAR", "max" : [3], "min" : [0]}, {"bufferView" : 18, "byteOffset" : 0, "componentType" : 5126, "count" : 4, "type" : "VEC3", "max" : [20.511964797973633, 10.29890251159668, 0], "min" : [-15.413232803344727, -15.783774375915527, 0], "name" : "POSITION"}, {"bufferView" : 18, "byteOffset" : 12, "componentType" : 5126, "count" : 4, "type" : "VEC3", "max" : [0, 0, 1.0000044107437134], "min" : [0, 0, 1.0000044107437134], "name" : "NORMAL"}, {"bufferView" : 18, "byteOffset" : 24, "componentType" : 5126, "count" : 4, "type" : "VEC2", "max" : [20.511964797973633, 16.783775329589844], "min" : [-15.413232803344727, -9.29890251159668], "name" : "TEXCOORD_0"}, {"bufferView" : 0, "byteOffset" : 3624, "componentType" : 5123, "count" : 60, "type" : "SCALAR", "max" : [43], "min" : [0]}, {"bufferView" : 19, "byteOffset" : 0, "componentType" : 5126, "count" : 44, "type" : "VEC3", "max" : [19.527711868286133, 9.314650535583496, 22.637794494628906], "min" : [-14.428980827331543, -14.799522399902344, 13.123359680175781], "name" : "POSITION"}, {"bufferView" : 19, "byteOffset" : 12, "componentType" : 5126, "count" : 44, "type" : "VEC3", "max" : [1.0000044107437134, 1.0000044107437134, 0.8382030725479126], "min" : [-1.0000044107437134, -1.0000044107437134, -0.8382030725479126], "name" : "NORMAL"}, {"bufferView" : 19, "byteOffset" : 24, "componentType" : 5126, "count" : 44, "type" : "VEC2", "max" : [19.527713775634766, 5.434879302978516], "min" : [-19.527713775634766, -14.104854583740234], "name" : "TEXCOORD_0"}, {"bufferView" : 0, "byteOffset" : 3744, "componentType" : 5123, "count" : 36, "type" : "SCALAR", "max" : [15], "min" : [0]}, {"bufferView" : 20, "byteOffset" : 0, "componentType" : 5126, "count" : 16, "type" : "VEC3", "max" : [0.02624671906232834, 0.01312335953116417, 0], "min" : [-2.0816681711721685E-17, -0.01312335953116417, 0], "name" : "POSITION"}, {"bufferView" : 20, "byteOffset" : 12, "componentType" : 5126, "count" : 16, "type" : "VEC3", "max" : [0, 0, 1.0000044107437134], "min" : [0, 0, 1.0000044107437134], "name" : "NORMAL"}, {"bufferView" : 20, "byteOffset" : 24, "componentType" : 5126, "count" : 16, "type" : "VEC2", "max" : [0.02624671906232834, 1.0131233930587769], "min" : [4.888832047522662E-11, 0.9868766665458679], "name" : "TEXCOORD_0"}], "asset" : {"generator" : "Aspose.3D 24.6.0", "version" : "2.0"}, "buffers" : [{"uri" : "data:application/octet-stream;base64,", "byteLength" : 35516}], "bufferViews" : [{"buffer" : 0, "byteOffset" : 0, "byteLength" : 3816, "target" : 34963}, {"buffer" : 0, "byteOffset" : 3820, "byteLength" : 448, "byteStride" : 32, "target" : 34962}, {"buffer" : 0, "byteOffset" : 4272, "byteLength" : 448, "byteStride" : 32, "target" : 34962}, {"buffer" : 0, "byteOffset" : 4724, "byteLength" : 704, "byteStride" : 32, "target" : 34962}, {"buffer" : 0, "byteOffset" : 5432, "byteLength" : 960, "byteStride" : 32, "target" : 34962}, {"buffer" : 0, "byteOffset" : 6396, "byteLength" : 1728, "byteStride" : 32, "target" : 34962}, {"buffer" : 0, "byteOffset" : 8128, "byteLength" : 3008, "byteStride" : 32, "target" : 34962}, {"buffer" : 0, "byteOffset" : 11140, "byteLength" : 704, "byteStride" : 32, "target" : 34962}, {"buffer" : 0, "byteOffset" : 11848, "byteLength" : 960, "byteStride" : 32, "target" : 34962}, {"buffer" : 0, "byteOffset" : 12812, "byteLength" : 3072, "byteStride" : 32, "target" : 34962}, {"buffer" : 0, "byteOffset" : 15888, "byteLength" : 768, "byteStride" : 32, "target" : 34962}, {"buffer" : 0, "byteOffset" : 16660, "byteLength" : 768, "byteStride" : 32, "target" : 34962}, {"buffer" : 0, "byteOffset" : 17432, "byteLength" : 4608, "byteStride" : 32, "target" : 34962}, {"buffer" : 0, "byteOffset" : 22044, "byteLength" : 768, "byteStride" : 32, "target" : 34962}, {"buffer" : 0, "byteOffset" : 22816, "byteLength" : 4608, "byteStride" : 32, "target" : 34962}, {"buffer" : 0, "byteOffset" : 27428, "byteLength" : 768, "byteStride" : 32, "target" : 34962}, {"buffer" : 0, "byteOffset" : 28200, "byteLength" : 4608, "byteStride" : 32, "target" : 34962}, {"buffer" : 0, "byteOffset" : 32812, "byteLength" : 640, "byteStride" : 32, "target" : 34962}, {"buffer" : 0, "byteOffset" : 33456, "byteLength" : 128, "byteStride" : 32, "target" : 34962}, {"buffer" : 0, "byteOffset" : 33588, "byteLength" : 1408, "byteStride" : 32, "target" : 34962}, {"buffer" : 0, "byteOffset" : 35000, "byteLength" : 512, "byteStride" : 32, "target" : 34962}], "cameras" : [{"perspective" : {"aspectRatio" : 1.7075949788212301, "yfov" : 0.43833943764363487, "zfar" : 157.0918558779829, "znear" : 8.26054305945755}, "type" : "perspective", "name" : "3D : {3D}"}], "meshes" : [{"primitives" : [{"attributes" : {"POSITION" : 1, "NORMAL" : 2, "TEXCOORD_0" : 3}, "indices" : 0, "mode" : 4}, {"attributes" : {"POSITION" : 5, "NORMAL" : 6, "TEXCOORD_0" : 7}, "indices" : 4, "mode" : 4}], "name" : "   -      350  [263507] Geometry"}, {"primitives" : [{"attributes" : {"POSITION" : 9, "NORMAL" : 10, "TEXCOORD_0" : 11}, "indices" : 8, "mode" : 4}, {"attributes" : {"POSITION" : 13, "NORMAL" : 14, "TEXCOORD_0" : 15}, "indices" : 12, "mode" : 4}], "name" : "   -      350  [263508] Geometry"}, {"primitives" : [{"attributes" : {"POSITION" : 17, "NORMAL" : 18, "TEXCOORD_0" : 19}, "indices" : 16, "mode" : 4}, {"attributes" : {"POSITION" : 21, "NORMAL" : 22, "TEXCOORD_0" : 23}, "indices" : 20, "mode" : 4}], "name" : "   -      350  [263509] Geometry"}, {"primitives" : [{"attributes" : {"POSITION" : 25, "NORMAL" : 26, "TEXCOORD_0" : 27}, "indices" : 24, "mode" : 4}, {"attributes" : {"POSITION" : 29, "NORMAL" : 30, "TEXCOORD_0" : 31}, "indices" : 28, "mode" : 4}], "name" : "   -      350  [263510] Geometry"}, {"primitives" : [{"attributes" : {"POSITION" : 33, "NORMAL" : 34, "TEXCOORD_0" : 35}, "indices" : 32, "mode" : 4}, {"attributes" : {"POSITION" : 37, "NORMAL" : 38, "TEXCOORD_0" : 39}, "indices" : 36, "mode" : 4}], "name" : "- 0915 x 2134  [263605]_[263666] Geometry"}, {"primitives" : [{"attributes" : {"POSITION" : 41, "NORMAL" : 42, "TEXCOORD_0" : 43}, "indices" : 40, "mode" : 4}, {"attributes" : {"POSITION" : 45, "NORMAL" : 46, "TEXCOORD_0" : 47}, "indices" : 44, "mode" : 4}], "name" : " 0915 x 1830  [263682]_[263785] Geometry"}, {"primitives" : [{"attributes" : {"POSITION" : 49, "NORMAL" : 50, "TEXCOORD_0" : 51}, "indices" : 48, "mode" : 4}, {"attributes" : {"POSITION" : 53, "NORMAL" : 54, "TEXCOORD_0" : 55}, "indices" : 52, "mode" : 4}], "name" : " 2915 x 1830  [263869]_[263937] Geometry"}, {"primitives" : [{"attributes" : {"POSITION" : 57, "NORMAL" : 58, "TEXCOORD_0" : 59}, "indices" : 56, "mode" : 4}, {"attributes" : {"POSITION" : 61, "NORMAL" : 62, "TEXCOORD_0" : 63}, "indices" : 60, "mode" : 4}], "name" : " 2915 x 1830  [263955]_[264012] Geometry"}, {"primitives" : [{"attributes" : {"POSITION" : 65, "NORMAL" : 66, "TEXCOORD_0" : 67}, "indices" : 64, "mode" : 4}, {"attributes" : {"POSITION" : 69, "NORMAL" : 70, "TEXCOORD_0" : 71}, "indices" : 68, "mode" : 4}], "name" : " - 362 [264063] Geometry"}, {"primitives" : [{"attributes" : {"POSITION" : 73, "NORMAL" : 74, "TEXCOORD_0" : 75}, "indices" : 72, "mode" : 4}], "name" : "   - 400 [264099] Geometry"}, {"primitives" : [{"attributes" : {"POSITION" : 77, "NORMAL" : 78, "TEXCOORD_0" : 79}, "indices" : 76, "mode" : 4}], "name" : "  1 [355]_[11789] Geometry"}], "nodes" : [{"camera" : 0, "matrix" : [0.49869123945648136, 0.7519105595144101, -0.4312047752287597, 0, 0.23833424126002933, 0.3593526786084825, 0.9022540893894108, 0, 0.8333689681841798, -0.5527170730741321, -3.454341765115136E-16, 0, -31.574876583437074, -59.15839097066135, 45.06927184484303, 1], "name" : "3D : {3D}"}, {"mesh" : 0, "name" : "   -      350  [263507]"}, {"mesh" : 1, "name" : "   -      350  [263508]"}, {"mesh" : 2, "name" : "   -      350  [263509]"}, {"mesh" : 3, "name" : "   -      350  [263510]"}, {"matrix" : [-1, 1.2246467991473532E-16, 0, 0, -1.2246467991473532E-16, -1, 0, 0, 0, 0, 1, 0, 1.9998253100758028, -12.584955729232954, 0, 1], "mesh" : 4, "name" : "- 0915 x 2134  [263605]"}, {"matrix" : [-1, 1.2246467991473532E-16, 0, 0, -1.2246467991473532E-16, -1, 0, 0, 0, 0, 1, 0, -8.498862353966256, -12.627606647868152, 2.001312335958008, 1], "mesh" : 5, "name" : " 0915 x 1830  [263682]"}, {"matrix" : [-1, 1.2246467991473532E-16, 0, 0, -1.2246467991473532E-16, -1, 0, 0, 0, 0, 1, 0, -3.9056865009478834, -12.627606647868168, 2.001312335958008, 1], "mesh" : 5, "name" : " 0915 x 1830  [263818]"}, {"matrix" : [-1, 1.2246467991473532E-16, 0, 0, -1.2246467991473532E-16, -1, 0, 0, 0, 0, 1, 0, 7.905337121099361, -12.627606647868205, 2.001312335958008, 1], "mesh" : 5, "name" : " 0915 x 1830  [263854]"}, {"matrix" : [-1, 1.2246467991473532E-16, 0, 0, -1.2246467991473532E-16, -1, 0, 0, 0, 0, 1, 0, 12.498512974117734, -12.627606647868205, 2.001312335958008, 1], "mesh" : 5, "name" : " 0915 x 1830  [263855]"}, {"matrix" : [6.123233995736766E-17, -1, 0, 0, 1, 6.123233995736766E-17, 0, 0, 0, 0, 1, 0, -12.257064453703766, -2.7424360441936315, 1.6240157480314834, 1], "mesh" : 6, "name" : " 2915 x 1830  [263869]"}, {"matrix" : [6.123233995736766E-17, -1, 0, 0, 1, 6.123233995736766E-17, 0, 0, 0, 0, 1, 0, 17.35579643868476, -2.7424360441936315, 1.6240157480314834, 1], "mesh" : 7, "name" : " 2915 x 1830  [263955]"}, {"mesh" : 8, "name" : " - 362 [264063]"}, {"mesh" : 9, "name" : "   - 400 [264099]"}, {"matrix" : [-99.99999999999993, 1.2246467991473523E-14, 0, 0, -7.498798913309282E-31, -6.123233995736761E-15, 99.99999999999993, 0, 1.2246467991473523E-14, 99.99999999999993, 6.123233995736761E-15, 0, -50.81696199685387, 43.8821593079138, 0, 1], "mesh" : 10, "name" : "  1 [355]"}, {"matrix" : [-99.99999999999993, 1.2246467991473523E-14, 0, 0, -7.498798913309282E-31, -6.123233995736761E-15, 99.99999999999993, 0, 1.2246467991473523E-14, 99.99999999999993, 6.123233995736761E-15, 0, -50.81696199685387, 43.8821593079138, 13.123359580052483, 1], "mesh" : 10, "name" : "  2 [2607]"}, {"matrix" : [-99.99999999999993, 1.2246467991473523E-14, 0, 0, -7.498798913309282E-31, -6.123233995736761E-15, 99.99999999999993, 0, 1.2246467991473523E-14, 99.99999999999993, 6.123233995736761E-15, 0, -50.81696199685387, 43.8821593079138, -0.9842519685039361, 1], "mesh" : 10, "name" : " .  T.O. [5855]"}], "scene" : 0, "scenes" : [{"nodes" : [0, 1, 2, 3, 4, 5, 6, 7, 8, 9, 10, 11, 12, 13, 14, 15, 16]}]}